M48
; DRILL file {KiCad 5.1.12-84ad8e8a86~92~ubuntu20.04.1} date 2022年01月10日 08時42分38秒
; FORMAT={-:-/ absolute / metric / decimal}
; #@! TF.CreationDate,2022-01-10T08:42:38+09:00
; #@! TF.GenerationSoftware,Kicad,Pcbnew,5.1.12-84ad8e8a86~92~ubuntu20.04.1
FMAT,2
METRIC
T1C0.300
T2C0.500
T3C0.762
T4C0.813
T5C1.000
%
G90
G05
T1
X118.952Y-87.55
X119.888Y-118.618
X123.19Y-115.062
X123.444Y-101.092
X123.444Y-106.172
X123.952Y-96.52
X123.952Y-101.854
X124.206Y-87.884
X124.46Y-92.456
X124.714Y-107.442
X125.222Y-87.63
X125.222Y-100.584
X125.73Y-97.79
X125.73Y-102.616
X125.73Y-105.156
X125.862Y-88.11
X125.984Y-100.076
X126.492Y-90.734
X126.492Y-95.25
X126.822Y-111.471
X127.254Y-115.57
X127.416Y-114.3
X127.508Y-110.998
X127.508Y-112.649
X129.378Y-92.71
X129.921Y-88.9
X130.73Y-92.79
X130.73Y-97.87
X130.73Y-102.95
X130.81Y-115.57
T2
X124.714Y-94.996
X127.508Y-95.25
T3
X117.3Y-86.36
T4
X117.3Y-88.9
X117.3Y-91.44
X117.3Y-93.98
X117.3Y-96.52
X117.3Y-99.06
X117.3Y-101.6
X117.3Y-104.14
X117.3Y-106.68
X117.3Y-109.22
X117.3Y-111.76
X117.3Y-114.3
X117.3Y-116.84
X117.3Y-119.38
X132.54Y-86.36
X132.54Y-88.9
X132.54Y-91.44
X132.54Y-93.98
X132.54Y-96.52
X132.54Y-99.06
X132.54Y-101.6
X132.54Y-104.14
X132.54Y-106.68
X132.54Y-109.22
X132.54Y-111.76
X132.54Y-114.3
X132.54Y-116.84
X132.54Y-119.38
T5
X120.015Y-122.555
X122.555Y-122.555
X125.095Y-122.555
X127.635Y-122.555
X130.175Y-122.555
T0
M30
