G04 #@! TF.GenerationSoftware,KiCad,Pcbnew,5.1.12-84ad8e8a86~92~ubuntu20.04.1*
G04 #@! TF.CreationDate,2022-01-11T07:23:18+09:00*
G04 #@! TF.ProjectId,LI2026ODP,4c493230-3236-44f4-9450-2e6b69636164,rev?*
G04 #@! TF.SameCoordinates,Original*
G04 #@! TF.FileFunction,Copper,L2,Inr*
G04 #@! TF.FilePolarity,Positive*
%FSLAX46Y46*%
G04 Gerber Fmt 4.6, Leading zero omitted, Abs format (unit mm)*
G04 Created by KiCad (PCBNEW 5.1.12-84ad8e8a86~92~ubuntu20.04.1) date 2022-01-11 07:23:18*
%MOMM*%
%LPD*%
G01*
G04 APERTURE LIST*
G04 #@! TA.AperFunction,ComponentPad*
%ADD10O,1.700000X1.700000*%
G04 #@! TD*
G04 #@! TA.AperFunction,ComponentPad*
%ADD11R,1.700000X1.700000*%
G04 #@! TD*
G04 #@! TA.AperFunction,ComponentPad*
%ADD12C,1.524000*%
G04 #@! TD*
G04 #@! TA.AperFunction,ComponentPad*
%ADD13R,1.270000X1.270000*%
G04 #@! TD*
G04 #@! TA.AperFunction,ViaPad*
%ADD14C,0.600000*%
G04 #@! TD*
G04 #@! TA.AperFunction,ViaPad*
%ADD15C,0.800000*%
G04 #@! TD*
G04 #@! TA.AperFunction,Conductor*
%ADD16C,0.200000*%
G04 #@! TD*
G04 #@! TA.AperFunction,Conductor*
%ADD17C,0.254000*%
G04 #@! TD*
G04 #@! TA.AperFunction,Conductor*
%ADD18C,0.100000*%
G04 #@! TD*
G04 APERTURE END LIST*
D10*
G04 #@! TO.N,/LPUART2_TX*
G04 #@! TO.C,J2*
X130175000Y-122555000D03*
G04 #@! TO.N,/NRST*
X127635000Y-122555000D03*
G04 #@! TO.N,/SWDIO*
X125095000Y-122555000D03*
G04 #@! TO.N,GND*
X122555000Y-122555000D03*
D11*
G04 #@! TO.N,/SWCLK*
X120015000Y-122555000D03*
G04 #@! TD*
D12*
G04 #@! TO.N,Net-(D9-Pad1)*
G04 #@! TO.C,J1*
X132540000Y-86360000D03*
G04 #@! TO.N,Net-(J1-Pad27)*
X132540000Y-88900000D03*
G04 #@! TO.N,Net-(D8-Pad1)*
X132540000Y-91440000D03*
G04 #@! TO.N,Net-(D7-Pad1)*
X132540000Y-93980000D03*
G04 #@! TO.N,Net-(D6-Pad1)*
X132540000Y-96520000D03*
G04 #@! TO.N,Net-(D5-Pad1)*
X132540000Y-99060000D03*
G04 #@! TO.N,Net-(D4-Pad1)*
X132540000Y-101600000D03*
G04 #@! TO.N,Net-(D3-Pad1)*
X132540000Y-104140000D03*
G04 #@! TO.N,Net-(J1-Pad20)*
X132540000Y-106680000D03*
G04 #@! TO.N,/HVKEY2*
X132540000Y-109220000D03*
G04 #@! TO.N,/HVKEY1*
X132540000Y-111760000D03*
G04 #@! TO.N,/HVKEY0*
X132540000Y-114300000D03*
G04 #@! TO.N,Net-(J1-Pad16)*
X132540000Y-116840000D03*
G04 #@! TO.N,Net-(J1-Pad15)*
X132540000Y-119380000D03*
G04 #@! TO.N,/+25V*
X117300000Y-119380000D03*
G04 #@! TO.N,/SEG_DP*
X117300000Y-116840000D03*
G04 #@! TO.N,/SEG_D*
X117300000Y-114300000D03*
G04 #@! TO.N,/SEG_C*
X117300000Y-111760000D03*
G04 #@! TO.N,/SEG_E*
X117300000Y-109220000D03*
G04 #@! TO.N,/SEG_G*
X117300000Y-106680000D03*
G04 #@! TO.N,/SEG_B*
X117300000Y-104140000D03*
G04 #@! TO.N,/SEG_F*
X117300000Y-101600000D03*
G04 #@! TO.N,/SEG_A*
X117300000Y-99060000D03*
G04 #@! TO.N,Net-(J1-Pad5)*
X117300000Y-96520000D03*
G04 #@! TO.N,GND*
X117300000Y-93980000D03*
G04 #@! TO.N,Net-(J1-Pad3)*
X117300000Y-91440000D03*
G04 #@! TO.N,Net-(D2-Pad1)*
X117300000Y-88900000D03*
D13*
G04 #@! TO.N,Net-(D1-Pad1)*
X117300000Y-86360000D03*
G04 #@! TD*
D14*
G04 #@! TO.N,GND*
X118952000Y-87550000D03*
X130730000Y-92790000D03*
X130730000Y-97870000D03*
X130730000Y-102950000D03*
X123444000Y-106172000D03*
X123190000Y-115062000D03*
X123952000Y-96520000D03*
D15*
X127508000Y-95250000D03*
D14*
X127508000Y-112649000D03*
X129921000Y-88900000D03*
G04 #@! TO.N,+3V3*
X126492000Y-90733502D03*
X127416000Y-114300000D03*
X125862002Y-88110001D03*
X123444000Y-101092000D03*
D15*
G04 #@! TO.N,/+25V*
X124714000Y-94996000D03*
D14*
X123952000Y-101854000D03*
G04 #@! TO.N,/D1*
X124206000Y-87884000D03*
G04 #@! TO.N,/D0*
X124460000Y-92456000D03*
G04 #@! TO.N,/D8*
X125730000Y-105156000D03*
G04 #@! TO.N,/D7*
X125730000Y-102616000D03*
G04 #@! TO.N,/D6*
X125984000Y-100076000D03*
G04 #@! TO.N,/D5*
X125730000Y-97790000D03*
G04 #@! TO.N,/D4*
X126492000Y-95250000D03*
G04 #@! TO.N,/D3*
X129378000Y-92710000D03*
G04 #@! TO.N,/D2*
X125222000Y-87630000D03*
G04 #@! TO.N,/KEY2*
X127508000Y-110998000D03*
G04 #@! TO.N,/KEY1*
X126822004Y-111471000D03*
G04 #@! TO.N,/NRST*
X130810000Y-115570000D03*
G04 #@! TO.N,/SWDIO*
X119888000Y-118618000D03*
G04 #@! TO.N,/LOAD*
X125222000Y-100584000D03*
X124714000Y-107442000D03*
G04 #@! TO.N,/KEY0*
X127254000Y-115570000D03*
G04 #@! TD*
D16*
G04 #@! TO.N,/+25V*
X117300000Y-119380000D02*
X117348000Y-119380000D01*
G04 #@! TD*
D17*
G04 #@! TO.N,GND*
X131649465Y-85274880D02*
X131454880Y-85469465D01*
X131301995Y-85698273D01*
X131196686Y-85952510D01*
X131143000Y-86222408D01*
X131143000Y-86497592D01*
X131196686Y-86767490D01*
X131301995Y-87021727D01*
X131454880Y-87250535D01*
X131649465Y-87445120D01*
X131878273Y-87598005D01*
X131955515Y-87630000D01*
X131878273Y-87661995D01*
X131649465Y-87814880D01*
X131454880Y-88009465D01*
X131301995Y-88238273D01*
X131196686Y-88492510D01*
X131143000Y-88762408D01*
X131143000Y-89037592D01*
X131196686Y-89307490D01*
X131301995Y-89561727D01*
X131454880Y-89790535D01*
X131649465Y-89985120D01*
X131878273Y-90138005D01*
X131955515Y-90170000D01*
X131878273Y-90201995D01*
X131649465Y-90354880D01*
X131454880Y-90549465D01*
X131301995Y-90778273D01*
X131196686Y-91032510D01*
X131143000Y-91302408D01*
X131143000Y-91577592D01*
X131196686Y-91847490D01*
X131301995Y-92101727D01*
X131454880Y-92330535D01*
X131649465Y-92525120D01*
X131878273Y-92678005D01*
X131955515Y-92710000D01*
X131878273Y-92741995D01*
X131649465Y-92894880D01*
X131454880Y-93089465D01*
X131301995Y-93318273D01*
X131196686Y-93572510D01*
X131143000Y-93842408D01*
X131143000Y-94117592D01*
X131196686Y-94387490D01*
X131301995Y-94641727D01*
X131454880Y-94870535D01*
X131649465Y-95065120D01*
X131878273Y-95218005D01*
X131955515Y-95250000D01*
X131878273Y-95281995D01*
X131649465Y-95434880D01*
X131454880Y-95629465D01*
X131301995Y-95858273D01*
X131196686Y-96112510D01*
X131143000Y-96382408D01*
X131143000Y-96657592D01*
X131196686Y-96927490D01*
X131301995Y-97181727D01*
X131454880Y-97410535D01*
X131649465Y-97605120D01*
X131878273Y-97758005D01*
X131955515Y-97790000D01*
X131878273Y-97821995D01*
X131649465Y-97974880D01*
X131454880Y-98169465D01*
X131301995Y-98398273D01*
X131196686Y-98652510D01*
X131143000Y-98922408D01*
X131143000Y-99197592D01*
X131196686Y-99467490D01*
X131301995Y-99721727D01*
X131454880Y-99950535D01*
X131649465Y-100145120D01*
X131878273Y-100298005D01*
X131955515Y-100330000D01*
X131878273Y-100361995D01*
X131649465Y-100514880D01*
X131454880Y-100709465D01*
X131301995Y-100938273D01*
X131196686Y-101192510D01*
X131143000Y-101462408D01*
X131143000Y-101737592D01*
X131196686Y-102007490D01*
X131301995Y-102261727D01*
X131454880Y-102490535D01*
X131649465Y-102685120D01*
X131878273Y-102838005D01*
X131955515Y-102870000D01*
X131878273Y-102901995D01*
X131649465Y-103054880D01*
X131454880Y-103249465D01*
X131301995Y-103478273D01*
X131196686Y-103732510D01*
X131143000Y-104002408D01*
X131143000Y-104277592D01*
X131196686Y-104547490D01*
X131301995Y-104801727D01*
X131454880Y-105030535D01*
X131649465Y-105225120D01*
X131878273Y-105378005D01*
X131955515Y-105410000D01*
X131878273Y-105441995D01*
X131649465Y-105594880D01*
X131454880Y-105789465D01*
X131301995Y-106018273D01*
X131196686Y-106272510D01*
X131143000Y-106542408D01*
X131143000Y-106817592D01*
X131196686Y-107087490D01*
X131301995Y-107341727D01*
X131454880Y-107570535D01*
X131649465Y-107765120D01*
X131878273Y-107918005D01*
X131955515Y-107950000D01*
X131878273Y-107981995D01*
X131649465Y-108134880D01*
X131454880Y-108329465D01*
X131301995Y-108558273D01*
X131196686Y-108812510D01*
X131143000Y-109082408D01*
X131143000Y-109357592D01*
X131196686Y-109627490D01*
X131301995Y-109881727D01*
X131454880Y-110110535D01*
X131649465Y-110305120D01*
X131878273Y-110458005D01*
X131955515Y-110490000D01*
X131878273Y-110521995D01*
X131649465Y-110674880D01*
X131454880Y-110869465D01*
X131301995Y-111098273D01*
X131196686Y-111352510D01*
X131143000Y-111622408D01*
X131143000Y-111897592D01*
X131196686Y-112167490D01*
X131301995Y-112421727D01*
X131454880Y-112650535D01*
X131649465Y-112845120D01*
X131878273Y-112998005D01*
X131955515Y-113030000D01*
X131878273Y-113061995D01*
X131649465Y-113214880D01*
X131454880Y-113409465D01*
X131301995Y-113638273D01*
X131196686Y-113892510D01*
X131143000Y-114162408D01*
X131143000Y-114437592D01*
X131196686Y-114707490D01*
X131202008Y-114720339D01*
X131082729Y-114670932D01*
X130902089Y-114635000D01*
X130717911Y-114635000D01*
X130537271Y-114670932D01*
X130367111Y-114741414D01*
X130213972Y-114843738D01*
X130083738Y-114973972D01*
X129981414Y-115127111D01*
X129910932Y-115297271D01*
X129875000Y-115477911D01*
X129875000Y-115662089D01*
X129910932Y-115842729D01*
X129981414Y-116012889D01*
X130083738Y-116166028D01*
X130213972Y-116296262D01*
X130367111Y-116398586D01*
X130537271Y-116469068D01*
X130717911Y-116505000D01*
X130902089Y-116505000D01*
X131082729Y-116469068D01*
X131202008Y-116419661D01*
X131196686Y-116432510D01*
X131143000Y-116702408D01*
X131143000Y-116977592D01*
X131196686Y-117247490D01*
X131301995Y-117501727D01*
X131454880Y-117730535D01*
X131649465Y-117925120D01*
X131878273Y-118078005D01*
X131955515Y-118110000D01*
X131878273Y-118141995D01*
X131649465Y-118294880D01*
X131454880Y-118489465D01*
X131301995Y-118718273D01*
X131196686Y-118972510D01*
X131143000Y-119242408D01*
X131143000Y-119517592D01*
X131196686Y-119787490D01*
X131301995Y-120041727D01*
X131454880Y-120270535D01*
X131649465Y-120465120D01*
X131878273Y-120618005D01*
X132132510Y-120723314D01*
X132402408Y-120777000D01*
X132677592Y-120777000D01*
X132947490Y-120723314D01*
X133201727Y-120618005D01*
X133430535Y-120465120D01*
X133625120Y-120270535D01*
X133706001Y-120149488D01*
X133706001Y-123800000D01*
X130984655Y-123800000D01*
X131121632Y-123708475D01*
X131328475Y-123501632D01*
X131490990Y-123258411D01*
X131602932Y-122988158D01*
X131660000Y-122701260D01*
X131660000Y-122408740D01*
X131602932Y-122121842D01*
X131490990Y-121851589D01*
X131328475Y-121608368D01*
X131121632Y-121401525D01*
X130878411Y-121239010D01*
X130608158Y-121127068D01*
X130321260Y-121070000D01*
X130028740Y-121070000D01*
X129741842Y-121127068D01*
X129471589Y-121239010D01*
X129228368Y-121401525D01*
X129021525Y-121608368D01*
X128905000Y-121782760D01*
X128788475Y-121608368D01*
X128581632Y-121401525D01*
X128338411Y-121239010D01*
X128068158Y-121127068D01*
X127781260Y-121070000D01*
X127488740Y-121070000D01*
X127201842Y-121127068D01*
X126931589Y-121239010D01*
X126688368Y-121401525D01*
X126481525Y-121608368D01*
X126365000Y-121782760D01*
X126248475Y-121608368D01*
X126041632Y-121401525D01*
X125798411Y-121239010D01*
X125528158Y-121127068D01*
X125241260Y-121070000D01*
X124948740Y-121070000D01*
X124661842Y-121127068D01*
X124391589Y-121239010D01*
X124148368Y-121401525D01*
X123941525Y-121608368D01*
X123819805Y-121790534D01*
X123750178Y-121673645D01*
X123555269Y-121457412D01*
X123321920Y-121283359D01*
X123059099Y-121158175D01*
X122911890Y-121113524D01*
X122682000Y-121234845D01*
X122682000Y-122428000D01*
X122702000Y-122428000D01*
X122702000Y-122682000D01*
X122682000Y-122682000D01*
X122682000Y-122702000D01*
X122428000Y-122702000D01*
X122428000Y-122682000D01*
X122408000Y-122682000D01*
X122408000Y-122428000D01*
X122428000Y-122428000D01*
X122428000Y-121234845D01*
X122198110Y-121113524D01*
X122050901Y-121158175D01*
X121788080Y-121283359D01*
X121554731Y-121457412D01*
X121478966Y-121541466D01*
X121454502Y-121460820D01*
X121395537Y-121350506D01*
X121316185Y-121253815D01*
X121219494Y-121174463D01*
X121109180Y-121115498D01*
X120989482Y-121079188D01*
X120865000Y-121066928D01*
X119165000Y-121066928D01*
X119040518Y-121079188D01*
X118920820Y-121115498D01*
X118810506Y-121174463D01*
X118713815Y-121253815D01*
X118634463Y-121350506D01*
X118575498Y-121460820D01*
X118539188Y-121580518D01*
X118526928Y-121705000D01*
X118526928Y-123405000D01*
X118539188Y-123529482D01*
X118575498Y-123649180D01*
X118634463Y-123759494D01*
X118667705Y-123800000D01*
X116230000Y-123800000D01*
X116230000Y-120285655D01*
X116409465Y-120465120D01*
X116638273Y-120618005D01*
X116892510Y-120723314D01*
X117162408Y-120777000D01*
X117437592Y-120777000D01*
X117707490Y-120723314D01*
X117961727Y-120618005D01*
X118190535Y-120465120D01*
X118385120Y-120270535D01*
X118538005Y-120041727D01*
X118643314Y-119787490D01*
X118697000Y-119517592D01*
X118697000Y-119242408D01*
X118643314Y-118972510D01*
X118538005Y-118718273D01*
X118409473Y-118525911D01*
X118953000Y-118525911D01*
X118953000Y-118710089D01*
X118988932Y-118890729D01*
X119059414Y-119060889D01*
X119161738Y-119214028D01*
X119291972Y-119344262D01*
X119445111Y-119446586D01*
X119615271Y-119517068D01*
X119795911Y-119553000D01*
X119980089Y-119553000D01*
X120160729Y-119517068D01*
X120330889Y-119446586D01*
X120484028Y-119344262D01*
X120614262Y-119214028D01*
X120716586Y-119060889D01*
X120787068Y-118890729D01*
X120823000Y-118710089D01*
X120823000Y-118525911D01*
X120787068Y-118345271D01*
X120716586Y-118175111D01*
X120614262Y-118021972D01*
X120484028Y-117891738D01*
X120330889Y-117789414D01*
X120160729Y-117718932D01*
X119980089Y-117683000D01*
X119795911Y-117683000D01*
X119615271Y-117718932D01*
X119445111Y-117789414D01*
X119291972Y-117891738D01*
X119161738Y-118021972D01*
X119059414Y-118175111D01*
X118988932Y-118345271D01*
X118953000Y-118525911D01*
X118409473Y-118525911D01*
X118385120Y-118489465D01*
X118190535Y-118294880D01*
X117961727Y-118141995D01*
X117884485Y-118110000D01*
X117961727Y-118078005D01*
X118190535Y-117925120D01*
X118385120Y-117730535D01*
X118538005Y-117501727D01*
X118643314Y-117247490D01*
X118697000Y-116977592D01*
X118697000Y-116702408D01*
X118643314Y-116432510D01*
X118538005Y-116178273D01*
X118385120Y-115949465D01*
X118190535Y-115754880D01*
X117961727Y-115601995D01*
X117884485Y-115570000D01*
X117961727Y-115538005D01*
X118051663Y-115477911D01*
X126319000Y-115477911D01*
X126319000Y-115662089D01*
X126354932Y-115842729D01*
X126425414Y-116012889D01*
X126527738Y-116166028D01*
X126657972Y-116296262D01*
X126811111Y-116398586D01*
X126981271Y-116469068D01*
X127161911Y-116505000D01*
X127346089Y-116505000D01*
X127526729Y-116469068D01*
X127696889Y-116398586D01*
X127850028Y-116296262D01*
X127980262Y-116166028D01*
X128082586Y-116012889D01*
X128153068Y-115842729D01*
X128189000Y-115662089D01*
X128189000Y-115477911D01*
X128153068Y-115297271D01*
X128082586Y-115127111D01*
X128013930Y-115024360D01*
X128142262Y-114896028D01*
X128244586Y-114742889D01*
X128315068Y-114572729D01*
X128351000Y-114392089D01*
X128351000Y-114207911D01*
X128315068Y-114027271D01*
X128244586Y-113857111D01*
X128142262Y-113703972D01*
X128012028Y-113573738D01*
X127858889Y-113471414D01*
X127688729Y-113400932D01*
X127508089Y-113365000D01*
X127323911Y-113365000D01*
X127143271Y-113400932D01*
X126973111Y-113471414D01*
X126819972Y-113573738D01*
X126689738Y-113703972D01*
X126587414Y-113857111D01*
X126516932Y-114027271D01*
X126481000Y-114207911D01*
X126481000Y-114392089D01*
X126516932Y-114572729D01*
X126587414Y-114742889D01*
X126656070Y-114845640D01*
X126527738Y-114973972D01*
X126425414Y-115127111D01*
X126354932Y-115297271D01*
X126319000Y-115477911D01*
X118051663Y-115477911D01*
X118190535Y-115385120D01*
X118385120Y-115190535D01*
X118538005Y-114961727D01*
X118643314Y-114707490D01*
X118697000Y-114437592D01*
X118697000Y-114162408D01*
X118643314Y-113892510D01*
X118538005Y-113638273D01*
X118385120Y-113409465D01*
X118190535Y-113214880D01*
X117961727Y-113061995D01*
X117884485Y-113030000D01*
X117961727Y-112998005D01*
X118190535Y-112845120D01*
X118385120Y-112650535D01*
X118538005Y-112421727D01*
X118643314Y-112167490D01*
X118697000Y-111897592D01*
X118697000Y-111622408D01*
X118648566Y-111378911D01*
X125887004Y-111378911D01*
X125887004Y-111563089D01*
X125922936Y-111743729D01*
X125993418Y-111913889D01*
X126095742Y-112067028D01*
X126225976Y-112197262D01*
X126379115Y-112299586D01*
X126549275Y-112370068D01*
X126729915Y-112406000D01*
X126914093Y-112406000D01*
X127094733Y-112370068D01*
X127264893Y-112299586D01*
X127418032Y-112197262D01*
X127548266Y-112067028D01*
X127643604Y-111924344D01*
X127780729Y-111897068D01*
X127950889Y-111826586D01*
X128104028Y-111724262D01*
X128234262Y-111594028D01*
X128336586Y-111440889D01*
X128407068Y-111270729D01*
X128443000Y-111090089D01*
X128443000Y-110905911D01*
X128407068Y-110725271D01*
X128336586Y-110555111D01*
X128234262Y-110401972D01*
X128104028Y-110271738D01*
X127950889Y-110169414D01*
X127780729Y-110098932D01*
X127600089Y-110063000D01*
X127415911Y-110063000D01*
X127235271Y-110098932D01*
X127065111Y-110169414D01*
X126911972Y-110271738D01*
X126781738Y-110401972D01*
X126686400Y-110544656D01*
X126549275Y-110571932D01*
X126379115Y-110642414D01*
X126225976Y-110744738D01*
X126095742Y-110874972D01*
X125993418Y-111028111D01*
X125922936Y-111198271D01*
X125887004Y-111378911D01*
X118648566Y-111378911D01*
X118643314Y-111352510D01*
X118538005Y-111098273D01*
X118385120Y-110869465D01*
X118190535Y-110674880D01*
X117961727Y-110521995D01*
X117884485Y-110490000D01*
X117961727Y-110458005D01*
X118190535Y-110305120D01*
X118385120Y-110110535D01*
X118538005Y-109881727D01*
X118643314Y-109627490D01*
X118697000Y-109357592D01*
X118697000Y-109082408D01*
X118643314Y-108812510D01*
X118538005Y-108558273D01*
X118385120Y-108329465D01*
X118190535Y-108134880D01*
X117961727Y-107981995D01*
X117884485Y-107950000D01*
X117961727Y-107918005D01*
X118190535Y-107765120D01*
X118385120Y-107570535D01*
X118532536Y-107349911D01*
X123779000Y-107349911D01*
X123779000Y-107534089D01*
X123814932Y-107714729D01*
X123885414Y-107884889D01*
X123987738Y-108038028D01*
X124117972Y-108168262D01*
X124271111Y-108270586D01*
X124441271Y-108341068D01*
X124621911Y-108377000D01*
X124806089Y-108377000D01*
X124986729Y-108341068D01*
X125156889Y-108270586D01*
X125310028Y-108168262D01*
X125440262Y-108038028D01*
X125542586Y-107884889D01*
X125613068Y-107714729D01*
X125649000Y-107534089D01*
X125649000Y-107349911D01*
X125613068Y-107169271D01*
X125542586Y-106999111D01*
X125440262Y-106845972D01*
X125310028Y-106715738D01*
X125156889Y-106613414D01*
X124986729Y-106542932D01*
X124806089Y-106507000D01*
X124621911Y-106507000D01*
X124441271Y-106542932D01*
X124271111Y-106613414D01*
X124117972Y-106715738D01*
X123987738Y-106845972D01*
X123885414Y-106999111D01*
X123814932Y-107169271D01*
X123779000Y-107349911D01*
X118532536Y-107349911D01*
X118538005Y-107341727D01*
X118643314Y-107087490D01*
X118697000Y-106817592D01*
X118697000Y-106542408D01*
X118643314Y-106272510D01*
X118538005Y-106018273D01*
X118385120Y-105789465D01*
X118190535Y-105594880D01*
X117961727Y-105441995D01*
X117884485Y-105410000D01*
X117961727Y-105378005D01*
X118190535Y-105225120D01*
X118351744Y-105063911D01*
X124795000Y-105063911D01*
X124795000Y-105248089D01*
X124830932Y-105428729D01*
X124901414Y-105598889D01*
X125003738Y-105752028D01*
X125133972Y-105882262D01*
X125287111Y-105984586D01*
X125457271Y-106055068D01*
X125637911Y-106091000D01*
X125822089Y-106091000D01*
X126002729Y-106055068D01*
X126172889Y-105984586D01*
X126326028Y-105882262D01*
X126456262Y-105752028D01*
X126558586Y-105598889D01*
X126629068Y-105428729D01*
X126665000Y-105248089D01*
X126665000Y-105063911D01*
X126629068Y-104883271D01*
X126558586Y-104713111D01*
X126456262Y-104559972D01*
X126326028Y-104429738D01*
X126172889Y-104327414D01*
X126002729Y-104256932D01*
X125822089Y-104221000D01*
X125637911Y-104221000D01*
X125457271Y-104256932D01*
X125287111Y-104327414D01*
X125133972Y-104429738D01*
X125003738Y-104559972D01*
X124901414Y-104713111D01*
X124830932Y-104883271D01*
X124795000Y-105063911D01*
X118351744Y-105063911D01*
X118385120Y-105030535D01*
X118538005Y-104801727D01*
X118643314Y-104547490D01*
X118697000Y-104277592D01*
X118697000Y-104002408D01*
X118643314Y-103732510D01*
X118538005Y-103478273D01*
X118385120Y-103249465D01*
X118190535Y-103054880D01*
X117961727Y-102901995D01*
X117884485Y-102870000D01*
X117961727Y-102838005D01*
X118190535Y-102685120D01*
X118385120Y-102490535D01*
X118538005Y-102261727D01*
X118643314Y-102007490D01*
X118697000Y-101737592D01*
X118697000Y-101462408D01*
X118643314Y-101192510D01*
X118563537Y-100999911D01*
X122509000Y-100999911D01*
X122509000Y-101184089D01*
X122544932Y-101364729D01*
X122615414Y-101534889D01*
X122717738Y-101688028D01*
X122847972Y-101818262D01*
X123001111Y-101920586D01*
X123017000Y-101927167D01*
X123017000Y-101946089D01*
X123052932Y-102126729D01*
X123123414Y-102296889D01*
X123225738Y-102450028D01*
X123355972Y-102580262D01*
X123509111Y-102682586D01*
X123679271Y-102753068D01*
X123859911Y-102789000D01*
X124044089Y-102789000D01*
X124224729Y-102753068D01*
X124394889Y-102682586D01*
X124548028Y-102580262D01*
X124604379Y-102523911D01*
X124795000Y-102523911D01*
X124795000Y-102708089D01*
X124830932Y-102888729D01*
X124901414Y-103058889D01*
X125003738Y-103212028D01*
X125133972Y-103342262D01*
X125287111Y-103444586D01*
X125457271Y-103515068D01*
X125637911Y-103551000D01*
X125822089Y-103551000D01*
X126002729Y-103515068D01*
X126172889Y-103444586D01*
X126326028Y-103342262D01*
X126456262Y-103212028D01*
X126558586Y-103058889D01*
X126629068Y-102888729D01*
X126665000Y-102708089D01*
X126665000Y-102523911D01*
X126629068Y-102343271D01*
X126558586Y-102173111D01*
X126456262Y-102019972D01*
X126326028Y-101889738D01*
X126172889Y-101787414D01*
X126002729Y-101716932D01*
X125822089Y-101681000D01*
X125637911Y-101681000D01*
X125457271Y-101716932D01*
X125287111Y-101787414D01*
X125133972Y-101889738D01*
X125003738Y-102019972D01*
X124901414Y-102173111D01*
X124830932Y-102343271D01*
X124795000Y-102523911D01*
X124604379Y-102523911D01*
X124678262Y-102450028D01*
X124780586Y-102296889D01*
X124851068Y-102126729D01*
X124887000Y-101946089D01*
X124887000Y-101761911D01*
X124851068Y-101581271D01*
X124781629Y-101413629D01*
X124949271Y-101483068D01*
X125129911Y-101519000D01*
X125314089Y-101519000D01*
X125494729Y-101483068D01*
X125664889Y-101412586D01*
X125818028Y-101310262D01*
X125948262Y-101180028D01*
X126050586Y-101026889D01*
X126057167Y-101011000D01*
X126076089Y-101011000D01*
X126256729Y-100975068D01*
X126426889Y-100904586D01*
X126580028Y-100802262D01*
X126710262Y-100672028D01*
X126812586Y-100518889D01*
X126883068Y-100348729D01*
X126919000Y-100168089D01*
X126919000Y-99983911D01*
X126883068Y-99803271D01*
X126812586Y-99633111D01*
X126710262Y-99479972D01*
X126580028Y-99349738D01*
X126426889Y-99247414D01*
X126256729Y-99176932D01*
X126076089Y-99141000D01*
X125891911Y-99141000D01*
X125711271Y-99176932D01*
X125541111Y-99247414D01*
X125387972Y-99349738D01*
X125257738Y-99479972D01*
X125155414Y-99633111D01*
X125148833Y-99649000D01*
X125129911Y-99649000D01*
X124949271Y-99684932D01*
X124779111Y-99755414D01*
X124625972Y-99857738D01*
X124495738Y-99987972D01*
X124393414Y-100141111D01*
X124322932Y-100311271D01*
X124287000Y-100491911D01*
X124287000Y-100676089D01*
X124289993Y-100691135D01*
X124272586Y-100649111D01*
X124170262Y-100495972D01*
X124040028Y-100365738D01*
X123886889Y-100263414D01*
X123716729Y-100192932D01*
X123536089Y-100157000D01*
X123351911Y-100157000D01*
X123171271Y-100192932D01*
X123001111Y-100263414D01*
X122847972Y-100365738D01*
X122717738Y-100495972D01*
X122615414Y-100649111D01*
X122544932Y-100819271D01*
X122509000Y-100999911D01*
X118563537Y-100999911D01*
X118538005Y-100938273D01*
X118385120Y-100709465D01*
X118190535Y-100514880D01*
X117961727Y-100361995D01*
X117884485Y-100330000D01*
X117961727Y-100298005D01*
X118190535Y-100145120D01*
X118385120Y-99950535D01*
X118538005Y-99721727D01*
X118643314Y-99467490D01*
X118697000Y-99197592D01*
X118697000Y-98922408D01*
X118643314Y-98652510D01*
X118538005Y-98398273D01*
X118385120Y-98169465D01*
X118190535Y-97974880D01*
X117961727Y-97821995D01*
X117884485Y-97790000D01*
X117961727Y-97758005D01*
X118051663Y-97697911D01*
X124795000Y-97697911D01*
X124795000Y-97882089D01*
X124830932Y-98062729D01*
X124901414Y-98232889D01*
X125003738Y-98386028D01*
X125133972Y-98516262D01*
X125287111Y-98618586D01*
X125457271Y-98689068D01*
X125637911Y-98725000D01*
X125822089Y-98725000D01*
X126002729Y-98689068D01*
X126172889Y-98618586D01*
X126326028Y-98516262D01*
X126456262Y-98386028D01*
X126558586Y-98232889D01*
X126629068Y-98062729D01*
X126665000Y-97882089D01*
X126665000Y-97697911D01*
X126629068Y-97517271D01*
X126558586Y-97347111D01*
X126456262Y-97193972D01*
X126326028Y-97063738D01*
X126172889Y-96961414D01*
X126002729Y-96890932D01*
X125822089Y-96855000D01*
X125637911Y-96855000D01*
X125457271Y-96890932D01*
X125287111Y-96961414D01*
X125133972Y-97063738D01*
X125003738Y-97193972D01*
X124901414Y-97347111D01*
X124830932Y-97517271D01*
X124795000Y-97697911D01*
X118051663Y-97697911D01*
X118190535Y-97605120D01*
X118385120Y-97410535D01*
X118538005Y-97181727D01*
X118643314Y-96927490D01*
X118697000Y-96657592D01*
X118697000Y-96382408D01*
X118643314Y-96112510D01*
X118538005Y-95858273D01*
X118385120Y-95629465D01*
X118190535Y-95434880D01*
X117961727Y-95281995D01*
X117890057Y-95252308D01*
X117903023Y-95247636D01*
X118018980Y-95185656D01*
X118085960Y-94945565D01*
X118034456Y-94894061D01*
X123679000Y-94894061D01*
X123679000Y-95097939D01*
X123718774Y-95297898D01*
X123796795Y-95486256D01*
X123910063Y-95655774D01*
X124054226Y-95799937D01*
X124223744Y-95913205D01*
X124412102Y-95991226D01*
X124612061Y-96031000D01*
X124815939Y-96031000D01*
X125015898Y-95991226D01*
X125204256Y-95913205D01*
X125373774Y-95799937D01*
X125517937Y-95655774D01*
X125598252Y-95535573D01*
X125663414Y-95692889D01*
X125765738Y-95846028D01*
X125895972Y-95976262D01*
X126049111Y-96078586D01*
X126219271Y-96149068D01*
X126399911Y-96185000D01*
X126584089Y-96185000D01*
X126764729Y-96149068D01*
X126934889Y-96078586D01*
X127088028Y-95976262D01*
X127218262Y-95846028D01*
X127320586Y-95692889D01*
X127391068Y-95522729D01*
X127427000Y-95342089D01*
X127427000Y-95157911D01*
X127391068Y-94977271D01*
X127320586Y-94807111D01*
X127218262Y-94653972D01*
X127088028Y-94523738D01*
X126934889Y-94421414D01*
X126764729Y-94350932D01*
X126584089Y-94315000D01*
X126399911Y-94315000D01*
X126219271Y-94350932D01*
X126049111Y-94421414D01*
X125895972Y-94523738D01*
X125765738Y-94653972D01*
X125716039Y-94728352D01*
X125709226Y-94694102D01*
X125631205Y-94505744D01*
X125517937Y-94336226D01*
X125373774Y-94192063D01*
X125204256Y-94078795D01*
X125015898Y-94000774D01*
X124815939Y-93961000D01*
X124612061Y-93961000D01*
X124412102Y-94000774D01*
X124223744Y-94078795D01*
X124054226Y-94192063D01*
X123910063Y-94336226D01*
X123796795Y-94505744D01*
X123718774Y-94694102D01*
X123679000Y-94894061D01*
X118034456Y-94894061D01*
X117300000Y-94159605D01*
X116514040Y-94945565D01*
X116581020Y-95185656D01*
X116716760Y-95249485D01*
X116638273Y-95281995D01*
X116409465Y-95434880D01*
X116230000Y-95614345D01*
X116230000Y-94736825D01*
X116334435Y-94765960D01*
X117120395Y-93980000D01*
X117479605Y-93980000D01*
X118265565Y-94765960D01*
X118505656Y-94698980D01*
X118622756Y-94449952D01*
X118689023Y-94182865D01*
X118701910Y-93907983D01*
X118660922Y-93635867D01*
X118567636Y-93376977D01*
X118505656Y-93261020D01*
X118265565Y-93194040D01*
X117479605Y-93980000D01*
X117120395Y-93980000D01*
X116334435Y-93194040D01*
X116230000Y-93223175D01*
X116230000Y-92345655D01*
X116409465Y-92525120D01*
X116638273Y-92678005D01*
X116709943Y-92707692D01*
X116696977Y-92712364D01*
X116581020Y-92774344D01*
X116514040Y-93014435D01*
X117300000Y-93800395D01*
X118085960Y-93014435D01*
X118018980Y-92774344D01*
X117883240Y-92710515D01*
X117961727Y-92678005D01*
X118190535Y-92525120D01*
X118351744Y-92363911D01*
X123525000Y-92363911D01*
X123525000Y-92548089D01*
X123560932Y-92728729D01*
X123631414Y-92898889D01*
X123733738Y-93052028D01*
X123863972Y-93182262D01*
X124017111Y-93284586D01*
X124187271Y-93355068D01*
X124367911Y-93391000D01*
X124552089Y-93391000D01*
X124732729Y-93355068D01*
X124902889Y-93284586D01*
X125056028Y-93182262D01*
X125186262Y-93052028D01*
X125288586Y-92898889D01*
X125359068Y-92728729D01*
X125381111Y-92617911D01*
X128443000Y-92617911D01*
X128443000Y-92802089D01*
X128478932Y-92982729D01*
X128549414Y-93152889D01*
X128651738Y-93306028D01*
X128781972Y-93436262D01*
X128935111Y-93538586D01*
X129105271Y-93609068D01*
X129285911Y-93645000D01*
X129470089Y-93645000D01*
X129650729Y-93609068D01*
X129820889Y-93538586D01*
X129974028Y-93436262D01*
X130104262Y-93306028D01*
X130206586Y-93152889D01*
X130277068Y-92982729D01*
X130313000Y-92802089D01*
X130313000Y-92617911D01*
X130277068Y-92437271D01*
X130206586Y-92267111D01*
X130104262Y-92113972D01*
X129974028Y-91983738D01*
X129820889Y-91881414D01*
X129650729Y-91810932D01*
X129470089Y-91775000D01*
X129285911Y-91775000D01*
X129105271Y-91810932D01*
X128935111Y-91881414D01*
X128781972Y-91983738D01*
X128651738Y-92113972D01*
X128549414Y-92267111D01*
X128478932Y-92437271D01*
X128443000Y-92617911D01*
X125381111Y-92617911D01*
X125395000Y-92548089D01*
X125395000Y-92363911D01*
X125359068Y-92183271D01*
X125288586Y-92013111D01*
X125186262Y-91859972D01*
X125056028Y-91729738D01*
X124902889Y-91627414D01*
X124732729Y-91556932D01*
X124552089Y-91521000D01*
X124367911Y-91521000D01*
X124187271Y-91556932D01*
X124017111Y-91627414D01*
X123863972Y-91729738D01*
X123733738Y-91859972D01*
X123631414Y-92013111D01*
X123560932Y-92183271D01*
X123525000Y-92363911D01*
X118351744Y-92363911D01*
X118385120Y-92330535D01*
X118538005Y-92101727D01*
X118643314Y-91847490D01*
X118697000Y-91577592D01*
X118697000Y-91302408D01*
X118643314Y-91032510D01*
X118538005Y-90778273D01*
X118446558Y-90641413D01*
X125557000Y-90641413D01*
X125557000Y-90825591D01*
X125592932Y-91006231D01*
X125663414Y-91176391D01*
X125765738Y-91329530D01*
X125895972Y-91459764D01*
X126049111Y-91562088D01*
X126219271Y-91632570D01*
X126399911Y-91668502D01*
X126584089Y-91668502D01*
X126764729Y-91632570D01*
X126934889Y-91562088D01*
X127088028Y-91459764D01*
X127218262Y-91329530D01*
X127320586Y-91176391D01*
X127391068Y-91006231D01*
X127427000Y-90825591D01*
X127427000Y-90641413D01*
X127391068Y-90460773D01*
X127320586Y-90290613D01*
X127218262Y-90137474D01*
X127088028Y-90007240D01*
X126934889Y-89904916D01*
X126764729Y-89834434D01*
X126584089Y-89798502D01*
X126399911Y-89798502D01*
X126219271Y-89834434D01*
X126049111Y-89904916D01*
X125895972Y-90007240D01*
X125765738Y-90137474D01*
X125663414Y-90290613D01*
X125592932Y-90460773D01*
X125557000Y-90641413D01*
X118446558Y-90641413D01*
X118385120Y-90549465D01*
X118190535Y-90354880D01*
X117961727Y-90201995D01*
X117884485Y-90170000D01*
X117961727Y-90138005D01*
X118190535Y-89985120D01*
X118385120Y-89790535D01*
X118538005Y-89561727D01*
X118643314Y-89307490D01*
X118697000Y-89037592D01*
X118697000Y-88762408D01*
X118643314Y-88492510D01*
X118538005Y-88238273D01*
X118385120Y-88009465D01*
X118190535Y-87814880D01*
X118156160Y-87791911D01*
X123271000Y-87791911D01*
X123271000Y-87976089D01*
X123306932Y-88156729D01*
X123377414Y-88326889D01*
X123479738Y-88480028D01*
X123609972Y-88610262D01*
X123763111Y-88712586D01*
X123933271Y-88783068D01*
X124113911Y-88819000D01*
X124298089Y-88819000D01*
X124478729Y-88783068D01*
X124648889Y-88712586D01*
X124802028Y-88610262D01*
X124902567Y-88509723D01*
X124949271Y-88529068D01*
X125030218Y-88545170D01*
X125033416Y-88552890D01*
X125135740Y-88706029D01*
X125265974Y-88836263D01*
X125419113Y-88938587D01*
X125589273Y-89009069D01*
X125769913Y-89045001D01*
X125954091Y-89045001D01*
X126134731Y-89009069D01*
X126304891Y-88938587D01*
X126458030Y-88836263D01*
X126588264Y-88706029D01*
X126690588Y-88552890D01*
X126761070Y-88382730D01*
X126797002Y-88202090D01*
X126797002Y-88017912D01*
X126761070Y-87837272D01*
X126690588Y-87667112D01*
X126588264Y-87513973D01*
X126458030Y-87383739D01*
X126304891Y-87281415D01*
X126134731Y-87210933D01*
X126053784Y-87194831D01*
X126050586Y-87187111D01*
X125948262Y-87033972D01*
X125818028Y-86903738D01*
X125664889Y-86801414D01*
X125494729Y-86730932D01*
X125314089Y-86695000D01*
X125129911Y-86695000D01*
X124949271Y-86730932D01*
X124779111Y-86801414D01*
X124625972Y-86903738D01*
X124525433Y-87004277D01*
X124478729Y-86984932D01*
X124298089Y-86949000D01*
X124113911Y-86949000D01*
X123933271Y-86984932D01*
X123763111Y-87055414D01*
X123609972Y-87157738D01*
X123479738Y-87287972D01*
X123377414Y-87441111D01*
X123306932Y-87611271D01*
X123271000Y-87791911D01*
X118156160Y-87791911D01*
X117961727Y-87661995D01*
X117891901Y-87633072D01*
X117935000Y-87633072D01*
X118059482Y-87620812D01*
X118179180Y-87584502D01*
X118289494Y-87525537D01*
X118386185Y-87446185D01*
X118465537Y-87349494D01*
X118524502Y-87239180D01*
X118560812Y-87119482D01*
X118573072Y-86995000D01*
X118573072Y-85725000D01*
X118560812Y-85600518D01*
X118524502Y-85480820D01*
X118465537Y-85370506D01*
X118386185Y-85273815D01*
X118347418Y-85242000D01*
X131698673Y-85242000D01*
X131649465Y-85274880D01*
G04 #@! TA.AperFunction,Conductor*
D18*
G36*
X131649465Y-85274880D02*
G01*
X131454880Y-85469465D01*
X131301995Y-85698273D01*
X131196686Y-85952510D01*
X131143000Y-86222408D01*
X131143000Y-86497592D01*
X131196686Y-86767490D01*
X131301995Y-87021727D01*
X131454880Y-87250535D01*
X131649465Y-87445120D01*
X131878273Y-87598005D01*
X131955515Y-87630000D01*
X131878273Y-87661995D01*
X131649465Y-87814880D01*
X131454880Y-88009465D01*
X131301995Y-88238273D01*
X131196686Y-88492510D01*
X131143000Y-88762408D01*
X131143000Y-89037592D01*
X131196686Y-89307490D01*
X131301995Y-89561727D01*
X131454880Y-89790535D01*
X131649465Y-89985120D01*
X131878273Y-90138005D01*
X131955515Y-90170000D01*
X131878273Y-90201995D01*
X131649465Y-90354880D01*
X131454880Y-90549465D01*
X131301995Y-90778273D01*
X131196686Y-91032510D01*
X131143000Y-91302408D01*
X131143000Y-91577592D01*
X131196686Y-91847490D01*
X131301995Y-92101727D01*
X131454880Y-92330535D01*
X131649465Y-92525120D01*
X131878273Y-92678005D01*
X131955515Y-92710000D01*
X131878273Y-92741995D01*
X131649465Y-92894880D01*
X131454880Y-93089465D01*
X131301995Y-93318273D01*
X131196686Y-93572510D01*
X131143000Y-93842408D01*
X131143000Y-94117592D01*
X131196686Y-94387490D01*
X131301995Y-94641727D01*
X131454880Y-94870535D01*
X131649465Y-95065120D01*
X131878273Y-95218005D01*
X131955515Y-95250000D01*
X131878273Y-95281995D01*
X131649465Y-95434880D01*
X131454880Y-95629465D01*
X131301995Y-95858273D01*
X131196686Y-96112510D01*
X131143000Y-96382408D01*
X131143000Y-96657592D01*
X131196686Y-96927490D01*
X131301995Y-97181727D01*
X131454880Y-97410535D01*
X131649465Y-97605120D01*
X131878273Y-97758005D01*
X131955515Y-97790000D01*
X131878273Y-97821995D01*
X131649465Y-97974880D01*
X131454880Y-98169465D01*
X131301995Y-98398273D01*
X131196686Y-98652510D01*
X131143000Y-98922408D01*
X131143000Y-99197592D01*
X131196686Y-99467490D01*
X131301995Y-99721727D01*
X131454880Y-99950535D01*
X131649465Y-100145120D01*
X131878273Y-100298005D01*
X131955515Y-100330000D01*
X131878273Y-100361995D01*
X131649465Y-100514880D01*
X131454880Y-100709465D01*
X131301995Y-100938273D01*
X131196686Y-101192510D01*
X131143000Y-101462408D01*
X131143000Y-101737592D01*
X131196686Y-102007490D01*
X131301995Y-102261727D01*
X131454880Y-102490535D01*
X131649465Y-102685120D01*
X131878273Y-102838005D01*
X131955515Y-102870000D01*
X131878273Y-102901995D01*
X131649465Y-103054880D01*
X131454880Y-103249465D01*
X131301995Y-103478273D01*
X131196686Y-103732510D01*
X131143000Y-104002408D01*
X131143000Y-104277592D01*
X131196686Y-104547490D01*
X131301995Y-104801727D01*
X131454880Y-105030535D01*
X131649465Y-105225120D01*
X131878273Y-105378005D01*
X131955515Y-105410000D01*
X131878273Y-105441995D01*
X131649465Y-105594880D01*
X131454880Y-105789465D01*
X131301995Y-106018273D01*
X131196686Y-106272510D01*
X131143000Y-106542408D01*
X131143000Y-106817592D01*
X131196686Y-107087490D01*
X131301995Y-107341727D01*
X131454880Y-107570535D01*
X131649465Y-107765120D01*
X131878273Y-107918005D01*
X131955515Y-107950000D01*
X131878273Y-107981995D01*
X131649465Y-108134880D01*
X131454880Y-108329465D01*
X131301995Y-108558273D01*
X131196686Y-108812510D01*
X131143000Y-109082408D01*
X131143000Y-109357592D01*
X131196686Y-109627490D01*
X131301995Y-109881727D01*
X131454880Y-110110535D01*
X131649465Y-110305120D01*
X131878273Y-110458005D01*
X131955515Y-110490000D01*
X131878273Y-110521995D01*
X131649465Y-110674880D01*
X131454880Y-110869465D01*
X131301995Y-111098273D01*
X131196686Y-111352510D01*
X131143000Y-111622408D01*
X131143000Y-111897592D01*
X131196686Y-112167490D01*
X131301995Y-112421727D01*
X131454880Y-112650535D01*
X131649465Y-112845120D01*
X131878273Y-112998005D01*
X131955515Y-113030000D01*
X131878273Y-113061995D01*
X131649465Y-113214880D01*
X131454880Y-113409465D01*
X131301995Y-113638273D01*
X131196686Y-113892510D01*
X131143000Y-114162408D01*
X131143000Y-114437592D01*
X131196686Y-114707490D01*
X131202008Y-114720339D01*
X131082729Y-114670932D01*
X130902089Y-114635000D01*
X130717911Y-114635000D01*
X130537271Y-114670932D01*
X130367111Y-114741414D01*
X130213972Y-114843738D01*
X130083738Y-114973972D01*
X129981414Y-115127111D01*
X129910932Y-115297271D01*
X129875000Y-115477911D01*
X129875000Y-115662089D01*
X129910932Y-115842729D01*
X129981414Y-116012889D01*
X130083738Y-116166028D01*
X130213972Y-116296262D01*
X130367111Y-116398586D01*
X130537271Y-116469068D01*
X130717911Y-116505000D01*
X130902089Y-116505000D01*
X131082729Y-116469068D01*
X131202008Y-116419661D01*
X131196686Y-116432510D01*
X131143000Y-116702408D01*
X131143000Y-116977592D01*
X131196686Y-117247490D01*
X131301995Y-117501727D01*
X131454880Y-117730535D01*
X131649465Y-117925120D01*
X131878273Y-118078005D01*
X131955515Y-118110000D01*
X131878273Y-118141995D01*
X131649465Y-118294880D01*
X131454880Y-118489465D01*
X131301995Y-118718273D01*
X131196686Y-118972510D01*
X131143000Y-119242408D01*
X131143000Y-119517592D01*
X131196686Y-119787490D01*
X131301995Y-120041727D01*
X131454880Y-120270535D01*
X131649465Y-120465120D01*
X131878273Y-120618005D01*
X132132510Y-120723314D01*
X132402408Y-120777000D01*
X132677592Y-120777000D01*
X132947490Y-120723314D01*
X133201727Y-120618005D01*
X133430535Y-120465120D01*
X133625120Y-120270535D01*
X133706001Y-120149488D01*
X133706001Y-123800000D01*
X130984655Y-123800000D01*
X131121632Y-123708475D01*
X131328475Y-123501632D01*
X131490990Y-123258411D01*
X131602932Y-122988158D01*
X131660000Y-122701260D01*
X131660000Y-122408740D01*
X131602932Y-122121842D01*
X131490990Y-121851589D01*
X131328475Y-121608368D01*
X131121632Y-121401525D01*
X130878411Y-121239010D01*
X130608158Y-121127068D01*
X130321260Y-121070000D01*
X130028740Y-121070000D01*
X129741842Y-121127068D01*
X129471589Y-121239010D01*
X129228368Y-121401525D01*
X129021525Y-121608368D01*
X128905000Y-121782760D01*
X128788475Y-121608368D01*
X128581632Y-121401525D01*
X128338411Y-121239010D01*
X128068158Y-121127068D01*
X127781260Y-121070000D01*
X127488740Y-121070000D01*
X127201842Y-121127068D01*
X126931589Y-121239010D01*
X126688368Y-121401525D01*
X126481525Y-121608368D01*
X126365000Y-121782760D01*
X126248475Y-121608368D01*
X126041632Y-121401525D01*
X125798411Y-121239010D01*
X125528158Y-121127068D01*
X125241260Y-121070000D01*
X124948740Y-121070000D01*
X124661842Y-121127068D01*
X124391589Y-121239010D01*
X124148368Y-121401525D01*
X123941525Y-121608368D01*
X123819805Y-121790534D01*
X123750178Y-121673645D01*
X123555269Y-121457412D01*
X123321920Y-121283359D01*
X123059099Y-121158175D01*
X122911890Y-121113524D01*
X122682000Y-121234845D01*
X122682000Y-122428000D01*
X122702000Y-122428000D01*
X122702000Y-122682000D01*
X122682000Y-122682000D01*
X122682000Y-122702000D01*
X122428000Y-122702000D01*
X122428000Y-122682000D01*
X122408000Y-122682000D01*
X122408000Y-122428000D01*
X122428000Y-122428000D01*
X122428000Y-121234845D01*
X122198110Y-121113524D01*
X122050901Y-121158175D01*
X121788080Y-121283359D01*
X121554731Y-121457412D01*
X121478966Y-121541466D01*
X121454502Y-121460820D01*
X121395537Y-121350506D01*
X121316185Y-121253815D01*
X121219494Y-121174463D01*
X121109180Y-121115498D01*
X120989482Y-121079188D01*
X120865000Y-121066928D01*
X119165000Y-121066928D01*
X119040518Y-121079188D01*
X118920820Y-121115498D01*
X118810506Y-121174463D01*
X118713815Y-121253815D01*
X118634463Y-121350506D01*
X118575498Y-121460820D01*
X118539188Y-121580518D01*
X118526928Y-121705000D01*
X118526928Y-123405000D01*
X118539188Y-123529482D01*
X118575498Y-123649180D01*
X118634463Y-123759494D01*
X118667705Y-123800000D01*
X116230000Y-123800000D01*
X116230000Y-120285655D01*
X116409465Y-120465120D01*
X116638273Y-120618005D01*
X116892510Y-120723314D01*
X117162408Y-120777000D01*
X117437592Y-120777000D01*
X117707490Y-120723314D01*
X117961727Y-120618005D01*
X118190535Y-120465120D01*
X118385120Y-120270535D01*
X118538005Y-120041727D01*
X118643314Y-119787490D01*
X118697000Y-119517592D01*
X118697000Y-119242408D01*
X118643314Y-118972510D01*
X118538005Y-118718273D01*
X118409473Y-118525911D01*
X118953000Y-118525911D01*
X118953000Y-118710089D01*
X118988932Y-118890729D01*
X119059414Y-119060889D01*
X119161738Y-119214028D01*
X119291972Y-119344262D01*
X119445111Y-119446586D01*
X119615271Y-119517068D01*
X119795911Y-119553000D01*
X119980089Y-119553000D01*
X120160729Y-119517068D01*
X120330889Y-119446586D01*
X120484028Y-119344262D01*
X120614262Y-119214028D01*
X120716586Y-119060889D01*
X120787068Y-118890729D01*
X120823000Y-118710089D01*
X120823000Y-118525911D01*
X120787068Y-118345271D01*
X120716586Y-118175111D01*
X120614262Y-118021972D01*
X120484028Y-117891738D01*
X120330889Y-117789414D01*
X120160729Y-117718932D01*
X119980089Y-117683000D01*
X119795911Y-117683000D01*
X119615271Y-117718932D01*
X119445111Y-117789414D01*
X119291972Y-117891738D01*
X119161738Y-118021972D01*
X119059414Y-118175111D01*
X118988932Y-118345271D01*
X118953000Y-118525911D01*
X118409473Y-118525911D01*
X118385120Y-118489465D01*
X118190535Y-118294880D01*
X117961727Y-118141995D01*
X117884485Y-118110000D01*
X117961727Y-118078005D01*
X118190535Y-117925120D01*
X118385120Y-117730535D01*
X118538005Y-117501727D01*
X118643314Y-117247490D01*
X118697000Y-116977592D01*
X118697000Y-116702408D01*
X118643314Y-116432510D01*
X118538005Y-116178273D01*
X118385120Y-115949465D01*
X118190535Y-115754880D01*
X117961727Y-115601995D01*
X117884485Y-115570000D01*
X117961727Y-115538005D01*
X118051663Y-115477911D01*
X126319000Y-115477911D01*
X126319000Y-115662089D01*
X126354932Y-115842729D01*
X126425414Y-116012889D01*
X126527738Y-116166028D01*
X126657972Y-116296262D01*
X126811111Y-116398586D01*
X126981271Y-116469068D01*
X127161911Y-116505000D01*
X127346089Y-116505000D01*
X127526729Y-116469068D01*
X127696889Y-116398586D01*
X127850028Y-116296262D01*
X127980262Y-116166028D01*
X128082586Y-116012889D01*
X128153068Y-115842729D01*
X128189000Y-115662089D01*
X128189000Y-115477911D01*
X128153068Y-115297271D01*
X128082586Y-115127111D01*
X128013930Y-115024360D01*
X128142262Y-114896028D01*
X128244586Y-114742889D01*
X128315068Y-114572729D01*
X128351000Y-114392089D01*
X128351000Y-114207911D01*
X128315068Y-114027271D01*
X128244586Y-113857111D01*
X128142262Y-113703972D01*
X128012028Y-113573738D01*
X127858889Y-113471414D01*
X127688729Y-113400932D01*
X127508089Y-113365000D01*
X127323911Y-113365000D01*
X127143271Y-113400932D01*
X126973111Y-113471414D01*
X126819972Y-113573738D01*
X126689738Y-113703972D01*
X126587414Y-113857111D01*
X126516932Y-114027271D01*
X126481000Y-114207911D01*
X126481000Y-114392089D01*
X126516932Y-114572729D01*
X126587414Y-114742889D01*
X126656070Y-114845640D01*
X126527738Y-114973972D01*
X126425414Y-115127111D01*
X126354932Y-115297271D01*
X126319000Y-115477911D01*
X118051663Y-115477911D01*
X118190535Y-115385120D01*
X118385120Y-115190535D01*
X118538005Y-114961727D01*
X118643314Y-114707490D01*
X118697000Y-114437592D01*
X118697000Y-114162408D01*
X118643314Y-113892510D01*
X118538005Y-113638273D01*
X118385120Y-113409465D01*
X118190535Y-113214880D01*
X117961727Y-113061995D01*
X117884485Y-113030000D01*
X117961727Y-112998005D01*
X118190535Y-112845120D01*
X118385120Y-112650535D01*
X118538005Y-112421727D01*
X118643314Y-112167490D01*
X118697000Y-111897592D01*
X118697000Y-111622408D01*
X118648566Y-111378911D01*
X125887004Y-111378911D01*
X125887004Y-111563089D01*
X125922936Y-111743729D01*
X125993418Y-111913889D01*
X126095742Y-112067028D01*
X126225976Y-112197262D01*
X126379115Y-112299586D01*
X126549275Y-112370068D01*
X126729915Y-112406000D01*
X126914093Y-112406000D01*
X127094733Y-112370068D01*
X127264893Y-112299586D01*
X127418032Y-112197262D01*
X127548266Y-112067028D01*
X127643604Y-111924344D01*
X127780729Y-111897068D01*
X127950889Y-111826586D01*
X128104028Y-111724262D01*
X128234262Y-111594028D01*
X128336586Y-111440889D01*
X128407068Y-111270729D01*
X128443000Y-111090089D01*
X128443000Y-110905911D01*
X128407068Y-110725271D01*
X128336586Y-110555111D01*
X128234262Y-110401972D01*
X128104028Y-110271738D01*
X127950889Y-110169414D01*
X127780729Y-110098932D01*
X127600089Y-110063000D01*
X127415911Y-110063000D01*
X127235271Y-110098932D01*
X127065111Y-110169414D01*
X126911972Y-110271738D01*
X126781738Y-110401972D01*
X126686400Y-110544656D01*
X126549275Y-110571932D01*
X126379115Y-110642414D01*
X126225976Y-110744738D01*
X126095742Y-110874972D01*
X125993418Y-111028111D01*
X125922936Y-111198271D01*
X125887004Y-111378911D01*
X118648566Y-111378911D01*
X118643314Y-111352510D01*
X118538005Y-111098273D01*
X118385120Y-110869465D01*
X118190535Y-110674880D01*
X117961727Y-110521995D01*
X117884485Y-110490000D01*
X117961727Y-110458005D01*
X118190535Y-110305120D01*
X118385120Y-110110535D01*
X118538005Y-109881727D01*
X118643314Y-109627490D01*
X118697000Y-109357592D01*
X118697000Y-109082408D01*
X118643314Y-108812510D01*
X118538005Y-108558273D01*
X118385120Y-108329465D01*
X118190535Y-108134880D01*
X117961727Y-107981995D01*
X117884485Y-107950000D01*
X117961727Y-107918005D01*
X118190535Y-107765120D01*
X118385120Y-107570535D01*
X118532536Y-107349911D01*
X123779000Y-107349911D01*
X123779000Y-107534089D01*
X123814932Y-107714729D01*
X123885414Y-107884889D01*
X123987738Y-108038028D01*
X124117972Y-108168262D01*
X124271111Y-108270586D01*
X124441271Y-108341068D01*
X124621911Y-108377000D01*
X124806089Y-108377000D01*
X124986729Y-108341068D01*
X125156889Y-108270586D01*
X125310028Y-108168262D01*
X125440262Y-108038028D01*
X125542586Y-107884889D01*
X125613068Y-107714729D01*
X125649000Y-107534089D01*
X125649000Y-107349911D01*
X125613068Y-107169271D01*
X125542586Y-106999111D01*
X125440262Y-106845972D01*
X125310028Y-106715738D01*
X125156889Y-106613414D01*
X124986729Y-106542932D01*
X124806089Y-106507000D01*
X124621911Y-106507000D01*
X124441271Y-106542932D01*
X124271111Y-106613414D01*
X124117972Y-106715738D01*
X123987738Y-106845972D01*
X123885414Y-106999111D01*
X123814932Y-107169271D01*
X123779000Y-107349911D01*
X118532536Y-107349911D01*
X118538005Y-107341727D01*
X118643314Y-107087490D01*
X118697000Y-106817592D01*
X118697000Y-106542408D01*
X118643314Y-106272510D01*
X118538005Y-106018273D01*
X118385120Y-105789465D01*
X118190535Y-105594880D01*
X117961727Y-105441995D01*
X117884485Y-105410000D01*
X117961727Y-105378005D01*
X118190535Y-105225120D01*
X118351744Y-105063911D01*
X124795000Y-105063911D01*
X124795000Y-105248089D01*
X124830932Y-105428729D01*
X124901414Y-105598889D01*
X125003738Y-105752028D01*
X125133972Y-105882262D01*
X125287111Y-105984586D01*
X125457271Y-106055068D01*
X125637911Y-106091000D01*
X125822089Y-106091000D01*
X126002729Y-106055068D01*
X126172889Y-105984586D01*
X126326028Y-105882262D01*
X126456262Y-105752028D01*
X126558586Y-105598889D01*
X126629068Y-105428729D01*
X126665000Y-105248089D01*
X126665000Y-105063911D01*
X126629068Y-104883271D01*
X126558586Y-104713111D01*
X126456262Y-104559972D01*
X126326028Y-104429738D01*
X126172889Y-104327414D01*
X126002729Y-104256932D01*
X125822089Y-104221000D01*
X125637911Y-104221000D01*
X125457271Y-104256932D01*
X125287111Y-104327414D01*
X125133972Y-104429738D01*
X125003738Y-104559972D01*
X124901414Y-104713111D01*
X124830932Y-104883271D01*
X124795000Y-105063911D01*
X118351744Y-105063911D01*
X118385120Y-105030535D01*
X118538005Y-104801727D01*
X118643314Y-104547490D01*
X118697000Y-104277592D01*
X118697000Y-104002408D01*
X118643314Y-103732510D01*
X118538005Y-103478273D01*
X118385120Y-103249465D01*
X118190535Y-103054880D01*
X117961727Y-102901995D01*
X117884485Y-102870000D01*
X117961727Y-102838005D01*
X118190535Y-102685120D01*
X118385120Y-102490535D01*
X118538005Y-102261727D01*
X118643314Y-102007490D01*
X118697000Y-101737592D01*
X118697000Y-101462408D01*
X118643314Y-101192510D01*
X118563537Y-100999911D01*
X122509000Y-100999911D01*
X122509000Y-101184089D01*
X122544932Y-101364729D01*
X122615414Y-101534889D01*
X122717738Y-101688028D01*
X122847972Y-101818262D01*
X123001111Y-101920586D01*
X123017000Y-101927167D01*
X123017000Y-101946089D01*
X123052932Y-102126729D01*
X123123414Y-102296889D01*
X123225738Y-102450028D01*
X123355972Y-102580262D01*
X123509111Y-102682586D01*
X123679271Y-102753068D01*
X123859911Y-102789000D01*
X124044089Y-102789000D01*
X124224729Y-102753068D01*
X124394889Y-102682586D01*
X124548028Y-102580262D01*
X124604379Y-102523911D01*
X124795000Y-102523911D01*
X124795000Y-102708089D01*
X124830932Y-102888729D01*
X124901414Y-103058889D01*
X125003738Y-103212028D01*
X125133972Y-103342262D01*
X125287111Y-103444586D01*
X125457271Y-103515068D01*
X125637911Y-103551000D01*
X125822089Y-103551000D01*
X126002729Y-103515068D01*
X126172889Y-103444586D01*
X126326028Y-103342262D01*
X126456262Y-103212028D01*
X126558586Y-103058889D01*
X126629068Y-102888729D01*
X126665000Y-102708089D01*
X126665000Y-102523911D01*
X126629068Y-102343271D01*
X126558586Y-102173111D01*
X126456262Y-102019972D01*
X126326028Y-101889738D01*
X126172889Y-101787414D01*
X126002729Y-101716932D01*
X125822089Y-101681000D01*
X125637911Y-101681000D01*
X125457271Y-101716932D01*
X125287111Y-101787414D01*
X125133972Y-101889738D01*
X125003738Y-102019972D01*
X124901414Y-102173111D01*
X124830932Y-102343271D01*
X124795000Y-102523911D01*
X124604379Y-102523911D01*
X124678262Y-102450028D01*
X124780586Y-102296889D01*
X124851068Y-102126729D01*
X124887000Y-101946089D01*
X124887000Y-101761911D01*
X124851068Y-101581271D01*
X124781629Y-101413629D01*
X124949271Y-101483068D01*
X125129911Y-101519000D01*
X125314089Y-101519000D01*
X125494729Y-101483068D01*
X125664889Y-101412586D01*
X125818028Y-101310262D01*
X125948262Y-101180028D01*
X126050586Y-101026889D01*
X126057167Y-101011000D01*
X126076089Y-101011000D01*
X126256729Y-100975068D01*
X126426889Y-100904586D01*
X126580028Y-100802262D01*
X126710262Y-100672028D01*
X126812586Y-100518889D01*
X126883068Y-100348729D01*
X126919000Y-100168089D01*
X126919000Y-99983911D01*
X126883068Y-99803271D01*
X126812586Y-99633111D01*
X126710262Y-99479972D01*
X126580028Y-99349738D01*
X126426889Y-99247414D01*
X126256729Y-99176932D01*
X126076089Y-99141000D01*
X125891911Y-99141000D01*
X125711271Y-99176932D01*
X125541111Y-99247414D01*
X125387972Y-99349738D01*
X125257738Y-99479972D01*
X125155414Y-99633111D01*
X125148833Y-99649000D01*
X125129911Y-99649000D01*
X124949271Y-99684932D01*
X124779111Y-99755414D01*
X124625972Y-99857738D01*
X124495738Y-99987972D01*
X124393414Y-100141111D01*
X124322932Y-100311271D01*
X124287000Y-100491911D01*
X124287000Y-100676089D01*
X124289993Y-100691135D01*
X124272586Y-100649111D01*
X124170262Y-100495972D01*
X124040028Y-100365738D01*
X123886889Y-100263414D01*
X123716729Y-100192932D01*
X123536089Y-100157000D01*
X123351911Y-100157000D01*
X123171271Y-100192932D01*
X123001111Y-100263414D01*
X122847972Y-100365738D01*
X122717738Y-100495972D01*
X122615414Y-100649111D01*
X122544932Y-100819271D01*
X122509000Y-100999911D01*
X118563537Y-100999911D01*
X118538005Y-100938273D01*
X118385120Y-100709465D01*
X118190535Y-100514880D01*
X117961727Y-100361995D01*
X117884485Y-100330000D01*
X117961727Y-100298005D01*
X118190535Y-100145120D01*
X118385120Y-99950535D01*
X118538005Y-99721727D01*
X118643314Y-99467490D01*
X118697000Y-99197592D01*
X118697000Y-98922408D01*
X118643314Y-98652510D01*
X118538005Y-98398273D01*
X118385120Y-98169465D01*
X118190535Y-97974880D01*
X117961727Y-97821995D01*
X117884485Y-97790000D01*
X117961727Y-97758005D01*
X118051663Y-97697911D01*
X124795000Y-97697911D01*
X124795000Y-97882089D01*
X124830932Y-98062729D01*
X124901414Y-98232889D01*
X125003738Y-98386028D01*
X125133972Y-98516262D01*
X125287111Y-98618586D01*
X125457271Y-98689068D01*
X125637911Y-98725000D01*
X125822089Y-98725000D01*
X126002729Y-98689068D01*
X126172889Y-98618586D01*
X126326028Y-98516262D01*
X126456262Y-98386028D01*
X126558586Y-98232889D01*
X126629068Y-98062729D01*
X126665000Y-97882089D01*
X126665000Y-97697911D01*
X126629068Y-97517271D01*
X126558586Y-97347111D01*
X126456262Y-97193972D01*
X126326028Y-97063738D01*
X126172889Y-96961414D01*
X126002729Y-96890932D01*
X125822089Y-96855000D01*
X125637911Y-96855000D01*
X125457271Y-96890932D01*
X125287111Y-96961414D01*
X125133972Y-97063738D01*
X125003738Y-97193972D01*
X124901414Y-97347111D01*
X124830932Y-97517271D01*
X124795000Y-97697911D01*
X118051663Y-97697911D01*
X118190535Y-97605120D01*
X118385120Y-97410535D01*
X118538005Y-97181727D01*
X118643314Y-96927490D01*
X118697000Y-96657592D01*
X118697000Y-96382408D01*
X118643314Y-96112510D01*
X118538005Y-95858273D01*
X118385120Y-95629465D01*
X118190535Y-95434880D01*
X117961727Y-95281995D01*
X117890057Y-95252308D01*
X117903023Y-95247636D01*
X118018980Y-95185656D01*
X118085960Y-94945565D01*
X118034456Y-94894061D01*
X123679000Y-94894061D01*
X123679000Y-95097939D01*
X123718774Y-95297898D01*
X123796795Y-95486256D01*
X123910063Y-95655774D01*
X124054226Y-95799937D01*
X124223744Y-95913205D01*
X124412102Y-95991226D01*
X124612061Y-96031000D01*
X124815939Y-96031000D01*
X125015898Y-95991226D01*
X125204256Y-95913205D01*
X125373774Y-95799937D01*
X125517937Y-95655774D01*
X125598252Y-95535573D01*
X125663414Y-95692889D01*
X125765738Y-95846028D01*
X125895972Y-95976262D01*
X126049111Y-96078586D01*
X126219271Y-96149068D01*
X126399911Y-96185000D01*
X126584089Y-96185000D01*
X126764729Y-96149068D01*
X126934889Y-96078586D01*
X127088028Y-95976262D01*
X127218262Y-95846028D01*
X127320586Y-95692889D01*
X127391068Y-95522729D01*
X127427000Y-95342089D01*
X127427000Y-95157911D01*
X127391068Y-94977271D01*
X127320586Y-94807111D01*
X127218262Y-94653972D01*
X127088028Y-94523738D01*
X126934889Y-94421414D01*
X126764729Y-94350932D01*
X126584089Y-94315000D01*
X126399911Y-94315000D01*
X126219271Y-94350932D01*
X126049111Y-94421414D01*
X125895972Y-94523738D01*
X125765738Y-94653972D01*
X125716039Y-94728352D01*
X125709226Y-94694102D01*
X125631205Y-94505744D01*
X125517937Y-94336226D01*
X125373774Y-94192063D01*
X125204256Y-94078795D01*
X125015898Y-94000774D01*
X124815939Y-93961000D01*
X124612061Y-93961000D01*
X124412102Y-94000774D01*
X124223744Y-94078795D01*
X124054226Y-94192063D01*
X123910063Y-94336226D01*
X123796795Y-94505744D01*
X123718774Y-94694102D01*
X123679000Y-94894061D01*
X118034456Y-94894061D01*
X117300000Y-94159605D01*
X116514040Y-94945565D01*
X116581020Y-95185656D01*
X116716760Y-95249485D01*
X116638273Y-95281995D01*
X116409465Y-95434880D01*
X116230000Y-95614345D01*
X116230000Y-94736825D01*
X116334435Y-94765960D01*
X117120395Y-93980000D01*
X117479605Y-93980000D01*
X118265565Y-94765960D01*
X118505656Y-94698980D01*
X118622756Y-94449952D01*
X118689023Y-94182865D01*
X118701910Y-93907983D01*
X118660922Y-93635867D01*
X118567636Y-93376977D01*
X118505656Y-93261020D01*
X118265565Y-93194040D01*
X117479605Y-93980000D01*
X117120395Y-93980000D01*
X116334435Y-93194040D01*
X116230000Y-93223175D01*
X116230000Y-92345655D01*
X116409465Y-92525120D01*
X116638273Y-92678005D01*
X116709943Y-92707692D01*
X116696977Y-92712364D01*
X116581020Y-92774344D01*
X116514040Y-93014435D01*
X117300000Y-93800395D01*
X118085960Y-93014435D01*
X118018980Y-92774344D01*
X117883240Y-92710515D01*
X117961727Y-92678005D01*
X118190535Y-92525120D01*
X118351744Y-92363911D01*
X123525000Y-92363911D01*
X123525000Y-92548089D01*
X123560932Y-92728729D01*
X123631414Y-92898889D01*
X123733738Y-93052028D01*
X123863972Y-93182262D01*
X124017111Y-93284586D01*
X124187271Y-93355068D01*
X124367911Y-93391000D01*
X124552089Y-93391000D01*
X124732729Y-93355068D01*
X124902889Y-93284586D01*
X125056028Y-93182262D01*
X125186262Y-93052028D01*
X125288586Y-92898889D01*
X125359068Y-92728729D01*
X125381111Y-92617911D01*
X128443000Y-92617911D01*
X128443000Y-92802089D01*
X128478932Y-92982729D01*
X128549414Y-93152889D01*
X128651738Y-93306028D01*
X128781972Y-93436262D01*
X128935111Y-93538586D01*
X129105271Y-93609068D01*
X129285911Y-93645000D01*
X129470089Y-93645000D01*
X129650729Y-93609068D01*
X129820889Y-93538586D01*
X129974028Y-93436262D01*
X130104262Y-93306028D01*
X130206586Y-93152889D01*
X130277068Y-92982729D01*
X130313000Y-92802089D01*
X130313000Y-92617911D01*
X130277068Y-92437271D01*
X130206586Y-92267111D01*
X130104262Y-92113972D01*
X129974028Y-91983738D01*
X129820889Y-91881414D01*
X129650729Y-91810932D01*
X129470089Y-91775000D01*
X129285911Y-91775000D01*
X129105271Y-91810932D01*
X128935111Y-91881414D01*
X128781972Y-91983738D01*
X128651738Y-92113972D01*
X128549414Y-92267111D01*
X128478932Y-92437271D01*
X128443000Y-92617911D01*
X125381111Y-92617911D01*
X125395000Y-92548089D01*
X125395000Y-92363911D01*
X125359068Y-92183271D01*
X125288586Y-92013111D01*
X125186262Y-91859972D01*
X125056028Y-91729738D01*
X124902889Y-91627414D01*
X124732729Y-91556932D01*
X124552089Y-91521000D01*
X124367911Y-91521000D01*
X124187271Y-91556932D01*
X124017111Y-91627414D01*
X123863972Y-91729738D01*
X123733738Y-91859972D01*
X123631414Y-92013111D01*
X123560932Y-92183271D01*
X123525000Y-92363911D01*
X118351744Y-92363911D01*
X118385120Y-92330535D01*
X118538005Y-92101727D01*
X118643314Y-91847490D01*
X118697000Y-91577592D01*
X118697000Y-91302408D01*
X118643314Y-91032510D01*
X118538005Y-90778273D01*
X118446558Y-90641413D01*
X125557000Y-90641413D01*
X125557000Y-90825591D01*
X125592932Y-91006231D01*
X125663414Y-91176391D01*
X125765738Y-91329530D01*
X125895972Y-91459764D01*
X126049111Y-91562088D01*
X126219271Y-91632570D01*
X126399911Y-91668502D01*
X126584089Y-91668502D01*
X126764729Y-91632570D01*
X126934889Y-91562088D01*
X127088028Y-91459764D01*
X127218262Y-91329530D01*
X127320586Y-91176391D01*
X127391068Y-91006231D01*
X127427000Y-90825591D01*
X127427000Y-90641413D01*
X127391068Y-90460773D01*
X127320586Y-90290613D01*
X127218262Y-90137474D01*
X127088028Y-90007240D01*
X126934889Y-89904916D01*
X126764729Y-89834434D01*
X126584089Y-89798502D01*
X126399911Y-89798502D01*
X126219271Y-89834434D01*
X126049111Y-89904916D01*
X125895972Y-90007240D01*
X125765738Y-90137474D01*
X125663414Y-90290613D01*
X125592932Y-90460773D01*
X125557000Y-90641413D01*
X118446558Y-90641413D01*
X118385120Y-90549465D01*
X118190535Y-90354880D01*
X117961727Y-90201995D01*
X117884485Y-90170000D01*
X117961727Y-90138005D01*
X118190535Y-89985120D01*
X118385120Y-89790535D01*
X118538005Y-89561727D01*
X118643314Y-89307490D01*
X118697000Y-89037592D01*
X118697000Y-88762408D01*
X118643314Y-88492510D01*
X118538005Y-88238273D01*
X118385120Y-88009465D01*
X118190535Y-87814880D01*
X118156160Y-87791911D01*
X123271000Y-87791911D01*
X123271000Y-87976089D01*
X123306932Y-88156729D01*
X123377414Y-88326889D01*
X123479738Y-88480028D01*
X123609972Y-88610262D01*
X123763111Y-88712586D01*
X123933271Y-88783068D01*
X124113911Y-88819000D01*
X124298089Y-88819000D01*
X124478729Y-88783068D01*
X124648889Y-88712586D01*
X124802028Y-88610262D01*
X124902567Y-88509723D01*
X124949271Y-88529068D01*
X125030218Y-88545170D01*
X125033416Y-88552890D01*
X125135740Y-88706029D01*
X125265974Y-88836263D01*
X125419113Y-88938587D01*
X125589273Y-89009069D01*
X125769913Y-89045001D01*
X125954091Y-89045001D01*
X126134731Y-89009069D01*
X126304891Y-88938587D01*
X126458030Y-88836263D01*
X126588264Y-88706029D01*
X126690588Y-88552890D01*
X126761070Y-88382730D01*
X126797002Y-88202090D01*
X126797002Y-88017912D01*
X126761070Y-87837272D01*
X126690588Y-87667112D01*
X126588264Y-87513973D01*
X126458030Y-87383739D01*
X126304891Y-87281415D01*
X126134731Y-87210933D01*
X126053784Y-87194831D01*
X126050586Y-87187111D01*
X125948262Y-87033972D01*
X125818028Y-86903738D01*
X125664889Y-86801414D01*
X125494729Y-86730932D01*
X125314089Y-86695000D01*
X125129911Y-86695000D01*
X124949271Y-86730932D01*
X124779111Y-86801414D01*
X124625972Y-86903738D01*
X124525433Y-87004277D01*
X124478729Y-86984932D01*
X124298089Y-86949000D01*
X124113911Y-86949000D01*
X123933271Y-86984932D01*
X123763111Y-87055414D01*
X123609972Y-87157738D01*
X123479738Y-87287972D01*
X123377414Y-87441111D01*
X123306932Y-87611271D01*
X123271000Y-87791911D01*
X118156160Y-87791911D01*
X117961727Y-87661995D01*
X117891901Y-87633072D01*
X117935000Y-87633072D01*
X118059482Y-87620812D01*
X118179180Y-87584502D01*
X118289494Y-87525537D01*
X118386185Y-87446185D01*
X118465537Y-87349494D01*
X118524502Y-87239180D01*
X118560812Y-87119482D01*
X118573072Y-86995000D01*
X118573072Y-85725000D01*
X118560812Y-85600518D01*
X118524502Y-85480820D01*
X118465537Y-85370506D01*
X118386185Y-85273815D01*
X118347418Y-85242000D01*
X131698673Y-85242000D01*
X131649465Y-85274880D01*
G37*
G04 #@! TD.AperFunction*
G04 #@! TD*
M02*
