G04 #@! TF.GenerationSoftware,KiCad,Pcbnew,5.1.12-84ad8e8a86~92~ubuntu20.04.1*
G04 #@! TF.CreationDate,2022-01-10T08:42:33+09:00*
G04 #@! TF.ProjectId,LI2026ODP,4c493230-3236-44f4-9450-2e6b69636164,rev?*
G04 #@! TF.SameCoordinates,Original*
G04 #@! TF.FileFunction,Soldermask,Bot*
G04 #@! TF.FilePolarity,Negative*
%FSLAX46Y46*%
G04 Gerber Fmt 4.6, Leading zero omitted, Abs format (unit mm)*
G04 Created by KiCad (PCBNEW 5.1.12-84ad8e8a86~92~ubuntu20.04.1) date 2022-01-10 08:42:33*
%MOMM*%
%LPD*%
G01*
G04 APERTURE LIST*
%ADD10O,1.700000X1.700000*%
%ADD11R,1.700000X1.700000*%
%ADD12C,1.524000*%
%ADD13R,1.270000X1.270000*%
G04 APERTURE END LIST*
G04 #@! TO.C,C5*
G36*
G01*
X129469000Y-116602500D02*
X129469000Y-117077500D01*
G75*
G02*
X129231500Y-117315000I-237500J0D01*
G01*
X128631500Y-117315000D01*
G75*
G02*
X128394000Y-117077500I0J237500D01*
G01*
X128394000Y-116602500D01*
G75*
G02*
X128631500Y-116365000I237500J0D01*
G01*
X129231500Y-116365000D01*
G75*
G02*
X129469000Y-116602500I0J-237500D01*
G01*
G37*
G36*
G01*
X131194000Y-116602500D02*
X131194000Y-117077500D01*
G75*
G02*
X130956500Y-117315000I-237500J0D01*
G01*
X130356500Y-117315000D01*
G75*
G02*
X130119000Y-117077500I0J237500D01*
G01*
X130119000Y-116602500D01*
G75*
G02*
X130356500Y-116365000I237500J0D01*
G01*
X130956500Y-116365000D01*
G75*
G02*
X131194000Y-116602500I0J-237500D01*
G01*
G37*
G04 #@! TD*
D10*
G04 #@! TO.C,J2*
X130175000Y-122555000D03*
X127635000Y-122555000D03*
X125095000Y-122555000D03*
X122555000Y-122555000D03*
D11*
X120015000Y-122555000D03*
G04 #@! TD*
D12*
G04 #@! TO.C,J1*
X132540000Y-86360000D03*
X132540000Y-88900000D03*
X132540000Y-91440000D03*
X132540000Y-93980000D03*
X132540000Y-96520000D03*
X132540000Y-99060000D03*
X132540000Y-101600000D03*
X132540000Y-104140000D03*
X132540000Y-106680000D03*
X132540000Y-109220000D03*
X132540000Y-111760000D03*
X132540000Y-114300000D03*
X132540000Y-116840000D03*
X132540000Y-119380000D03*
X117300000Y-119380000D03*
X117300000Y-116840000D03*
X117300000Y-114300000D03*
X117300000Y-111760000D03*
X117300000Y-109220000D03*
X117300000Y-106680000D03*
X117300000Y-104140000D03*
X117300000Y-101600000D03*
X117300000Y-99060000D03*
X117300000Y-96520000D03*
X117300000Y-93980000D03*
X117300000Y-91440000D03*
X117300000Y-88900000D03*
D13*
X117300000Y-86360000D03*
G04 #@! TD*
G04 #@! TO.C,R15*
G36*
G01*
X123525000Y-113681500D02*
X123525000Y-114156500D01*
G75*
G02*
X123287500Y-114394000I-237500J0D01*
G01*
X122787500Y-114394000D01*
G75*
G02*
X122550000Y-114156500I0J237500D01*
G01*
X122550000Y-113681500D01*
G75*
G02*
X122787500Y-113444000I237500J0D01*
G01*
X123287500Y-113444000D01*
G75*
G02*
X123525000Y-113681500I0J-237500D01*
G01*
G37*
G36*
G01*
X125350000Y-113681500D02*
X125350000Y-114156500D01*
G75*
G02*
X125112500Y-114394000I-237500J0D01*
G01*
X124612500Y-114394000D01*
G75*
G02*
X124375000Y-114156500I0J237500D01*
G01*
X124375000Y-113681500D01*
G75*
G02*
X124612500Y-113444000I237500J0D01*
G01*
X125112500Y-113444000D01*
G75*
G02*
X125350000Y-113681500I0J-237500D01*
G01*
G37*
G04 #@! TD*
G04 #@! TO.C,R14*
G36*
G01*
X129392500Y-114062500D02*
X129392500Y-114537500D01*
G75*
G02*
X129155000Y-114775000I-237500J0D01*
G01*
X128655000Y-114775000D01*
G75*
G02*
X128417500Y-114537500I0J237500D01*
G01*
X128417500Y-114062500D01*
G75*
G02*
X128655000Y-113825000I237500J0D01*
G01*
X129155000Y-113825000D01*
G75*
G02*
X129392500Y-114062500I0J-237500D01*
G01*
G37*
G36*
G01*
X131217500Y-114062500D02*
X131217500Y-114537500D01*
G75*
G02*
X130980000Y-114775000I-237500J0D01*
G01*
X130480000Y-114775000D01*
G75*
G02*
X130242500Y-114537500I0J237500D01*
G01*
X130242500Y-114062500D01*
G75*
G02*
X130480000Y-113825000I237500J0D01*
G01*
X130980000Y-113825000D01*
G75*
G02*
X131217500Y-114062500I0J-237500D01*
G01*
G37*
G04 #@! TD*
G04 #@! TO.C,R13*
G36*
G01*
X123525000Y-112157500D02*
X123525000Y-112632500D01*
G75*
G02*
X123287500Y-112870000I-237500J0D01*
G01*
X122787500Y-112870000D01*
G75*
G02*
X122550000Y-112632500I0J237500D01*
G01*
X122550000Y-112157500D01*
G75*
G02*
X122787500Y-111920000I237500J0D01*
G01*
X123287500Y-111920000D01*
G75*
G02*
X123525000Y-112157500I0J-237500D01*
G01*
G37*
G36*
G01*
X125350000Y-112157500D02*
X125350000Y-112632500D01*
G75*
G02*
X125112500Y-112870000I-237500J0D01*
G01*
X124612500Y-112870000D01*
G75*
G02*
X124375000Y-112632500I0J237500D01*
G01*
X124375000Y-112157500D01*
G75*
G02*
X124612500Y-111920000I237500J0D01*
G01*
X125112500Y-111920000D01*
G75*
G02*
X125350000Y-112157500I0J-237500D01*
G01*
G37*
G04 #@! TD*
G04 #@! TO.C,R12*
G36*
G01*
X129392500Y-111522500D02*
X129392500Y-111997500D01*
G75*
G02*
X129155000Y-112235000I-237500J0D01*
G01*
X128655000Y-112235000D01*
G75*
G02*
X128417500Y-111997500I0J237500D01*
G01*
X128417500Y-111522500D01*
G75*
G02*
X128655000Y-111285000I237500J0D01*
G01*
X129155000Y-111285000D01*
G75*
G02*
X129392500Y-111522500I0J-237500D01*
G01*
G37*
G36*
G01*
X131217500Y-111522500D02*
X131217500Y-111997500D01*
G75*
G02*
X130980000Y-112235000I-237500J0D01*
G01*
X130480000Y-112235000D01*
G75*
G02*
X130242500Y-111997500I0J237500D01*
G01*
X130242500Y-111522500D01*
G75*
G02*
X130480000Y-111285000I237500J0D01*
G01*
X130980000Y-111285000D01*
G75*
G02*
X131217500Y-111522500I0J-237500D01*
G01*
G37*
G04 #@! TD*
G04 #@! TO.C,R11*
G36*
G01*
X123525000Y-110633500D02*
X123525000Y-111108500D01*
G75*
G02*
X123287500Y-111346000I-237500J0D01*
G01*
X122787500Y-111346000D01*
G75*
G02*
X122550000Y-111108500I0J237500D01*
G01*
X122550000Y-110633500D01*
G75*
G02*
X122787500Y-110396000I237500J0D01*
G01*
X123287500Y-110396000D01*
G75*
G02*
X123525000Y-110633500I0J-237500D01*
G01*
G37*
G36*
G01*
X125350000Y-110633500D02*
X125350000Y-111108500D01*
G75*
G02*
X125112500Y-111346000I-237500J0D01*
G01*
X124612500Y-111346000D01*
G75*
G02*
X124375000Y-111108500I0J237500D01*
G01*
X124375000Y-110633500D01*
G75*
G02*
X124612500Y-110396000I237500J0D01*
G01*
X125112500Y-110396000D01*
G75*
G02*
X125350000Y-110633500I0J-237500D01*
G01*
G37*
G04 #@! TD*
G04 #@! TO.C,R10*
G36*
G01*
X129392500Y-108982500D02*
X129392500Y-109457500D01*
G75*
G02*
X129155000Y-109695000I-237500J0D01*
G01*
X128655000Y-109695000D01*
G75*
G02*
X128417500Y-109457500I0J237500D01*
G01*
X128417500Y-108982500D01*
G75*
G02*
X128655000Y-108745000I237500J0D01*
G01*
X129155000Y-108745000D01*
G75*
G02*
X129392500Y-108982500I0J-237500D01*
G01*
G37*
G36*
G01*
X131217500Y-108982500D02*
X131217500Y-109457500D01*
G75*
G02*
X130980000Y-109695000I-237500J0D01*
G01*
X130480000Y-109695000D01*
G75*
G02*
X130242500Y-109457500I0J237500D01*
G01*
X130242500Y-108982500D01*
G75*
G02*
X130480000Y-108745000I237500J0D01*
G01*
X130980000Y-108745000D01*
G75*
G02*
X131217500Y-108982500I0J-237500D01*
G01*
G37*
G04 #@! TD*
G04 #@! TO.C,R9*
G36*
G01*
X130242500Y-104377500D02*
X130242500Y-103902500D01*
G75*
G02*
X130480000Y-103665000I237500J0D01*
G01*
X130980000Y-103665000D01*
G75*
G02*
X131217500Y-103902500I0J-237500D01*
G01*
X131217500Y-104377500D01*
G75*
G02*
X130980000Y-104615000I-237500J0D01*
G01*
X130480000Y-104615000D01*
G75*
G02*
X130242500Y-104377500I0J237500D01*
G01*
G37*
G36*
G01*
X128417500Y-104377500D02*
X128417500Y-103902500D01*
G75*
G02*
X128655000Y-103665000I237500J0D01*
G01*
X129155000Y-103665000D01*
G75*
G02*
X129392500Y-103902500I0J-237500D01*
G01*
X129392500Y-104377500D01*
G75*
G02*
X129155000Y-104615000I-237500J0D01*
G01*
X128655000Y-104615000D01*
G75*
G02*
X128417500Y-104377500I0J237500D01*
G01*
G37*
G04 #@! TD*
G04 #@! TO.C,R8*
G36*
G01*
X130242500Y-101837500D02*
X130242500Y-101362500D01*
G75*
G02*
X130480000Y-101125000I237500J0D01*
G01*
X130980000Y-101125000D01*
G75*
G02*
X131217500Y-101362500I0J-237500D01*
G01*
X131217500Y-101837500D01*
G75*
G02*
X130980000Y-102075000I-237500J0D01*
G01*
X130480000Y-102075000D01*
G75*
G02*
X130242500Y-101837500I0J237500D01*
G01*
G37*
G36*
G01*
X128417500Y-101837500D02*
X128417500Y-101362500D01*
G75*
G02*
X128655000Y-101125000I237500J0D01*
G01*
X129155000Y-101125000D01*
G75*
G02*
X129392500Y-101362500I0J-237500D01*
G01*
X129392500Y-101837500D01*
G75*
G02*
X129155000Y-102075000I-237500J0D01*
G01*
X128655000Y-102075000D01*
G75*
G02*
X128417500Y-101837500I0J237500D01*
G01*
G37*
G04 #@! TD*
G04 #@! TO.C,R7*
G36*
G01*
X130242500Y-99297500D02*
X130242500Y-98822500D01*
G75*
G02*
X130480000Y-98585000I237500J0D01*
G01*
X130980000Y-98585000D01*
G75*
G02*
X131217500Y-98822500I0J-237500D01*
G01*
X131217500Y-99297500D01*
G75*
G02*
X130980000Y-99535000I-237500J0D01*
G01*
X130480000Y-99535000D01*
G75*
G02*
X130242500Y-99297500I0J237500D01*
G01*
G37*
G36*
G01*
X128417500Y-99297500D02*
X128417500Y-98822500D01*
G75*
G02*
X128655000Y-98585000I237500J0D01*
G01*
X129155000Y-98585000D01*
G75*
G02*
X129392500Y-98822500I0J-237500D01*
G01*
X129392500Y-99297500D01*
G75*
G02*
X129155000Y-99535000I-237500J0D01*
G01*
X128655000Y-99535000D01*
G75*
G02*
X128417500Y-99297500I0J237500D01*
G01*
G37*
G04 #@! TD*
G04 #@! TO.C,R6*
G36*
G01*
X130242500Y-96757500D02*
X130242500Y-96282500D01*
G75*
G02*
X130480000Y-96045000I237500J0D01*
G01*
X130980000Y-96045000D01*
G75*
G02*
X131217500Y-96282500I0J-237500D01*
G01*
X131217500Y-96757500D01*
G75*
G02*
X130980000Y-96995000I-237500J0D01*
G01*
X130480000Y-96995000D01*
G75*
G02*
X130242500Y-96757500I0J237500D01*
G01*
G37*
G36*
G01*
X128417500Y-96757500D02*
X128417500Y-96282500D01*
G75*
G02*
X128655000Y-96045000I237500J0D01*
G01*
X129155000Y-96045000D01*
G75*
G02*
X129392500Y-96282500I0J-237500D01*
G01*
X129392500Y-96757500D01*
G75*
G02*
X129155000Y-96995000I-237500J0D01*
G01*
X128655000Y-96995000D01*
G75*
G02*
X128417500Y-96757500I0J237500D01*
G01*
G37*
G04 #@! TD*
G04 #@! TO.C,R5*
G36*
G01*
X130242500Y-94217500D02*
X130242500Y-93742500D01*
G75*
G02*
X130480000Y-93505000I237500J0D01*
G01*
X130980000Y-93505000D01*
G75*
G02*
X131217500Y-93742500I0J-237500D01*
G01*
X131217500Y-94217500D01*
G75*
G02*
X130980000Y-94455000I-237500J0D01*
G01*
X130480000Y-94455000D01*
G75*
G02*
X130242500Y-94217500I0J237500D01*
G01*
G37*
G36*
G01*
X128417500Y-94217500D02*
X128417500Y-93742500D01*
G75*
G02*
X128655000Y-93505000I237500J0D01*
G01*
X129155000Y-93505000D01*
G75*
G02*
X129392500Y-93742500I0J-237500D01*
G01*
X129392500Y-94217500D01*
G75*
G02*
X129155000Y-94455000I-237500J0D01*
G01*
X128655000Y-94455000D01*
G75*
G02*
X128417500Y-94217500I0J237500D01*
G01*
G37*
G04 #@! TD*
G04 #@! TO.C,D9*
G36*
G01*
X126156000Y-86122500D02*
X126156000Y-86597500D01*
G75*
G02*
X125918500Y-86835000I-237500J0D01*
G01*
X125343500Y-86835000D01*
G75*
G02*
X125106000Y-86597500I0J237500D01*
G01*
X125106000Y-86122500D01*
G75*
G02*
X125343500Y-85885000I237500J0D01*
G01*
X125918500Y-85885000D01*
G75*
G02*
X126156000Y-86122500I0J-237500D01*
G01*
G37*
G36*
G01*
X127906000Y-86122500D02*
X127906000Y-86597500D01*
G75*
G02*
X127668500Y-86835000I-237500J0D01*
G01*
X127093500Y-86835000D01*
G75*
G02*
X126856000Y-86597500I0J237500D01*
G01*
X126856000Y-86122500D01*
G75*
G02*
X127093500Y-85885000I237500J0D01*
G01*
X127668500Y-85885000D01*
G75*
G02*
X127906000Y-86122500I0J-237500D01*
G01*
G37*
G04 #@! TD*
G04 #@! TO.C,D7*
G36*
G01*
X126128000Y-93742500D02*
X126128000Y-94217500D01*
G75*
G02*
X125890500Y-94455000I-237500J0D01*
G01*
X125315500Y-94455000D01*
G75*
G02*
X125078000Y-94217500I0J237500D01*
G01*
X125078000Y-93742500D01*
G75*
G02*
X125315500Y-93505000I237500J0D01*
G01*
X125890500Y-93505000D01*
G75*
G02*
X126128000Y-93742500I0J-237500D01*
G01*
G37*
G36*
G01*
X127878000Y-93742500D02*
X127878000Y-94217500D01*
G75*
G02*
X127640500Y-94455000I-237500J0D01*
G01*
X127065500Y-94455000D01*
G75*
G02*
X126828000Y-94217500I0J237500D01*
G01*
X126828000Y-93742500D01*
G75*
G02*
X127065500Y-93505000I237500J0D01*
G01*
X127640500Y-93505000D01*
G75*
G02*
X127878000Y-93742500I0J-237500D01*
G01*
G37*
G04 #@! TD*
G04 #@! TO.C,D6*
G36*
G01*
X126128000Y-96282500D02*
X126128000Y-96757500D01*
G75*
G02*
X125890500Y-96995000I-237500J0D01*
G01*
X125315500Y-96995000D01*
G75*
G02*
X125078000Y-96757500I0J237500D01*
G01*
X125078000Y-96282500D01*
G75*
G02*
X125315500Y-96045000I237500J0D01*
G01*
X125890500Y-96045000D01*
G75*
G02*
X126128000Y-96282500I0J-237500D01*
G01*
G37*
G36*
G01*
X127878000Y-96282500D02*
X127878000Y-96757500D01*
G75*
G02*
X127640500Y-96995000I-237500J0D01*
G01*
X127065500Y-96995000D01*
G75*
G02*
X126828000Y-96757500I0J237500D01*
G01*
X126828000Y-96282500D01*
G75*
G02*
X127065500Y-96045000I237500J0D01*
G01*
X127640500Y-96045000D01*
G75*
G02*
X127878000Y-96282500I0J-237500D01*
G01*
G37*
G04 #@! TD*
G04 #@! TO.C,D5*
G36*
G01*
X126128000Y-98822500D02*
X126128000Y-99297500D01*
G75*
G02*
X125890500Y-99535000I-237500J0D01*
G01*
X125315500Y-99535000D01*
G75*
G02*
X125078000Y-99297500I0J237500D01*
G01*
X125078000Y-98822500D01*
G75*
G02*
X125315500Y-98585000I237500J0D01*
G01*
X125890500Y-98585000D01*
G75*
G02*
X126128000Y-98822500I0J-237500D01*
G01*
G37*
G36*
G01*
X127878000Y-98822500D02*
X127878000Y-99297500D01*
G75*
G02*
X127640500Y-99535000I-237500J0D01*
G01*
X127065500Y-99535000D01*
G75*
G02*
X126828000Y-99297500I0J237500D01*
G01*
X126828000Y-98822500D01*
G75*
G02*
X127065500Y-98585000I237500J0D01*
G01*
X127640500Y-98585000D01*
G75*
G02*
X127878000Y-98822500I0J-237500D01*
G01*
G37*
G04 #@! TD*
G04 #@! TO.C,C4*
G36*
G01*
X126602500Y-113059500D02*
X126127500Y-113059500D01*
G75*
G02*
X125890000Y-112822000I0J237500D01*
G01*
X125890000Y-112222000D01*
G75*
G02*
X126127500Y-111984500I237500J0D01*
G01*
X126602500Y-111984500D01*
G75*
G02*
X126840000Y-112222000I0J-237500D01*
G01*
X126840000Y-112822000D01*
G75*
G02*
X126602500Y-113059500I-237500J0D01*
G01*
G37*
G36*
G01*
X126602500Y-114784500D02*
X126127500Y-114784500D01*
G75*
G02*
X125890000Y-114547000I0J237500D01*
G01*
X125890000Y-113947000D01*
G75*
G02*
X126127500Y-113709500I237500J0D01*
G01*
X126602500Y-113709500D01*
G75*
G02*
X126840000Y-113947000I0J-237500D01*
G01*
X126840000Y-114547000D01*
G75*
G02*
X126602500Y-114784500I-237500J0D01*
G01*
G37*
G04 #@! TD*
G04 #@! TO.C,C3*
G36*
G01*
X123681500Y-98380500D02*
X123206500Y-98380500D01*
G75*
G02*
X122969000Y-98143000I0J237500D01*
G01*
X122969000Y-97543000D01*
G75*
G02*
X123206500Y-97305500I237500J0D01*
G01*
X123681500Y-97305500D01*
G75*
G02*
X123919000Y-97543000I0J-237500D01*
G01*
X123919000Y-98143000D01*
G75*
G02*
X123681500Y-98380500I-237500J0D01*
G01*
G37*
G36*
G01*
X123681500Y-100105500D02*
X123206500Y-100105500D01*
G75*
G02*
X122969000Y-99868000I0J237500D01*
G01*
X122969000Y-99268000D01*
G75*
G02*
X123206500Y-99030500I237500J0D01*
G01*
X123681500Y-99030500D01*
G75*
G02*
X123919000Y-99268000I0J-237500D01*
G01*
X123919000Y-99868000D01*
G75*
G02*
X123681500Y-100105500I-237500J0D01*
G01*
G37*
G04 #@! TD*
G04 #@! TO.C,C2*
G36*
G01*
X123206500Y-104565500D02*
X123681500Y-104565500D01*
G75*
G02*
X123919000Y-104803000I0J-237500D01*
G01*
X123919000Y-105403000D01*
G75*
G02*
X123681500Y-105640500I-237500J0D01*
G01*
X123206500Y-105640500D01*
G75*
G02*
X122969000Y-105403000I0J237500D01*
G01*
X122969000Y-104803000D01*
G75*
G02*
X123206500Y-104565500I237500J0D01*
G01*
G37*
G36*
G01*
X123206500Y-102840500D02*
X123681500Y-102840500D01*
G75*
G02*
X123919000Y-103078000I0J-237500D01*
G01*
X123919000Y-103678000D01*
G75*
G02*
X123681500Y-103915500I-237500J0D01*
G01*
X123206500Y-103915500D01*
G75*
G02*
X122969000Y-103678000I0J237500D01*
G01*
X122969000Y-103078000D01*
G75*
G02*
X123206500Y-102840500I237500J0D01*
G01*
G37*
G04 #@! TD*
G04 #@! TO.C,R3*
G36*
G01*
X130242500Y-86597500D02*
X130242500Y-86122500D01*
G75*
G02*
X130480000Y-85885000I237500J0D01*
G01*
X130980000Y-85885000D01*
G75*
G02*
X131217500Y-86122500I0J-237500D01*
G01*
X131217500Y-86597500D01*
G75*
G02*
X130980000Y-86835000I-237500J0D01*
G01*
X130480000Y-86835000D01*
G75*
G02*
X130242500Y-86597500I0J237500D01*
G01*
G37*
G36*
G01*
X128417500Y-86597500D02*
X128417500Y-86122500D01*
G75*
G02*
X128655000Y-85885000I237500J0D01*
G01*
X129155000Y-85885000D01*
G75*
G02*
X129392500Y-86122500I0J-237500D01*
G01*
X129392500Y-86597500D01*
G75*
G02*
X129155000Y-86835000I-237500J0D01*
G01*
X128655000Y-86835000D01*
G75*
G02*
X128417500Y-86597500I0J237500D01*
G01*
G37*
G04 #@! TD*
G04 #@! TO.C,R2*
G36*
G01*
X119439500Y-86122500D02*
X119439500Y-86597500D01*
G75*
G02*
X119202000Y-86835000I-237500J0D01*
G01*
X118702000Y-86835000D01*
G75*
G02*
X118464500Y-86597500I0J237500D01*
G01*
X118464500Y-86122500D01*
G75*
G02*
X118702000Y-85885000I237500J0D01*
G01*
X119202000Y-85885000D01*
G75*
G02*
X119439500Y-86122500I0J-237500D01*
G01*
G37*
G36*
G01*
X121264500Y-86122500D02*
X121264500Y-86597500D01*
G75*
G02*
X121027000Y-86835000I-237500J0D01*
G01*
X120527000Y-86835000D01*
G75*
G02*
X120289500Y-86597500I0J237500D01*
G01*
X120289500Y-86122500D01*
G75*
G02*
X120527000Y-85885000I237500J0D01*
G01*
X121027000Y-85885000D01*
G75*
G02*
X121264500Y-86122500I0J-237500D01*
G01*
G37*
G04 #@! TD*
G04 #@! TO.C,R1*
G36*
G01*
X119526000Y-88662500D02*
X119526000Y-89137500D01*
G75*
G02*
X119288500Y-89375000I-237500J0D01*
G01*
X118788500Y-89375000D01*
G75*
G02*
X118551000Y-89137500I0J237500D01*
G01*
X118551000Y-88662500D01*
G75*
G02*
X118788500Y-88425000I237500J0D01*
G01*
X119288500Y-88425000D01*
G75*
G02*
X119526000Y-88662500I0J-237500D01*
G01*
G37*
G36*
G01*
X121351000Y-88662500D02*
X121351000Y-89137500D01*
G75*
G02*
X121113500Y-89375000I-237500J0D01*
G01*
X120613500Y-89375000D01*
G75*
G02*
X120376000Y-89137500I0J237500D01*
G01*
X120376000Y-88662500D01*
G75*
G02*
X120613500Y-88425000I237500J0D01*
G01*
X121113500Y-88425000D01*
G75*
G02*
X121351000Y-88662500I0J-237500D01*
G01*
G37*
G04 #@! TD*
G04 #@! TO.C,D4*
G36*
G01*
X126128000Y-101362500D02*
X126128000Y-101837500D01*
G75*
G02*
X125890500Y-102075000I-237500J0D01*
G01*
X125315500Y-102075000D01*
G75*
G02*
X125078000Y-101837500I0J237500D01*
G01*
X125078000Y-101362500D01*
G75*
G02*
X125315500Y-101125000I237500J0D01*
G01*
X125890500Y-101125000D01*
G75*
G02*
X126128000Y-101362500I0J-237500D01*
G01*
G37*
G36*
G01*
X127878000Y-101362500D02*
X127878000Y-101837500D01*
G75*
G02*
X127640500Y-102075000I-237500J0D01*
G01*
X127065500Y-102075000D01*
G75*
G02*
X126828000Y-101837500I0J237500D01*
G01*
X126828000Y-101362500D01*
G75*
G02*
X127065500Y-101125000I237500J0D01*
G01*
X127640500Y-101125000D01*
G75*
G02*
X127878000Y-101362500I0J-237500D01*
G01*
G37*
G04 #@! TD*
G04 #@! TO.C,D3*
G36*
G01*
X126128000Y-103902500D02*
X126128000Y-104377500D01*
G75*
G02*
X125890500Y-104615000I-237500J0D01*
G01*
X125315500Y-104615000D01*
G75*
G02*
X125078000Y-104377500I0J237500D01*
G01*
X125078000Y-103902500D01*
G75*
G02*
X125315500Y-103665000I237500J0D01*
G01*
X125890500Y-103665000D01*
G75*
G02*
X126128000Y-103902500I0J-237500D01*
G01*
G37*
G36*
G01*
X127878000Y-103902500D02*
X127878000Y-104377500D01*
G75*
G02*
X127640500Y-104615000I-237500J0D01*
G01*
X127065500Y-104615000D01*
G75*
G02*
X126828000Y-104377500I0J237500D01*
G01*
X126828000Y-103902500D01*
G75*
G02*
X127065500Y-103665000I237500J0D01*
G01*
X127640500Y-103665000D01*
G75*
G02*
X127878000Y-103902500I0J-237500D01*
G01*
G37*
G04 #@! TD*
G04 #@! TO.C,D2*
G36*
G01*
X123653000Y-89137500D02*
X123653000Y-88662500D01*
G75*
G02*
X123890500Y-88425000I237500J0D01*
G01*
X124465500Y-88425000D01*
G75*
G02*
X124703000Y-88662500I0J-237500D01*
G01*
X124703000Y-89137500D01*
G75*
G02*
X124465500Y-89375000I-237500J0D01*
G01*
X123890500Y-89375000D01*
G75*
G02*
X123653000Y-89137500I0J237500D01*
G01*
G37*
G36*
G01*
X121903000Y-89137500D02*
X121903000Y-88662500D01*
G75*
G02*
X122140500Y-88425000I237500J0D01*
G01*
X122715500Y-88425000D01*
G75*
G02*
X122953000Y-88662500I0J-237500D01*
G01*
X122953000Y-89137500D01*
G75*
G02*
X122715500Y-89375000I-237500J0D01*
G01*
X122140500Y-89375000D01*
G75*
G02*
X121903000Y-89137500I0J237500D01*
G01*
G37*
G04 #@! TD*
G04 #@! TO.C,D1*
G36*
G01*
X123526000Y-86597500D02*
X123526000Y-86122500D01*
G75*
G02*
X123763500Y-85885000I237500J0D01*
G01*
X124338500Y-85885000D01*
G75*
G02*
X124576000Y-86122500I0J-237500D01*
G01*
X124576000Y-86597500D01*
G75*
G02*
X124338500Y-86835000I-237500J0D01*
G01*
X123763500Y-86835000D01*
G75*
G02*
X123526000Y-86597500I0J237500D01*
G01*
G37*
G36*
G01*
X121776000Y-86597500D02*
X121776000Y-86122500D01*
G75*
G02*
X122013500Y-85885000I237500J0D01*
G01*
X122588500Y-85885000D01*
G75*
G02*
X122826000Y-86122500I0J-237500D01*
G01*
X122826000Y-86597500D01*
G75*
G02*
X122588500Y-86835000I-237500J0D01*
G01*
X122013500Y-86835000D01*
G75*
G02*
X121776000Y-86597500I0J237500D01*
G01*
G37*
G04 #@! TD*
G04 #@! TO.C,R4*
G36*
G01*
X130242500Y-91677500D02*
X130242500Y-91202500D01*
G75*
G02*
X130480000Y-90965000I237500J0D01*
G01*
X130980000Y-90965000D01*
G75*
G02*
X131217500Y-91202500I0J-237500D01*
G01*
X131217500Y-91677500D01*
G75*
G02*
X130980000Y-91915000I-237500J0D01*
G01*
X130480000Y-91915000D01*
G75*
G02*
X130242500Y-91677500I0J237500D01*
G01*
G37*
G36*
G01*
X128417500Y-91677500D02*
X128417500Y-91202500D01*
G75*
G02*
X128655000Y-90965000I237500J0D01*
G01*
X129155000Y-90965000D01*
G75*
G02*
X129392500Y-91202500I0J-237500D01*
G01*
X129392500Y-91677500D01*
G75*
G02*
X129155000Y-91915000I-237500J0D01*
G01*
X128655000Y-91915000D01*
G75*
G02*
X128417500Y-91677500I0J237500D01*
G01*
G37*
G04 #@! TD*
G04 #@! TO.C,D8*
G36*
G01*
X126128000Y-91202500D02*
X126128000Y-91677500D01*
G75*
G02*
X125890500Y-91915000I-237500J0D01*
G01*
X125315500Y-91915000D01*
G75*
G02*
X125078000Y-91677500I0J237500D01*
G01*
X125078000Y-91202500D01*
G75*
G02*
X125315500Y-90965000I237500J0D01*
G01*
X125890500Y-90965000D01*
G75*
G02*
X126128000Y-91202500I0J-237500D01*
G01*
G37*
G36*
G01*
X127878000Y-91202500D02*
X127878000Y-91677500D01*
G75*
G02*
X127640500Y-91915000I-237500J0D01*
G01*
X127065500Y-91915000D01*
G75*
G02*
X126828000Y-91677500I0J237500D01*
G01*
X126828000Y-91202500D01*
G75*
G02*
X127065500Y-90965000I237500J0D01*
G01*
X127640500Y-90965000D01*
G75*
G02*
X127878000Y-91202500I0J-237500D01*
G01*
G37*
G04 #@! TD*
M02*
