G04 #@! TF.GenerationSoftware,KiCad,Pcbnew,5.1.12-84ad8e8a86~92~ubuntu20.04.1*
G04 #@! TF.CreationDate,2022-01-10T08:42:33+09:00*
G04 #@! TF.ProjectId,LI2026ODP,4c493230-3236-44f4-9450-2e6b69636164,rev?*
G04 #@! TF.SameCoordinates,Original*
G04 #@! TF.FileFunction,Copper,L1,Top*
G04 #@! TF.FilePolarity,Positive*
%FSLAX46Y46*%
G04 Gerber Fmt 4.6, Leading zero omitted, Abs format (unit mm)*
G04 Created by KiCad (PCBNEW 5.1.12-84ad8e8a86~92~ubuntu20.04.1) date 2022-01-10 08:42:33*
%MOMM*%
%LPD*%
G01*
G04 APERTURE LIST*
G04 #@! TA.AperFunction,ComponentPad*
%ADD10O,1.700000X1.700000*%
G04 #@! TD*
G04 #@! TA.AperFunction,ComponentPad*
%ADD11R,1.700000X1.700000*%
G04 #@! TD*
G04 #@! TA.AperFunction,ComponentPad*
%ADD12C,1.524000*%
G04 #@! TD*
G04 #@! TA.AperFunction,ComponentPad*
%ADD13R,1.270000X1.270000*%
G04 #@! TD*
G04 #@! TA.AperFunction,SMDPad,CuDef*
%ADD14R,0.431800X1.422400*%
G04 #@! TD*
G04 #@! TA.AperFunction,SMDPad,CuDef*
%ADD15R,1.384300X0.355600*%
G04 #@! TD*
G04 #@! TA.AperFunction,SMDPad,CuDef*
%ADD16R,0.508000X1.358900*%
G04 #@! TD*
G04 #@! TA.AperFunction,SMDPad,CuDef*
%ADD17R,1.358900X0.508000*%
G04 #@! TD*
G04 #@! TA.AperFunction,ViaPad*
%ADD18C,0.600000*%
G04 #@! TD*
G04 #@! TA.AperFunction,ViaPad*
%ADD19C,0.800000*%
G04 #@! TD*
G04 #@! TA.AperFunction,Conductor*
%ADD20C,0.200000*%
G04 #@! TD*
G04 #@! TA.AperFunction,Conductor*
%ADD21C,0.400000*%
G04 #@! TD*
G04 APERTURE END LIST*
G04 #@! TO.P,C1,2*
G04 #@! TO.N,GND*
G04 #@! TA.AperFunction,SMDPad,CuDef*
G36*
G01*
X129301000Y-87801001D02*
X129301000Y-86950999D01*
G75*
G02*
X129550999Y-86701000I249999J0D01*
G01*
X130626001Y-86701000D01*
G75*
G02*
X130876000Y-86950999I0J-249999D01*
G01*
X130876000Y-87801001D01*
G75*
G02*
X130626001Y-88051000I-249999J0D01*
G01*
X129550999Y-88051000D01*
G75*
G02*
X129301000Y-87801001I0J249999D01*
G01*
G37*
G04 #@! TD.AperFunction*
G04 #@! TO.P,C1,1*
G04 #@! TO.N,+3V3*
G04 #@! TA.AperFunction,SMDPad,CuDef*
G36*
G01*
X126426000Y-87801001D02*
X126426000Y-86950999D01*
G75*
G02*
X126675999Y-86701000I249999J0D01*
G01*
X127751001Y-86701000D01*
G75*
G02*
X128001000Y-86950999I0J-249999D01*
G01*
X128001000Y-87801001D01*
G75*
G02*
X127751001Y-88051000I-249999J0D01*
G01*
X126675999Y-88051000D01*
G75*
G02*
X126426000Y-87801001I0J249999D01*
G01*
G37*
G04 #@! TD.AperFunction*
G04 #@! TD*
D10*
G04 #@! TO.P,J2,5*
G04 #@! TO.N,/LPUART2_TX*
X130175000Y-122555000D03*
G04 #@! TO.P,J2,4*
G04 #@! TO.N,/NRST*
X127635000Y-122555000D03*
G04 #@! TO.P,J2,3*
G04 #@! TO.N,/SWDIO*
X125095000Y-122555000D03*
G04 #@! TO.P,J2,2*
G04 #@! TO.N,GND*
X122555000Y-122555000D03*
D11*
G04 #@! TO.P,J2,1*
G04 #@! TO.N,/SWCLK*
X120015000Y-122555000D03*
G04 #@! TD*
D12*
G04 #@! TO.P,J1,28*
G04 #@! TO.N,Net-(D9-Pad1)*
X132540000Y-86360000D03*
G04 #@! TO.P,J1,27*
G04 #@! TO.N,Net-(J1-Pad27)*
X132540000Y-88900000D03*
G04 #@! TO.P,J1,26*
G04 #@! TO.N,Net-(D8-Pad1)*
X132540000Y-91440000D03*
G04 #@! TO.P,J1,25*
G04 #@! TO.N,Net-(D7-Pad1)*
X132540000Y-93980000D03*
G04 #@! TO.P,J1,24*
G04 #@! TO.N,Net-(D6-Pad1)*
X132540000Y-96520000D03*
G04 #@! TO.P,J1,23*
G04 #@! TO.N,Net-(D5-Pad1)*
X132540000Y-99060000D03*
G04 #@! TO.P,J1,22*
G04 #@! TO.N,Net-(D4-Pad1)*
X132540000Y-101600000D03*
G04 #@! TO.P,J1,21*
G04 #@! TO.N,Net-(D3-Pad1)*
X132540000Y-104140000D03*
G04 #@! TO.P,J1,20*
G04 #@! TO.N,Net-(J1-Pad20)*
X132540000Y-106680000D03*
G04 #@! TO.P,J1,19*
G04 #@! TO.N,/KEY3*
X132540000Y-109220000D03*
G04 #@! TO.P,J1,18*
G04 #@! TO.N,/KEY2*
X132540000Y-111760000D03*
G04 #@! TO.P,J1,17*
G04 #@! TO.N,/KEY1*
X132540000Y-114300000D03*
G04 #@! TO.P,J1,16*
G04 #@! TO.N,Net-(J1-Pad16)*
X132540000Y-116840000D03*
G04 #@! TO.P,J1,15*
G04 #@! TO.N,Net-(J1-Pad15)*
X132540000Y-119380000D03*
G04 #@! TO.P,J1,14*
G04 #@! TO.N,/+25V*
X117300000Y-119380000D03*
G04 #@! TO.P,J1,13*
G04 #@! TO.N,/SEG_DP*
X117300000Y-116840000D03*
G04 #@! TO.P,J1,12*
G04 #@! TO.N,/SEG_D*
X117300000Y-114300000D03*
G04 #@! TO.P,J1,11*
G04 #@! TO.N,/SEG_C*
X117300000Y-111760000D03*
G04 #@! TO.P,J1,10*
G04 #@! TO.N,/SEG_E*
X117300000Y-109220000D03*
G04 #@! TO.P,J1,9*
G04 #@! TO.N,/SEG_G*
X117300000Y-106680000D03*
G04 #@! TO.P,J1,8*
G04 #@! TO.N,/SEG_B*
X117300000Y-104140000D03*
G04 #@! TO.P,J1,7*
G04 #@! TO.N,/SEG_F*
X117300000Y-101600000D03*
G04 #@! TO.P,J1,6*
G04 #@! TO.N,/SEG_A*
X117300000Y-99060000D03*
G04 #@! TO.P,J1,5*
G04 #@! TO.N,Net-(J1-Pad5)*
X117300000Y-96520000D03*
G04 #@! TO.P,J1,4*
G04 #@! TO.N,GND*
X117300000Y-93980000D03*
G04 #@! TO.P,J1,3*
G04 #@! TO.N,Net-(J1-Pad3)*
X117300000Y-91440000D03*
G04 #@! TO.P,J1,2*
G04 #@! TO.N,Net-(D2-Pad1)*
X117300000Y-88900000D03*
D13*
G04 #@! TO.P,J1,1*
G04 #@! TO.N,Net-(D1-Pad1)*
X117300000Y-86360000D03*
G04 #@! TD*
D14*
G04 #@! TO.P,U1,8*
G04 #@! TO.N,/+25V*
X127974999Y-93865700D03*
G04 #@! TO.P,U1,7*
G04 #@! TO.N,GND*
X127325001Y-93865700D03*
G04 #@! TO.P,U1,6*
G04 #@! TO.N,Net-(U1-Pad6)*
X126674999Y-93865700D03*
G04 #@! TO.P,U1,5*
G04 #@! TO.N,Net-(U1-Pad5)*
X126025001Y-93865700D03*
G04 #@! TO.P,U1,4*
G04 #@! TO.N,Net-(U1-Pad4)*
X126025001Y-89522300D03*
G04 #@! TO.P,U1,3*
G04 #@! TO.N,Net-(U1-Pad3)*
X126674999Y-89522300D03*
G04 #@! TO.P,U1,2*
G04 #@! TO.N,Net-(U1-Pad2)*
X127325001Y-89522300D03*
G04 #@! TO.P,U1,1*
G04 #@! TO.N,+3V3*
X127974999Y-89522300D03*
G04 #@! TD*
D15*
G04 #@! TO.P,U3,28*
G04 #@! TO.N,/D2*
X127908050Y-97375000D03*
G04 #@! TO.P,U3,27*
G04 #@! TO.N,/D3*
X127908050Y-98025001D03*
G04 #@! TO.P,U3,26*
G04 #@! TO.N,/D4*
X127908050Y-98675000D03*
G04 #@! TO.P,U3,25*
G04 #@! TO.N,/D5*
X127908050Y-99325001D03*
G04 #@! TO.P,U3,24*
G04 #@! TO.N,/D6*
X127908050Y-99974999D03*
G04 #@! TO.P,U3,23*
G04 #@! TO.N,/LOAD*
X127908050Y-100625001D03*
G04 #@! TO.P,U3,22*
G04 #@! TO.N,/SCK*
X127908050Y-101274999D03*
G04 #@! TO.P,U3,21*
G04 #@! TO.N,GND*
X127908050Y-101925001D03*
G04 #@! TO.P,U3,20*
G04 #@! TO.N,/BLANK*
X127908050Y-102574999D03*
G04 #@! TO.P,U3,19*
G04 #@! TO.N,/D7*
X127908050Y-103225001D03*
G04 #@! TO.P,U3,18*
G04 #@! TO.N,/D8*
X127908050Y-103874999D03*
G04 #@! TO.P,U3,17*
G04 #@! TO.N,Net-(U3-Pad17)*
X127908050Y-104525000D03*
G04 #@! TO.P,U3,16*
G04 #@! TO.N,Net-(U3-Pad16)*
X127908050Y-105174999D03*
G04 #@! TO.P,U3,15*
G04 #@! TO.N,Net-(U3-Pad15)*
X127908050Y-105825000D03*
G04 #@! TO.P,U3,14*
G04 #@! TO.N,/SEG_DP*
X122027950Y-105824998D03*
G04 #@! TO.P,U3,13*
G04 #@! TO.N,/SEG_D*
X122027950Y-105174999D03*
G04 #@! TO.P,U3,12*
G04 #@! TO.N,/SEG_C*
X122027950Y-104524998D03*
G04 #@! TO.P,U3,11*
G04 #@! TO.N,/SEG_E*
X122027950Y-103874999D03*
G04 #@! TO.P,U3,10*
G04 #@! TO.N,/SEG_G*
X122027950Y-103224998D03*
G04 #@! TO.P,U3,9*
G04 #@! TO.N,Net-(U3-Pad9)*
X122027950Y-102574999D03*
G04 #@! TO.P,U3,8*
G04 #@! TO.N,/+25V*
X122027950Y-101924998D03*
G04 #@! TO.P,U3,7*
G04 #@! TO.N,+3V3*
X122027950Y-101274999D03*
G04 #@! TO.P,U3,6*
G04 #@! TO.N,/MOSI*
X122027950Y-100625001D03*
G04 #@! TO.P,U3,5*
G04 #@! TO.N,/SEG_B*
X122027950Y-99974999D03*
G04 #@! TO.P,U3,4*
G04 #@! TO.N,/SEG_F*
X122027950Y-99325001D03*
G04 #@! TO.P,U3,3*
G04 #@! TO.N,/SEG_A*
X122027950Y-98675000D03*
G04 #@! TO.P,U3,2*
G04 #@! TO.N,/D0*
X122027950Y-98025001D03*
G04 #@! TO.P,U3,1*
G04 #@! TO.N,/D1*
X122027950Y-97375000D03*
G04 #@! TD*
D16*
G04 #@! TO.P,U2,32*
G04 #@! TO.N,Net-(U2-Pad32)*
X128079500Y-118228550D03*
G04 #@! TO.P,U2,31*
G04 #@! TO.N,/LPUART2_TX*
X127190500Y-118228550D03*
G04 #@! TO.P,U2,30*
X126301500Y-118228550D03*
G04 #@! TO.P,U2,29*
G04 #@! TO.N,Net-(U2-Pad29)*
X125412500Y-118228550D03*
G04 #@! TO.P,U2,28*
G04 #@! TO.N,Net-(U2-Pad28)*
X124523500Y-118228550D03*
G04 #@! TO.P,U2,27*
G04 #@! TO.N,Net-(U2-Pad27)*
X123634500Y-118228550D03*
G04 #@! TO.P,U2,26*
G04 #@! TO.N,Net-(U2-Pad26)*
X122745500Y-118228550D03*
G04 #@! TO.P,U2,25*
G04 #@! TO.N,/SWCLK*
X121856500Y-118228550D03*
D17*
G04 #@! TO.P,U2,24*
G04 #@! TO.N,/SWDIO*
X120694450Y-117066500D03*
G04 #@! TO.P,U2,23*
G04 #@! TO.N,Net-(U2-Pad23)*
X120694450Y-116177500D03*
G04 #@! TO.P,U2,22*
G04 #@! TO.N,Net-(U2-Pad22)*
X120694450Y-115288500D03*
G04 #@! TO.P,U2,21*
G04 #@! TO.N,Net-(U2-Pad21)*
X120694450Y-114399500D03*
G04 #@! TO.P,U2,20*
G04 #@! TO.N,Net-(U2-Pad20)*
X120694450Y-113510500D03*
G04 #@! TO.P,U2,19*
G04 #@! TO.N,Net-(U2-Pad19)*
X120694450Y-112621500D03*
G04 #@! TO.P,U2,18*
G04 #@! TO.N,Net-(U2-Pad18)*
X120694450Y-111732500D03*
G04 #@! TO.P,U2,17*
G04 #@! TO.N,Net-(U2-Pad17)*
X120694450Y-110843500D03*
D16*
G04 #@! TO.P,U2,16*
G04 #@! TO.N,Net-(U2-Pad16)*
X121856500Y-109681450D03*
G04 #@! TO.P,U2,15*
G04 #@! TO.N,Net-(U2-Pad15)*
X122745500Y-109681450D03*
G04 #@! TO.P,U2,14*
G04 #@! TO.N,/MOSI*
X123634500Y-109681450D03*
G04 #@! TO.P,U2,13*
G04 #@! TO.N,/LOAD*
X124523500Y-109681450D03*
G04 #@! TO.P,U2,12*
G04 #@! TO.N,/SCK*
X125412500Y-109681450D03*
G04 #@! TO.P,U2,11*
G04 #@! TO.N,/BLANK*
X126301500Y-109681450D03*
G04 #@! TO.P,U2,10*
G04 #@! TO.N,Net-(U2-Pad10)*
X127190500Y-109681450D03*
G04 #@! TO.P,U2,9*
G04 #@! TO.N,Net-(U2-Pad9)*
X128079500Y-109681450D03*
D17*
G04 #@! TO.P,U2,8*
G04 #@! TO.N,/RKEY3*
X129241550Y-110843500D03*
G04 #@! TO.P,U2,7*
G04 #@! TO.N,/RKEY2*
X129241550Y-111732500D03*
G04 #@! TO.P,U2,6*
G04 #@! TO.N,/NRST*
X129241550Y-112621500D03*
G04 #@! TO.P,U2,5*
G04 #@! TO.N,GND*
X129241550Y-113510500D03*
G04 #@! TO.P,U2,4*
G04 #@! TO.N,+3V3*
X129241550Y-114399500D03*
G04 #@! TO.P,U2,3*
G04 #@! TO.N,Net-(U2-Pad3)*
X129241550Y-115288500D03*
G04 #@! TO.P,U2,2*
G04 #@! TO.N,Net-(U2-Pad2)*
X129241550Y-116177500D03*
G04 #@! TO.P,U2,1*
G04 #@! TO.N,/RKEY1*
X129241550Y-117066500D03*
G04 #@! TD*
D18*
G04 #@! TO.N,GND*
X118952000Y-87550000D03*
X130730000Y-92790000D03*
X130730000Y-97870000D03*
X130730000Y-102950000D03*
X123444000Y-106172000D03*
X123190000Y-115062000D03*
X123952000Y-96520000D03*
D19*
X127508000Y-95250000D03*
D18*
X127508000Y-112649000D03*
X129921000Y-88900000D03*
G04 #@! TO.N,+3V3*
X126492000Y-90733502D03*
X127416000Y-114300000D03*
X125862002Y-88110001D03*
X123444000Y-101092000D03*
D19*
G04 #@! TO.N,/+25V*
X124714000Y-94996000D03*
D18*
X123952000Y-101854000D03*
G04 #@! TO.N,/D1*
X124206000Y-87884000D03*
G04 #@! TO.N,/D0*
X124460000Y-92456000D03*
G04 #@! TO.N,/D8*
X125730000Y-105156000D03*
G04 #@! TO.N,/D7*
X125730000Y-102616000D03*
G04 #@! TO.N,/D6*
X125984000Y-100076000D03*
G04 #@! TO.N,/D5*
X125730000Y-97790000D03*
G04 #@! TO.N,/D4*
X126492000Y-95250000D03*
G04 #@! TO.N,/D3*
X129378000Y-92710000D03*
G04 #@! TO.N,/D2*
X125222000Y-87630000D03*
G04 #@! TO.N,/NRST*
X130810000Y-115570000D03*
G04 #@! TO.N,/SWDIO*
X119888000Y-118618000D03*
G04 #@! TO.N,/RKEY3*
X127508000Y-110998000D03*
G04 #@! TO.N,/RKEY2*
X126822004Y-111471000D03*
G04 #@! TO.N,/RKEY1*
X127254000Y-115570000D03*
G04 #@! TO.N,/LOAD*
X125222000Y-100584000D03*
X124714000Y-107442000D03*
G04 #@! TD*
D20*
G04 #@! TO.N,GND*
X129705001Y-101925001D02*
X130730000Y-102950000D01*
X127400050Y-101925001D02*
X128595001Y-101925001D01*
X127325001Y-95067001D02*
X127508000Y-95250000D01*
X127325001Y-93865700D02*
X127325001Y-95067001D01*
X129966000Y-88855000D02*
X129921000Y-88900000D01*
X129966000Y-87503000D02*
X129966000Y-88855000D01*
X127508000Y-113164400D02*
X127508000Y-112649000D01*
X127854100Y-113510500D02*
X127508000Y-113164400D01*
X129241550Y-113510500D02*
X127854100Y-113510500D01*
X128960999Y-101925001D02*
X129705001Y-101925001D01*
X128595001Y-101925001D02*
X128960999Y-101925001D01*
G04 #@! TO.N,+3V3*
X127674997Y-90733502D02*
X126492000Y-90733502D01*
X127974999Y-90433500D02*
X127674997Y-90733502D01*
X127974999Y-89522300D02*
X127974999Y-90433500D01*
X121519950Y-101274999D02*
X122279904Y-101274999D01*
X127974999Y-88137499D02*
X127213500Y-87376000D01*
X127974999Y-89522300D02*
X127974999Y-88137499D01*
X126596003Y-87376000D02*
X125862002Y-88110001D01*
X127213500Y-87376000D02*
X126596003Y-87376000D01*
X127515500Y-114399500D02*
X127416000Y-114300000D01*
X129241550Y-114399500D02*
X127515500Y-114399500D01*
X128634050Y-114300000D02*
X129241550Y-114399500D01*
X123261001Y-101274999D02*
X123444000Y-101092000D01*
X122027950Y-101274999D02*
X123261001Y-101274999D01*
D21*
G04 #@! TO.N,/+25V*
X127974999Y-92868596D02*
X127974999Y-93865700D01*
X127860902Y-92754499D02*
X127974999Y-92868596D01*
X125489100Y-92754499D02*
X127860902Y-92754499D01*
X124714000Y-93529599D02*
X125489100Y-92754499D01*
X124714000Y-94996000D02*
X124714000Y-93529599D01*
X123881002Y-101924998D02*
X123952000Y-101854000D01*
X122027950Y-101924998D02*
X123881002Y-101924998D01*
D20*
G04 #@! TO.N,/D1*
X121519950Y-97375000D02*
X122589000Y-97375000D01*
X124206000Y-91472702D02*
X124206000Y-87884000D01*
X120650000Y-95028702D02*
X124206000Y-91472702D01*
X120650000Y-97282000D02*
X120650000Y-95028702D01*
X120743000Y-97375000D02*
X120650000Y-97282000D01*
X122027950Y-97375000D02*
X120743000Y-97375000D01*
G04 #@! TO.N,/D0*
X121519950Y-98025001D02*
X122504698Y-98025001D01*
X123189999Y-93726001D02*
X124460000Y-92456000D01*
X123189999Y-97755102D02*
X123189999Y-93726001D01*
X122920100Y-98025001D02*
X123189999Y-97755102D01*
X122027950Y-98025001D02*
X122920100Y-98025001D01*
G04 #@! TO.N,/D8*
X126586737Y-103874999D02*
X127908050Y-103874999D01*
X125730000Y-104731736D02*
X126586737Y-103874999D01*
X125730000Y-105156000D02*
X125730000Y-104731736D01*
G04 #@! TO.N,/D7*
X126339001Y-103225001D02*
X125730000Y-102616000D01*
X127908050Y-103225001D02*
X126339001Y-103225001D01*
G04 #@! TO.N,/D6*
X126085001Y-99974999D02*
X125984000Y-100076000D01*
X127908050Y-99974999D02*
X126085001Y-99974999D01*
G04 #@! TO.N,/D5*
X126592202Y-99325001D02*
X127908050Y-99325001D01*
X125730000Y-98462799D02*
X126592202Y-99325001D01*
X125730000Y-97790000D02*
X125730000Y-98462799D01*
G04 #@! TO.N,/D4*
X126407899Y-95334101D02*
X126492000Y-95250000D01*
X126407899Y-98574999D02*
X126407899Y-95334101D01*
X126507900Y-98675000D02*
X126407899Y-98574999D01*
X127908050Y-98675000D02*
X126507900Y-98675000D01*
G04 #@! TO.N,/D3*
X129378001Y-92710001D02*
X129378000Y-92710000D01*
X129378001Y-97824001D02*
X129378001Y-92710001D01*
X127511050Y-98136001D02*
X129066001Y-98136001D01*
X129066001Y-98136001D02*
X129378001Y-97824001D01*
X127400050Y-98025001D02*
X127511050Y-98136001D01*
G04 #@! TO.N,/D2*
X127400050Y-97375000D02*
X128431000Y-97375000D01*
X128777999Y-97028001D02*
X128777999Y-91948001D01*
X128431000Y-97375000D02*
X128777999Y-97028001D01*
X128777999Y-91948001D02*
X128523998Y-91694000D01*
X128523998Y-91694000D02*
X125476000Y-91694000D01*
X125222000Y-91440000D02*
X125222000Y-87630000D01*
X125476000Y-91694000D02*
X125222000Y-91440000D01*
G04 #@! TO.N,/SEG_DP*
X117300000Y-116724001D02*
X117300000Y-116840000D01*
X118962001Y-115062000D02*
X117300000Y-116724001D01*
X118962001Y-110594497D02*
X118962001Y-115062000D01*
X119380000Y-110176498D02*
X118962001Y-110594497D01*
X119380000Y-108837095D02*
X119380000Y-110176498D01*
X120542010Y-107675085D02*
X119380000Y-108837095D01*
X120627800Y-105824998D02*
X120542010Y-105910788D01*
X120542010Y-105910788D02*
X120542010Y-107675085D01*
X122027950Y-105824998D02*
X120627800Y-105824998D01*
G04 #@! TO.N,/SEG_D*
X120631001Y-105174999D02*
X122027950Y-105174999D01*
X120142000Y-105664000D02*
X120631001Y-105174999D01*
X120142000Y-107509396D02*
X120142000Y-105664000D01*
X118872000Y-108779396D02*
X120142000Y-107509396D01*
X118872000Y-109982000D02*
X118872000Y-108779396D01*
X118364000Y-110490000D02*
X118872000Y-109982000D01*
X118368849Y-113231151D02*
X118364000Y-110490000D01*
X117300000Y-114300000D02*
X118368849Y-113231151D01*
G04 #@! TO.N,/SEG_C*
X117300000Y-110792000D02*
X117300000Y-111760000D01*
X118362001Y-109729999D02*
X117300000Y-110792000D01*
X118364000Y-108721698D02*
X118364000Y-108966000D01*
X119672020Y-105156000D02*
X119672020Y-107413679D01*
X118362001Y-108967999D02*
X118362001Y-109729999D01*
X118364000Y-108966000D02*
X118362001Y-108967999D01*
X120303022Y-104524998D02*
X119672020Y-105156000D01*
X119672020Y-107413679D02*
X118364000Y-108721698D01*
X122027950Y-104524998D02*
X120303022Y-104524998D01*
G04 #@! TO.N,/SEG_E*
X119272010Y-104755990D02*
X119272010Y-107247990D01*
X119272010Y-107247990D02*
X117300000Y-109220000D01*
X120142000Y-103886000D02*
X119272010Y-104755990D01*
X120904000Y-103886000D02*
X120142000Y-103886000D01*
X120915001Y-103874999D02*
X120904000Y-103886000D01*
X122027950Y-103874999D02*
X120915001Y-103874999D01*
G04 #@! TO.N,/SEG_G*
X118618000Y-106680000D02*
X117300000Y-106680000D01*
X118872000Y-104197699D02*
X118872000Y-106426000D01*
X119844701Y-103224998D02*
X118872000Y-104197699D01*
X118872000Y-106426000D02*
X118618000Y-106680000D01*
X122027950Y-103224998D02*
X119844701Y-103224998D01*
G04 #@! TO.N,/SEG_B*
X119380000Y-103124000D02*
X118364000Y-104140000D01*
X118364000Y-104140000D02*
X117300000Y-104140000D01*
X119380000Y-100584000D02*
X119380000Y-103124000D01*
X119989001Y-99974999D02*
X119380000Y-100584000D01*
X122027950Y-99974999D02*
X119989001Y-99974999D01*
G04 #@! TO.N,/SEG_F*
X118872000Y-101346000D02*
X118618000Y-101600000D01*
X118618000Y-101600000D02*
X117300000Y-101600000D01*
X118872000Y-99822000D02*
X118872000Y-101346000D01*
X119368999Y-99325001D02*
X118872000Y-99822000D01*
X122027950Y-99325001D02*
X119368999Y-99325001D01*
G04 #@! TO.N,/SEG_A*
X117685000Y-98675000D02*
X117300000Y-99060000D01*
X122027950Y-98675000D02*
X117685000Y-98675000D01*
G04 #@! TO.N,/NRST*
X129893500Y-112621500D02*
X128733550Y-112621500D01*
X130810000Y-113030000D02*
X129893500Y-112621500D01*
X130810000Y-115570000D02*
X130810000Y-113030000D01*
G04 #@! TO.N,/SWDIO*
X119126000Y-118110000D02*
X119634000Y-118618000D01*
X119126000Y-117348000D02*
X119126000Y-118110000D01*
X119407500Y-117066500D02*
X119126000Y-117348000D01*
X119634000Y-118618000D02*
X119888000Y-118618000D01*
X120694450Y-117066500D02*
X119407500Y-117066500D01*
G04 #@! TO.N,/SWCLK*
X120015000Y-121920000D02*
X120015000Y-122555000D01*
X120015000Y-120015000D02*
X120015000Y-122555000D01*
X120396000Y-119634000D02*
X120015000Y-120015000D01*
X121666000Y-119634000D02*
X120396000Y-119634000D01*
X121856500Y-119443500D02*
X121666000Y-119634000D01*
X121856500Y-118228550D02*
X121856500Y-119443500D01*
G04 #@! TO.N,/RKEY3*
X127662500Y-110843500D02*
X127508000Y-110998000D01*
X128733550Y-110843500D02*
X127662500Y-110843500D01*
G04 #@! TO.N,/RKEY2*
X127226500Y-111732500D02*
X126965000Y-111471000D01*
X126965000Y-111471000D02*
X126822004Y-111471000D01*
X129241550Y-111732500D02*
X127226500Y-111732500D01*
G04 #@! TO.N,/RKEY1*
X129241550Y-117066500D02*
X127734500Y-117066500D01*
X127254000Y-116586000D02*
X127254000Y-115570000D01*
X127734500Y-117066500D02*
X127254000Y-116586000D01*
G04 #@! TO.N,/MOSI*
X122279900Y-100625001D02*
X121519950Y-100625001D01*
X123605999Y-107153999D02*
X123605999Y-109652949D01*
X124714000Y-106045998D02*
X123605999Y-107153999D01*
X123605999Y-109652949D02*
X123634500Y-109681450D01*
X124714000Y-101473998D02*
X124714000Y-106045998D01*
X123732001Y-100491999D02*
X124714000Y-101473998D01*
X123155999Y-100491999D02*
X123732001Y-100491999D01*
X123022997Y-100625001D02*
X123155999Y-100491999D01*
X122027950Y-100625001D02*
X123022997Y-100625001D01*
G04 #@! TO.N,/LOAD*
X125314001Y-100676001D02*
X125222000Y-100584000D01*
X126272001Y-100676001D02*
X125314001Y-100676001D01*
X126323001Y-100625001D02*
X126272001Y-100676001D01*
X127908050Y-100625001D02*
X126323001Y-100625001D01*
X124523500Y-107759500D02*
X124523500Y-109681450D01*
X124714000Y-107442000D02*
X124523500Y-107759500D01*
G04 #@! TO.N,/SCK*
X126640100Y-101274999D02*
X127400050Y-101274999D01*
X126058721Y-101856378D02*
X126640100Y-101274999D01*
X125219622Y-101856378D02*
X126058721Y-101856378D01*
X125129999Y-105444001D02*
X125129999Y-101946001D01*
X125129999Y-101946001D02*
X125219622Y-101856378D01*
X125412500Y-105726502D02*
X125129999Y-105444001D01*
X125412500Y-109681450D02*
X125412500Y-105726502D01*
G04 #@! TO.N,/LPUART2_TX*
X127190500Y-119824500D02*
X127508000Y-120142000D01*
X127508000Y-120142000D02*
X129794000Y-120142000D01*
X130175000Y-120523000D02*
X130175000Y-122555000D01*
X129794000Y-120142000D02*
X130175000Y-120523000D01*
X127190500Y-119443500D02*
X126555500Y-119443500D01*
X127190500Y-118228550D02*
X127190500Y-119443500D01*
X127190500Y-119443500D02*
X127190500Y-119824500D01*
X126301500Y-119189500D02*
X126301500Y-118228550D01*
X126555500Y-119443500D02*
X126301500Y-119189500D01*
G04 #@! TO.N,/BLANK*
X126301500Y-107378500D02*
X126301500Y-109681450D01*
X126492000Y-107188000D02*
X126301500Y-107378500D01*
X129286000Y-107188000D02*
X126492000Y-107188000D01*
X129540000Y-106934000D02*
X129286000Y-107188000D01*
X129540000Y-102870000D02*
X129540000Y-106934000D01*
X129244999Y-102574999D02*
X129540000Y-102870000D01*
X127908050Y-102574999D02*
X129244999Y-102574999D01*
G04 #@! TD*
M02*
