M48
; DRILL file {KiCad 5.1.12-84ad8e8a86~92~ubuntu20.04.1} date 2022年01月11日 07時23分21秒
; FORMAT={3:3/ absolute / metric / suppress leading zeros}
; #@! TF.CreationDate,2022-01-11T07:23:21+09:00
; #@! TF.GenerationSoftware,Kicad,Pcbnew,5.1.12-84ad8e8a86~92~ubuntu20.04.1
FMAT,2
METRIC,TZ
T1C0.300
T2C0.500
T3C0.762
T4C0.813
T5C1.000
%
G90
G05
T1
X118952Y-87550
X119888Y-118618
X123190Y-115062
X123444Y-101092
X123444Y-106172
X123952Y-96520
X123952Y-101854
X124206Y-87884
X124460Y-92456
X124714Y-107442
X125222Y-87630
X125222Y-100584
X125730Y-97790
X125730Y-102616
X125730Y-105156
X125862Y-88110
X125984Y-100076
X126492Y-90734
X126492Y-95250
X126822Y-111471
X127254Y-115570
X127416Y-114300
X127508Y-110998
X127508Y-112649
X129378Y-92710
X129921Y-88900
X130730Y-92790
X130730Y-97870
X130730Y-102950
X130810Y-115570
T2
X124714Y-94996
X127508Y-95250
T3
X117300Y-86360
T4
X117300Y-88900
X117300Y-91440
X117300Y-93980
X117300Y-96520
X117300Y-99060
X117300Y-101600
X117300Y-104140
X117300Y-106680
X117300Y-109220
X117300Y-111760
X117300Y-114300
X117300Y-116840
X117300Y-119380
X132540Y-86360
X132540Y-88900
X132540Y-91440
X132540Y-93980
X132540Y-96520
X132540Y-99060
X132540Y-101600
X132540Y-104140
X132540Y-106680
X132540Y-109220
X132540Y-111760
X132540Y-114300
X132540Y-116840
X132540Y-119380
T5
X120015Y-122555
X122555Y-122555
X125095Y-122555
X127635Y-122555
X130175Y-122555
T0
M30
