G04 #@! TF.GenerationSoftware,KiCad,Pcbnew,5.1.12-84ad8e8a86~92~ubuntu20.04.1*
G04 #@! TF.CreationDate,2022-01-10T08:42:33+09:00*
G04 #@! TF.ProjectId,LI2026ODP,4c493230-3236-44f4-9450-2e6b69636164,rev?*
G04 #@! TF.SameCoordinates,Original*
G04 #@! TF.FileFunction,Copper,L3,Inr*
G04 #@! TF.FilePolarity,Positive*
%FSLAX46Y46*%
G04 Gerber Fmt 4.6, Leading zero omitted, Abs format (unit mm)*
G04 Created by KiCad (PCBNEW 5.1.12-84ad8e8a86~92~ubuntu20.04.1) date 2022-01-10 08:42:33*
%MOMM*%
%LPD*%
G01*
G04 APERTURE LIST*
G04 #@! TA.AperFunction,ComponentPad*
%ADD10O,1.700000X1.700000*%
G04 #@! TD*
G04 #@! TA.AperFunction,ComponentPad*
%ADD11R,1.700000X1.700000*%
G04 #@! TD*
G04 #@! TA.AperFunction,ComponentPad*
%ADD12C,1.524000*%
G04 #@! TD*
G04 #@! TA.AperFunction,ComponentPad*
%ADD13R,1.270000X1.270000*%
G04 #@! TD*
G04 #@! TA.AperFunction,ViaPad*
%ADD14C,0.600000*%
G04 #@! TD*
G04 #@! TA.AperFunction,ViaPad*
%ADD15C,0.800000*%
G04 #@! TD*
G04 #@! TA.AperFunction,Conductor*
%ADD16C,0.254000*%
G04 #@! TD*
G04 #@! TA.AperFunction,Conductor*
%ADD17C,0.100000*%
G04 #@! TD*
G04 APERTURE END LIST*
D10*
G04 #@! TO.N,/LPUART2_TX*
G04 #@! TO.C,J2*
X130175000Y-122555000D03*
G04 #@! TO.N,/NRST*
X127635000Y-122555000D03*
G04 #@! TO.N,/SWDIO*
X125095000Y-122555000D03*
G04 #@! TO.N,GND*
X122555000Y-122555000D03*
D11*
G04 #@! TO.N,/SWCLK*
X120015000Y-122555000D03*
G04 #@! TD*
D12*
G04 #@! TO.N,Net-(D9-Pad1)*
G04 #@! TO.C,J1*
X132540000Y-86360000D03*
G04 #@! TO.N,Net-(J1-Pad27)*
X132540000Y-88900000D03*
G04 #@! TO.N,Net-(D8-Pad1)*
X132540000Y-91440000D03*
G04 #@! TO.N,Net-(D7-Pad1)*
X132540000Y-93980000D03*
G04 #@! TO.N,Net-(D6-Pad1)*
X132540000Y-96520000D03*
G04 #@! TO.N,Net-(D5-Pad1)*
X132540000Y-99060000D03*
G04 #@! TO.N,Net-(D4-Pad1)*
X132540000Y-101600000D03*
G04 #@! TO.N,Net-(D3-Pad1)*
X132540000Y-104140000D03*
G04 #@! TO.N,Net-(J1-Pad20)*
X132540000Y-106680000D03*
G04 #@! TO.N,/KEY3*
X132540000Y-109220000D03*
G04 #@! TO.N,/KEY2*
X132540000Y-111760000D03*
G04 #@! TO.N,/KEY1*
X132540000Y-114300000D03*
G04 #@! TO.N,Net-(J1-Pad16)*
X132540000Y-116840000D03*
G04 #@! TO.N,Net-(J1-Pad15)*
X132540000Y-119380000D03*
G04 #@! TO.N,/+25V*
X117300000Y-119380000D03*
G04 #@! TO.N,/SEG_DP*
X117300000Y-116840000D03*
G04 #@! TO.N,/SEG_D*
X117300000Y-114300000D03*
G04 #@! TO.N,/SEG_C*
X117300000Y-111760000D03*
G04 #@! TO.N,/SEG_E*
X117300000Y-109220000D03*
G04 #@! TO.N,/SEG_G*
X117300000Y-106680000D03*
G04 #@! TO.N,/SEG_B*
X117300000Y-104140000D03*
G04 #@! TO.N,/SEG_F*
X117300000Y-101600000D03*
G04 #@! TO.N,/SEG_A*
X117300000Y-99060000D03*
G04 #@! TO.N,Net-(J1-Pad5)*
X117300000Y-96520000D03*
G04 #@! TO.N,GND*
X117300000Y-93980000D03*
G04 #@! TO.N,Net-(J1-Pad3)*
X117300000Y-91440000D03*
G04 #@! TO.N,Net-(D2-Pad1)*
X117300000Y-88900000D03*
D13*
G04 #@! TO.N,Net-(D1-Pad1)*
X117300000Y-86360000D03*
G04 #@! TD*
D14*
G04 #@! TO.N,GND*
X118952000Y-87550000D03*
X130730000Y-92790000D03*
X130730000Y-97870000D03*
X130730000Y-102950000D03*
X123444000Y-106172000D03*
X123190000Y-115062000D03*
X123952000Y-96520000D03*
D15*
X127508000Y-95250000D03*
D14*
X127508000Y-112649000D03*
X129921000Y-88900000D03*
G04 #@! TO.N,+3V3*
X126492000Y-90733502D03*
X127416000Y-114300000D03*
X125862002Y-88110001D03*
X123444000Y-101092000D03*
D15*
G04 #@! TO.N,/+25V*
X124714000Y-94996000D03*
D14*
X123952000Y-101854000D03*
G04 #@! TO.N,/D1*
X124206000Y-87884000D03*
G04 #@! TO.N,/D0*
X124460000Y-92456000D03*
G04 #@! TO.N,/D8*
X125730000Y-105156000D03*
G04 #@! TO.N,/D7*
X125730000Y-102616000D03*
G04 #@! TO.N,/D6*
X125984000Y-100076000D03*
G04 #@! TO.N,/D5*
X125730000Y-97790000D03*
G04 #@! TO.N,/D4*
X126492000Y-95250000D03*
G04 #@! TO.N,/D3*
X129378000Y-92710000D03*
G04 #@! TO.N,/D2*
X125222000Y-87630000D03*
G04 #@! TO.N,/NRST*
X130810000Y-115570000D03*
G04 #@! TO.N,/SWDIO*
X119888000Y-118618000D03*
G04 #@! TO.N,/RKEY3*
X127508000Y-110998000D03*
G04 #@! TO.N,/RKEY2*
X126822004Y-111471000D03*
G04 #@! TO.N,/RKEY1*
X127254000Y-115570000D03*
G04 #@! TO.N,/LOAD*
X125222000Y-100584000D03*
X124714000Y-107442000D03*
G04 #@! TD*
D16*
G04 #@! TO.N,+3V3*
X131649465Y-85274880D02*
X131454880Y-85469465D01*
X131301995Y-85698273D01*
X131196686Y-85952510D01*
X131143000Y-86222408D01*
X131143000Y-86497592D01*
X131196686Y-86767490D01*
X131301995Y-87021727D01*
X131454880Y-87250535D01*
X131649465Y-87445120D01*
X131878273Y-87598005D01*
X131955515Y-87630000D01*
X131878273Y-87661995D01*
X131649465Y-87814880D01*
X131454880Y-88009465D01*
X131301995Y-88238273D01*
X131196686Y-88492510D01*
X131143000Y-88762408D01*
X131143000Y-89037592D01*
X131196686Y-89307490D01*
X131301995Y-89561727D01*
X131454880Y-89790535D01*
X131649465Y-89985120D01*
X131878273Y-90138005D01*
X131955515Y-90170000D01*
X131878273Y-90201995D01*
X131649465Y-90354880D01*
X131454880Y-90549465D01*
X131301995Y-90778273D01*
X131196686Y-91032510D01*
X131143000Y-91302408D01*
X131143000Y-91577592D01*
X131196686Y-91847490D01*
X131271040Y-92026997D01*
X131172889Y-91961414D01*
X131002729Y-91890932D01*
X130822089Y-91855000D01*
X130637911Y-91855000D01*
X130457271Y-91890932D01*
X130287111Y-91961414D01*
X130133972Y-92063738D01*
X130094000Y-92103710D01*
X129974028Y-91983738D01*
X129820889Y-91881414D01*
X129650729Y-91810932D01*
X129470089Y-91775000D01*
X129285911Y-91775000D01*
X129105271Y-91810932D01*
X128935111Y-91881414D01*
X128781972Y-91983738D01*
X128651738Y-92113972D01*
X128549414Y-92267111D01*
X128478932Y-92437271D01*
X128443000Y-92617911D01*
X128443000Y-92802089D01*
X128478932Y-92982729D01*
X128549414Y-93152889D01*
X128651738Y-93306028D01*
X128781972Y-93436262D01*
X128935111Y-93538586D01*
X129105271Y-93609068D01*
X129285911Y-93645000D01*
X129470089Y-93645000D01*
X129650729Y-93609068D01*
X129820889Y-93538586D01*
X129974028Y-93436262D01*
X130014000Y-93396290D01*
X130133972Y-93516262D01*
X130287111Y-93618586D01*
X130457271Y-93689068D01*
X130637911Y-93725000D01*
X130822089Y-93725000D01*
X131002729Y-93689068D01*
X131172889Y-93618586D01*
X131189764Y-93607311D01*
X131143000Y-93842408D01*
X131143000Y-94117592D01*
X131196686Y-94387490D01*
X131301995Y-94641727D01*
X131454880Y-94870535D01*
X131649465Y-95065120D01*
X131878273Y-95218005D01*
X131955515Y-95250000D01*
X131878273Y-95281995D01*
X131649465Y-95434880D01*
X131454880Y-95629465D01*
X131301995Y-95858273D01*
X131196686Y-96112510D01*
X131143000Y-96382408D01*
X131143000Y-96657592D01*
X131196686Y-96927490D01*
X131271040Y-97106997D01*
X131172889Y-97041414D01*
X131002729Y-96970932D01*
X130822089Y-96935000D01*
X130637911Y-96935000D01*
X130457271Y-96970932D01*
X130287111Y-97041414D01*
X130133972Y-97143738D01*
X130003738Y-97273972D01*
X129901414Y-97427111D01*
X129830932Y-97597271D01*
X129795000Y-97777911D01*
X129795000Y-97962089D01*
X129830932Y-98142729D01*
X129901414Y-98312889D01*
X130003738Y-98466028D01*
X130133972Y-98596262D01*
X130287111Y-98698586D01*
X130457271Y-98769068D01*
X130637911Y-98805000D01*
X130822089Y-98805000D01*
X131002729Y-98769068D01*
X131172889Y-98698586D01*
X131189764Y-98687311D01*
X131143000Y-98922408D01*
X131143000Y-99197592D01*
X131196686Y-99467490D01*
X131301995Y-99721727D01*
X131454880Y-99950535D01*
X131649465Y-100145120D01*
X131878273Y-100298005D01*
X131955515Y-100330000D01*
X131878273Y-100361995D01*
X131649465Y-100514880D01*
X131454880Y-100709465D01*
X131301995Y-100938273D01*
X131196686Y-101192510D01*
X131143000Y-101462408D01*
X131143000Y-101737592D01*
X131196686Y-102007490D01*
X131271040Y-102186997D01*
X131172889Y-102121414D01*
X131002729Y-102050932D01*
X130822089Y-102015000D01*
X130637911Y-102015000D01*
X130457271Y-102050932D01*
X130287111Y-102121414D01*
X130133972Y-102223738D01*
X130003738Y-102353972D01*
X129901414Y-102507111D01*
X129830932Y-102677271D01*
X129795000Y-102857911D01*
X129795000Y-103042089D01*
X129830932Y-103222729D01*
X129901414Y-103392889D01*
X130003738Y-103546028D01*
X130133972Y-103676262D01*
X130287111Y-103778586D01*
X130457271Y-103849068D01*
X130637911Y-103885000D01*
X130822089Y-103885000D01*
X131002729Y-103849068D01*
X131172889Y-103778586D01*
X131189764Y-103767311D01*
X131143000Y-104002408D01*
X131143000Y-104277592D01*
X131196686Y-104547490D01*
X131301995Y-104801727D01*
X131454880Y-105030535D01*
X131649465Y-105225120D01*
X131878273Y-105378005D01*
X131955515Y-105410000D01*
X131878273Y-105441995D01*
X131649465Y-105594880D01*
X131454880Y-105789465D01*
X131301995Y-106018273D01*
X131196686Y-106272510D01*
X131143000Y-106542408D01*
X131143000Y-106817592D01*
X131196686Y-107087490D01*
X131301995Y-107341727D01*
X131454880Y-107570535D01*
X131649465Y-107765120D01*
X131878273Y-107918005D01*
X131955515Y-107950000D01*
X131878273Y-107981995D01*
X131649465Y-108134880D01*
X131454880Y-108329465D01*
X131301995Y-108558273D01*
X131196686Y-108812510D01*
X131143000Y-109082408D01*
X131143000Y-109357592D01*
X131196686Y-109627490D01*
X131301995Y-109881727D01*
X131454880Y-110110535D01*
X131649465Y-110305120D01*
X131878273Y-110458005D01*
X131955515Y-110490000D01*
X131878273Y-110521995D01*
X131649465Y-110674880D01*
X131454880Y-110869465D01*
X131301995Y-111098273D01*
X131196686Y-111352510D01*
X131143000Y-111622408D01*
X131143000Y-111897592D01*
X131196686Y-112167490D01*
X131301995Y-112421727D01*
X131454880Y-112650535D01*
X131649465Y-112845120D01*
X131878273Y-112998005D01*
X131955515Y-113030000D01*
X131878273Y-113061995D01*
X131649465Y-113214880D01*
X131454880Y-113409465D01*
X131301995Y-113638273D01*
X131196686Y-113892510D01*
X131143000Y-114162408D01*
X131143000Y-114437592D01*
X131196686Y-114707490D01*
X131202008Y-114720339D01*
X131082729Y-114670932D01*
X130902089Y-114635000D01*
X130717911Y-114635000D01*
X130537271Y-114670932D01*
X130367111Y-114741414D01*
X130213972Y-114843738D01*
X130083738Y-114973972D01*
X129981414Y-115127111D01*
X129910932Y-115297271D01*
X129875000Y-115477911D01*
X129875000Y-115662089D01*
X129910932Y-115842729D01*
X129981414Y-116012889D01*
X130083738Y-116166028D01*
X130213972Y-116296262D01*
X130367111Y-116398586D01*
X130537271Y-116469068D01*
X130717911Y-116505000D01*
X130902089Y-116505000D01*
X131082729Y-116469068D01*
X131202008Y-116419661D01*
X131196686Y-116432510D01*
X131143000Y-116702408D01*
X131143000Y-116977592D01*
X131196686Y-117247490D01*
X131301995Y-117501727D01*
X131454880Y-117730535D01*
X131649465Y-117925120D01*
X131878273Y-118078005D01*
X131955515Y-118110000D01*
X131878273Y-118141995D01*
X131649465Y-118294880D01*
X131454880Y-118489465D01*
X131301995Y-118718273D01*
X131196686Y-118972510D01*
X131143000Y-119242408D01*
X131143000Y-119517592D01*
X131196686Y-119787490D01*
X131301995Y-120041727D01*
X131454880Y-120270535D01*
X131649465Y-120465120D01*
X131878273Y-120618005D01*
X132132510Y-120723314D01*
X132402408Y-120777000D01*
X132677592Y-120777000D01*
X132947490Y-120723314D01*
X133201727Y-120618005D01*
X133430535Y-120465120D01*
X133625120Y-120270535D01*
X133706001Y-120149488D01*
X133706001Y-123800000D01*
X130984655Y-123800000D01*
X131121632Y-123708475D01*
X131328475Y-123501632D01*
X131490990Y-123258411D01*
X131602932Y-122988158D01*
X131660000Y-122701260D01*
X131660000Y-122408740D01*
X131602932Y-122121842D01*
X131490990Y-121851589D01*
X131328475Y-121608368D01*
X131121632Y-121401525D01*
X130878411Y-121239010D01*
X130608158Y-121127068D01*
X130321260Y-121070000D01*
X130028740Y-121070000D01*
X129741842Y-121127068D01*
X129471589Y-121239010D01*
X129228368Y-121401525D01*
X129021525Y-121608368D01*
X128905000Y-121782760D01*
X128788475Y-121608368D01*
X128581632Y-121401525D01*
X128338411Y-121239010D01*
X128068158Y-121127068D01*
X127781260Y-121070000D01*
X127488740Y-121070000D01*
X127201842Y-121127068D01*
X126931589Y-121239010D01*
X126688368Y-121401525D01*
X126481525Y-121608368D01*
X126365000Y-121782760D01*
X126248475Y-121608368D01*
X126041632Y-121401525D01*
X125798411Y-121239010D01*
X125528158Y-121127068D01*
X125241260Y-121070000D01*
X124948740Y-121070000D01*
X124661842Y-121127068D01*
X124391589Y-121239010D01*
X124148368Y-121401525D01*
X123941525Y-121608368D01*
X123825000Y-121782760D01*
X123708475Y-121608368D01*
X123501632Y-121401525D01*
X123258411Y-121239010D01*
X122988158Y-121127068D01*
X122701260Y-121070000D01*
X122408740Y-121070000D01*
X122121842Y-121127068D01*
X121851589Y-121239010D01*
X121608368Y-121401525D01*
X121476513Y-121533380D01*
X121454502Y-121460820D01*
X121395537Y-121350506D01*
X121316185Y-121253815D01*
X121219494Y-121174463D01*
X121109180Y-121115498D01*
X120989482Y-121079188D01*
X120865000Y-121066928D01*
X119165000Y-121066928D01*
X119040518Y-121079188D01*
X118920820Y-121115498D01*
X118810506Y-121174463D01*
X118713815Y-121253815D01*
X118634463Y-121350506D01*
X118575498Y-121460820D01*
X118539188Y-121580518D01*
X118526928Y-121705000D01*
X118526928Y-123405000D01*
X118539188Y-123529482D01*
X118575498Y-123649180D01*
X118634463Y-123759494D01*
X118667705Y-123800000D01*
X116230000Y-123800000D01*
X116230000Y-120285655D01*
X116409465Y-120465120D01*
X116638273Y-120618005D01*
X116892510Y-120723314D01*
X117162408Y-120777000D01*
X117437592Y-120777000D01*
X117707490Y-120723314D01*
X117961727Y-120618005D01*
X118190535Y-120465120D01*
X118385120Y-120270535D01*
X118538005Y-120041727D01*
X118643314Y-119787490D01*
X118697000Y-119517592D01*
X118697000Y-119242408D01*
X118643314Y-118972510D01*
X118538005Y-118718273D01*
X118409473Y-118525911D01*
X118953000Y-118525911D01*
X118953000Y-118710089D01*
X118988932Y-118890729D01*
X119059414Y-119060889D01*
X119161738Y-119214028D01*
X119291972Y-119344262D01*
X119445111Y-119446586D01*
X119615271Y-119517068D01*
X119795911Y-119553000D01*
X119980089Y-119553000D01*
X120160729Y-119517068D01*
X120330889Y-119446586D01*
X120484028Y-119344262D01*
X120614262Y-119214028D01*
X120716586Y-119060889D01*
X120787068Y-118890729D01*
X120823000Y-118710089D01*
X120823000Y-118525911D01*
X120787068Y-118345271D01*
X120716586Y-118175111D01*
X120614262Y-118021972D01*
X120484028Y-117891738D01*
X120330889Y-117789414D01*
X120160729Y-117718932D01*
X119980089Y-117683000D01*
X119795911Y-117683000D01*
X119615271Y-117718932D01*
X119445111Y-117789414D01*
X119291972Y-117891738D01*
X119161738Y-118021972D01*
X119059414Y-118175111D01*
X118988932Y-118345271D01*
X118953000Y-118525911D01*
X118409473Y-118525911D01*
X118385120Y-118489465D01*
X118190535Y-118294880D01*
X117961727Y-118141995D01*
X117884485Y-118110000D01*
X117961727Y-118078005D01*
X118190535Y-117925120D01*
X118385120Y-117730535D01*
X118538005Y-117501727D01*
X118643314Y-117247490D01*
X118697000Y-116977592D01*
X118697000Y-116702408D01*
X118643314Y-116432510D01*
X118538005Y-116178273D01*
X118385120Y-115949465D01*
X118190535Y-115754880D01*
X117961727Y-115601995D01*
X117884485Y-115570000D01*
X117961727Y-115538005D01*
X118190535Y-115385120D01*
X118385120Y-115190535D01*
X118532536Y-114969911D01*
X122255000Y-114969911D01*
X122255000Y-115154089D01*
X122290932Y-115334729D01*
X122361414Y-115504889D01*
X122463738Y-115658028D01*
X122593972Y-115788262D01*
X122747111Y-115890586D01*
X122917271Y-115961068D01*
X123097911Y-115997000D01*
X123282089Y-115997000D01*
X123462729Y-115961068D01*
X123632889Y-115890586D01*
X123786028Y-115788262D01*
X123916262Y-115658028D01*
X124018586Y-115504889D01*
X124029760Y-115477911D01*
X126319000Y-115477911D01*
X126319000Y-115662089D01*
X126354932Y-115842729D01*
X126425414Y-116012889D01*
X126527738Y-116166028D01*
X126657972Y-116296262D01*
X126811111Y-116398586D01*
X126981271Y-116469068D01*
X127161911Y-116505000D01*
X127346089Y-116505000D01*
X127526729Y-116469068D01*
X127696889Y-116398586D01*
X127850028Y-116296262D01*
X127980262Y-116166028D01*
X128082586Y-116012889D01*
X128153068Y-115842729D01*
X128189000Y-115662089D01*
X128189000Y-115477911D01*
X128153068Y-115297271D01*
X128082586Y-115127111D01*
X127980262Y-114973972D01*
X127850028Y-114843738D01*
X127696889Y-114741414D01*
X127526729Y-114670932D01*
X127346089Y-114635000D01*
X127161911Y-114635000D01*
X126981271Y-114670932D01*
X126811111Y-114741414D01*
X126657972Y-114843738D01*
X126527738Y-114973972D01*
X126425414Y-115127111D01*
X126354932Y-115297271D01*
X126319000Y-115477911D01*
X124029760Y-115477911D01*
X124089068Y-115334729D01*
X124125000Y-115154089D01*
X124125000Y-114969911D01*
X124089068Y-114789271D01*
X124018586Y-114619111D01*
X123916262Y-114465972D01*
X123786028Y-114335738D01*
X123632889Y-114233414D01*
X123462729Y-114162932D01*
X123282089Y-114127000D01*
X123097911Y-114127000D01*
X122917271Y-114162932D01*
X122747111Y-114233414D01*
X122593972Y-114335738D01*
X122463738Y-114465972D01*
X122361414Y-114619111D01*
X122290932Y-114789271D01*
X122255000Y-114969911D01*
X118532536Y-114969911D01*
X118538005Y-114961727D01*
X118643314Y-114707490D01*
X118697000Y-114437592D01*
X118697000Y-114162408D01*
X118643314Y-113892510D01*
X118538005Y-113638273D01*
X118385120Y-113409465D01*
X118190535Y-113214880D01*
X117961727Y-113061995D01*
X117884485Y-113030000D01*
X117961727Y-112998005D01*
X118190535Y-112845120D01*
X118385120Y-112650535D01*
X118538005Y-112421727D01*
X118643314Y-112167490D01*
X118697000Y-111897592D01*
X118697000Y-111622408D01*
X118648566Y-111378911D01*
X125887004Y-111378911D01*
X125887004Y-111563089D01*
X125922936Y-111743729D01*
X125993418Y-111913889D01*
X126095742Y-112067028D01*
X126225976Y-112197262D01*
X126379115Y-112299586D01*
X126549275Y-112370068D01*
X126607848Y-112381719D01*
X126573000Y-112556911D01*
X126573000Y-112741089D01*
X126608932Y-112921729D01*
X126679414Y-113091889D01*
X126781738Y-113245028D01*
X126911972Y-113375262D01*
X127065111Y-113477586D01*
X127235271Y-113548068D01*
X127415911Y-113584000D01*
X127600089Y-113584000D01*
X127780729Y-113548068D01*
X127950889Y-113477586D01*
X128104028Y-113375262D01*
X128234262Y-113245028D01*
X128336586Y-113091889D01*
X128407068Y-112921729D01*
X128443000Y-112741089D01*
X128443000Y-112556911D01*
X128407068Y-112376271D01*
X128336586Y-112206111D01*
X128234262Y-112052972D01*
X128104028Y-111922738D01*
X127955508Y-111823500D01*
X128104028Y-111724262D01*
X128234262Y-111594028D01*
X128336586Y-111440889D01*
X128407068Y-111270729D01*
X128443000Y-111090089D01*
X128443000Y-110905911D01*
X128407068Y-110725271D01*
X128336586Y-110555111D01*
X128234262Y-110401972D01*
X128104028Y-110271738D01*
X127950889Y-110169414D01*
X127780729Y-110098932D01*
X127600089Y-110063000D01*
X127415911Y-110063000D01*
X127235271Y-110098932D01*
X127065111Y-110169414D01*
X126911972Y-110271738D01*
X126781738Y-110401972D01*
X126686400Y-110544656D01*
X126549275Y-110571932D01*
X126379115Y-110642414D01*
X126225976Y-110744738D01*
X126095742Y-110874972D01*
X125993418Y-111028111D01*
X125922936Y-111198271D01*
X125887004Y-111378911D01*
X118648566Y-111378911D01*
X118643314Y-111352510D01*
X118538005Y-111098273D01*
X118385120Y-110869465D01*
X118190535Y-110674880D01*
X117961727Y-110521995D01*
X117884485Y-110490000D01*
X117961727Y-110458005D01*
X118190535Y-110305120D01*
X118385120Y-110110535D01*
X118538005Y-109881727D01*
X118643314Y-109627490D01*
X118697000Y-109357592D01*
X118697000Y-109082408D01*
X118643314Y-108812510D01*
X118538005Y-108558273D01*
X118385120Y-108329465D01*
X118190535Y-108134880D01*
X117961727Y-107981995D01*
X117884485Y-107950000D01*
X117961727Y-107918005D01*
X118190535Y-107765120D01*
X118385120Y-107570535D01*
X118538005Y-107341727D01*
X118643314Y-107087490D01*
X118697000Y-106817592D01*
X118697000Y-106542408D01*
X118643314Y-106272510D01*
X118563537Y-106079911D01*
X122509000Y-106079911D01*
X122509000Y-106264089D01*
X122544932Y-106444729D01*
X122615414Y-106614889D01*
X122717738Y-106768028D01*
X122847972Y-106898262D01*
X123001111Y-107000586D01*
X123171271Y-107071068D01*
X123351911Y-107107000D01*
X123536089Y-107107000D01*
X123716729Y-107071068D01*
X123884371Y-107001629D01*
X123814932Y-107169271D01*
X123779000Y-107349911D01*
X123779000Y-107534089D01*
X123814932Y-107714729D01*
X123885414Y-107884889D01*
X123987738Y-108038028D01*
X124117972Y-108168262D01*
X124271111Y-108270586D01*
X124441271Y-108341068D01*
X124621911Y-108377000D01*
X124806089Y-108377000D01*
X124986729Y-108341068D01*
X125156889Y-108270586D01*
X125310028Y-108168262D01*
X125440262Y-108038028D01*
X125542586Y-107884889D01*
X125613068Y-107714729D01*
X125649000Y-107534089D01*
X125649000Y-107349911D01*
X125613068Y-107169271D01*
X125542586Y-106999111D01*
X125440262Y-106845972D01*
X125310028Y-106715738D01*
X125156889Y-106613414D01*
X124986729Y-106542932D01*
X124806089Y-106507000D01*
X124621911Y-106507000D01*
X124441271Y-106542932D01*
X124273629Y-106612371D01*
X124343068Y-106444729D01*
X124379000Y-106264089D01*
X124379000Y-106079911D01*
X124343068Y-105899271D01*
X124272586Y-105729111D01*
X124170262Y-105575972D01*
X124040028Y-105445738D01*
X123886889Y-105343414D01*
X123716729Y-105272932D01*
X123536089Y-105237000D01*
X123351911Y-105237000D01*
X123171271Y-105272932D01*
X123001111Y-105343414D01*
X122847972Y-105445738D01*
X122717738Y-105575972D01*
X122615414Y-105729111D01*
X122544932Y-105899271D01*
X122509000Y-106079911D01*
X118563537Y-106079911D01*
X118538005Y-106018273D01*
X118385120Y-105789465D01*
X118190535Y-105594880D01*
X117961727Y-105441995D01*
X117884485Y-105410000D01*
X117961727Y-105378005D01*
X118190535Y-105225120D01*
X118351744Y-105063911D01*
X124795000Y-105063911D01*
X124795000Y-105248089D01*
X124830932Y-105428729D01*
X124901414Y-105598889D01*
X125003738Y-105752028D01*
X125133972Y-105882262D01*
X125287111Y-105984586D01*
X125457271Y-106055068D01*
X125637911Y-106091000D01*
X125822089Y-106091000D01*
X126002729Y-106055068D01*
X126172889Y-105984586D01*
X126326028Y-105882262D01*
X126456262Y-105752028D01*
X126558586Y-105598889D01*
X126629068Y-105428729D01*
X126665000Y-105248089D01*
X126665000Y-105063911D01*
X126629068Y-104883271D01*
X126558586Y-104713111D01*
X126456262Y-104559972D01*
X126326028Y-104429738D01*
X126172889Y-104327414D01*
X126002729Y-104256932D01*
X125822089Y-104221000D01*
X125637911Y-104221000D01*
X125457271Y-104256932D01*
X125287111Y-104327414D01*
X125133972Y-104429738D01*
X125003738Y-104559972D01*
X124901414Y-104713111D01*
X124830932Y-104883271D01*
X124795000Y-105063911D01*
X118351744Y-105063911D01*
X118385120Y-105030535D01*
X118538005Y-104801727D01*
X118643314Y-104547490D01*
X118697000Y-104277592D01*
X118697000Y-104002408D01*
X118643314Y-103732510D01*
X118538005Y-103478273D01*
X118385120Y-103249465D01*
X118190535Y-103054880D01*
X117961727Y-102901995D01*
X117884485Y-102870000D01*
X117961727Y-102838005D01*
X118190535Y-102685120D01*
X118385120Y-102490535D01*
X118538005Y-102261727D01*
X118643314Y-102007490D01*
X118692162Y-101761911D01*
X123017000Y-101761911D01*
X123017000Y-101946089D01*
X123052932Y-102126729D01*
X123123414Y-102296889D01*
X123225738Y-102450028D01*
X123355972Y-102580262D01*
X123509111Y-102682586D01*
X123679271Y-102753068D01*
X123859911Y-102789000D01*
X124044089Y-102789000D01*
X124224729Y-102753068D01*
X124394889Y-102682586D01*
X124548028Y-102580262D01*
X124604379Y-102523911D01*
X124795000Y-102523911D01*
X124795000Y-102708089D01*
X124830932Y-102888729D01*
X124901414Y-103058889D01*
X125003738Y-103212028D01*
X125133972Y-103342262D01*
X125287111Y-103444586D01*
X125457271Y-103515068D01*
X125637911Y-103551000D01*
X125822089Y-103551000D01*
X126002729Y-103515068D01*
X126172889Y-103444586D01*
X126326028Y-103342262D01*
X126456262Y-103212028D01*
X126558586Y-103058889D01*
X126629068Y-102888729D01*
X126665000Y-102708089D01*
X126665000Y-102523911D01*
X126629068Y-102343271D01*
X126558586Y-102173111D01*
X126456262Y-102019972D01*
X126326028Y-101889738D01*
X126172889Y-101787414D01*
X126002729Y-101716932D01*
X125822089Y-101681000D01*
X125637911Y-101681000D01*
X125457271Y-101716932D01*
X125287111Y-101787414D01*
X125133972Y-101889738D01*
X125003738Y-102019972D01*
X124901414Y-102173111D01*
X124830932Y-102343271D01*
X124795000Y-102523911D01*
X124604379Y-102523911D01*
X124678262Y-102450028D01*
X124780586Y-102296889D01*
X124851068Y-102126729D01*
X124887000Y-101946089D01*
X124887000Y-101761911D01*
X124851068Y-101581271D01*
X124781629Y-101413629D01*
X124949271Y-101483068D01*
X125129911Y-101519000D01*
X125314089Y-101519000D01*
X125494729Y-101483068D01*
X125664889Y-101412586D01*
X125818028Y-101310262D01*
X125948262Y-101180028D01*
X126050586Y-101026889D01*
X126057167Y-101011000D01*
X126076089Y-101011000D01*
X126256729Y-100975068D01*
X126426889Y-100904586D01*
X126580028Y-100802262D01*
X126710262Y-100672028D01*
X126812586Y-100518889D01*
X126883068Y-100348729D01*
X126919000Y-100168089D01*
X126919000Y-99983911D01*
X126883068Y-99803271D01*
X126812586Y-99633111D01*
X126710262Y-99479972D01*
X126580028Y-99349738D01*
X126426889Y-99247414D01*
X126256729Y-99176932D01*
X126076089Y-99141000D01*
X125891911Y-99141000D01*
X125711271Y-99176932D01*
X125541111Y-99247414D01*
X125387972Y-99349738D01*
X125257738Y-99479972D01*
X125155414Y-99633111D01*
X125148833Y-99649000D01*
X125129911Y-99649000D01*
X124949271Y-99684932D01*
X124779111Y-99755414D01*
X124625972Y-99857738D01*
X124495738Y-99987972D01*
X124393414Y-100141111D01*
X124322932Y-100311271D01*
X124287000Y-100491911D01*
X124287000Y-100676089D01*
X124322932Y-100856729D01*
X124392371Y-101024371D01*
X124224729Y-100954932D01*
X124044089Y-100919000D01*
X123859911Y-100919000D01*
X123679271Y-100954932D01*
X123509111Y-101025414D01*
X123355972Y-101127738D01*
X123225738Y-101257972D01*
X123123414Y-101411111D01*
X123052932Y-101581271D01*
X123017000Y-101761911D01*
X118692162Y-101761911D01*
X118697000Y-101737592D01*
X118697000Y-101462408D01*
X118643314Y-101192510D01*
X118538005Y-100938273D01*
X118385120Y-100709465D01*
X118190535Y-100514880D01*
X117961727Y-100361995D01*
X117884485Y-100330000D01*
X117961727Y-100298005D01*
X118190535Y-100145120D01*
X118385120Y-99950535D01*
X118538005Y-99721727D01*
X118643314Y-99467490D01*
X118697000Y-99197592D01*
X118697000Y-98922408D01*
X118643314Y-98652510D01*
X118538005Y-98398273D01*
X118385120Y-98169465D01*
X118190535Y-97974880D01*
X117961727Y-97821995D01*
X117884485Y-97790000D01*
X117961727Y-97758005D01*
X118051663Y-97697911D01*
X124795000Y-97697911D01*
X124795000Y-97882089D01*
X124830932Y-98062729D01*
X124901414Y-98232889D01*
X125003738Y-98386028D01*
X125133972Y-98516262D01*
X125287111Y-98618586D01*
X125457271Y-98689068D01*
X125637911Y-98725000D01*
X125822089Y-98725000D01*
X126002729Y-98689068D01*
X126172889Y-98618586D01*
X126326028Y-98516262D01*
X126456262Y-98386028D01*
X126558586Y-98232889D01*
X126629068Y-98062729D01*
X126665000Y-97882089D01*
X126665000Y-97697911D01*
X126629068Y-97517271D01*
X126558586Y-97347111D01*
X126456262Y-97193972D01*
X126326028Y-97063738D01*
X126172889Y-96961414D01*
X126002729Y-96890932D01*
X125822089Y-96855000D01*
X125637911Y-96855000D01*
X125457271Y-96890932D01*
X125287111Y-96961414D01*
X125133972Y-97063738D01*
X125003738Y-97193972D01*
X124901414Y-97347111D01*
X124830932Y-97517271D01*
X124795000Y-97697911D01*
X118051663Y-97697911D01*
X118190535Y-97605120D01*
X118385120Y-97410535D01*
X118538005Y-97181727D01*
X118643314Y-96927490D01*
X118697000Y-96657592D01*
X118697000Y-96427911D01*
X123017000Y-96427911D01*
X123017000Y-96612089D01*
X123052932Y-96792729D01*
X123123414Y-96962889D01*
X123225738Y-97116028D01*
X123355972Y-97246262D01*
X123509111Y-97348586D01*
X123679271Y-97419068D01*
X123859911Y-97455000D01*
X124044089Y-97455000D01*
X124224729Y-97419068D01*
X124394889Y-97348586D01*
X124548028Y-97246262D01*
X124678262Y-97116028D01*
X124780586Y-96962889D01*
X124851068Y-96792729D01*
X124887000Y-96612089D01*
X124887000Y-96427911D01*
X124851068Y-96247271D01*
X124780586Y-96077111D01*
X124749776Y-96031000D01*
X124815939Y-96031000D01*
X125015898Y-95991226D01*
X125204256Y-95913205D01*
X125373774Y-95799937D01*
X125517937Y-95655774D01*
X125598252Y-95535573D01*
X125663414Y-95692889D01*
X125765738Y-95846028D01*
X125895972Y-95976262D01*
X126049111Y-96078586D01*
X126219271Y-96149068D01*
X126399911Y-96185000D01*
X126584089Y-96185000D01*
X126764729Y-96149068D01*
X126904163Y-96091313D01*
X127017744Y-96167205D01*
X127206102Y-96245226D01*
X127406061Y-96285000D01*
X127609939Y-96285000D01*
X127809898Y-96245226D01*
X127998256Y-96167205D01*
X128167774Y-96053937D01*
X128311937Y-95909774D01*
X128425205Y-95740256D01*
X128503226Y-95551898D01*
X128543000Y-95351939D01*
X128543000Y-95148061D01*
X128503226Y-94948102D01*
X128425205Y-94759744D01*
X128311937Y-94590226D01*
X128167774Y-94446063D01*
X127998256Y-94332795D01*
X127809898Y-94254774D01*
X127609939Y-94215000D01*
X127406061Y-94215000D01*
X127206102Y-94254774D01*
X127017744Y-94332795D01*
X126904163Y-94408687D01*
X126764729Y-94350932D01*
X126584089Y-94315000D01*
X126399911Y-94315000D01*
X126219271Y-94350932D01*
X126049111Y-94421414D01*
X125895972Y-94523738D01*
X125765738Y-94653972D01*
X125716039Y-94728352D01*
X125709226Y-94694102D01*
X125631205Y-94505744D01*
X125517937Y-94336226D01*
X125373774Y-94192063D01*
X125204256Y-94078795D01*
X125015898Y-94000774D01*
X124815939Y-93961000D01*
X124612061Y-93961000D01*
X124412102Y-94000774D01*
X124223744Y-94078795D01*
X124054226Y-94192063D01*
X123910063Y-94336226D01*
X123796795Y-94505744D01*
X123718774Y-94694102D01*
X123679000Y-94894061D01*
X123679000Y-95097939D01*
X123718774Y-95297898D01*
X123796795Y-95486256D01*
X123862773Y-95585000D01*
X123859911Y-95585000D01*
X123679271Y-95620932D01*
X123509111Y-95691414D01*
X123355972Y-95793738D01*
X123225738Y-95923972D01*
X123123414Y-96077111D01*
X123052932Y-96247271D01*
X123017000Y-96427911D01*
X118697000Y-96427911D01*
X118697000Y-96382408D01*
X118643314Y-96112510D01*
X118538005Y-95858273D01*
X118385120Y-95629465D01*
X118190535Y-95434880D01*
X117961727Y-95281995D01*
X117884485Y-95250000D01*
X117961727Y-95218005D01*
X118190535Y-95065120D01*
X118385120Y-94870535D01*
X118538005Y-94641727D01*
X118643314Y-94387490D01*
X118697000Y-94117592D01*
X118697000Y-93842408D01*
X118643314Y-93572510D01*
X118538005Y-93318273D01*
X118385120Y-93089465D01*
X118190535Y-92894880D01*
X117961727Y-92741995D01*
X117884485Y-92710000D01*
X117961727Y-92678005D01*
X118190535Y-92525120D01*
X118351744Y-92363911D01*
X123525000Y-92363911D01*
X123525000Y-92548089D01*
X123560932Y-92728729D01*
X123631414Y-92898889D01*
X123733738Y-93052028D01*
X123863972Y-93182262D01*
X124017111Y-93284586D01*
X124187271Y-93355068D01*
X124367911Y-93391000D01*
X124552089Y-93391000D01*
X124732729Y-93355068D01*
X124902889Y-93284586D01*
X125056028Y-93182262D01*
X125186262Y-93052028D01*
X125288586Y-92898889D01*
X125359068Y-92728729D01*
X125395000Y-92548089D01*
X125395000Y-92363911D01*
X125359068Y-92183271D01*
X125288586Y-92013111D01*
X125186262Y-91859972D01*
X125056028Y-91729738D01*
X124902889Y-91627414D01*
X124732729Y-91556932D01*
X124552089Y-91521000D01*
X124367911Y-91521000D01*
X124187271Y-91556932D01*
X124017111Y-91627414D01*
X123863972Y-91729738D01*
X123733738Y-91859972D01*
X123631414Y-92013111D01*
X123560932Y-92183271D01*
X123525000Y-92363911D01*
X118351744Y-92363911D01*
X118385120Y-92330535D01*
X118538005Y-92101727D01*
X118643314Y-91847490D01*
X118697000Y-91577592D01*
X118697000Y-91302408D01*
X118643314Y-91032510D01*
X118538005Y-90778273D01*
X118385120Y-90549465D01*
X118190535Y-90354880D01*
X117961727Y-90201995D01*
X117884485Y-90170000D01*
X117961727Y-90138005D01*
X118190535Y-89985120D01*
X118385120Y-89790535D01*
X118538005Y-89561727D01*
X118643314Y-89307490D01*
X118697000Y-89037592D01*
X118697000Y-88762408D01*
X118643314Y-88492510D01*
X118614146Y-88422093D01*
X118679271Y-88449068D01*
X118859911Y-88485000D01*
X119044089Y-88485000D01*
X119224729Y-88449068D01*
X119394889Y-88378586D01*
X119548028Y-88276262D01*
X119678262Y-88146028D01*
X119780586Y-87992889D01*
X119851068Y-87822729D01*
X119857198Y-87791911D01*
X123271000Y-87791911D01*
X123271000Y-87976089D01*
X123306932Y-88156729D01*
X123377414Y-88326889D01*
X123479738Y-88480028D01*
X123609972Y-88610262D01*
X123763111Y-88712586D01*
X123933271Y-88783068D01*
X124113911Y-88819000D01*
X124298089Y-88819000D01*
X124353836Y-88807911D01*
X128986000Y-88807911D01*
X128986000Y-88992089D01*
X129021932Y-89172729D01*
X129092414Y-89342889D01*
X129194738Y-89496028D01*
X129324972Y-89626262D01*
X129478111Y-89728586D01*
X129648271Y-89799068D01*
X129828911Y-89835000D01*
X130013089Y-89835000D01*
X130193729Y-89799068D01*
X130363889Y-89728586D01*
X130517028Y-89626262D01*
X130647262Y-89496028D01*
X130749586Y-89342889D01*
X130820068Y-89172729D01*
X130856000Y-88992089D01*
X130856000Y-88807911D01*
X130820068Y-88627271D01*
X130749586Y-88457111D01*
X130647262Y-88303972D01*
X130517028Y-88173738D01*
X130363889Y-88071414D01*
X130193729Y-88000932D01*
X130013089Y-87965000D01*
X129828911Y-87965000D01*
X129648271Y-88000932D01*
X129478111Y-88071414D01*
X129324972Y-88173738D01*
X129194738Y-88303972D01*
X129092414Y-88457111D01*
X129021932Y-88627271D01*
X128986000Y-88807911D01*
X124353836Y-88807911D01*
X124478729Y-88783068D01*
X124648889Y-88712586D01*
X124802028Y-88610262D01*
X124902567Y-88509723D01*
X124949271Y-88529068D01*
X125129911Y-88565000D01*
X125314089Y-88565000D01*
X125494729Y-88529068D01*
X125664889Y-88458586D01*
X125818028Y-88356262D01*
X125948262Y-88226028D01*
X126050586Y-88072889D01*
X126121068Y-87902729D01*
X126157000Y-87722089D01*
X126157000Y-87537911D01*
X126121068Y-87357271D01*
X126050586Y-87187111D01*
X125948262Y-87033972D01*
X125818028Y-86903738D01*
X125664889Y-86801414D01*
X125494729Y-86730932D01*
X125314089Y-86695000D01*
X125129911Y-86695000D01*
X124949271Y-86730932D01*
X124779111Y-86801414D01*
X124625972Y-86903738D01*
X124525433Y-87004277D01*
X124478729Y-86984932D01*
X124298089Y-86949000D01*
X124113911Y-86949000D01*
X123933271Y-86984932D01*
X123763111Y-87055414D01*
X123609972Y-87157738D01*
X123479738Y-87287972D01*
X123377414Y-87441111D01*
X123306932Y-87611271D01*
X123271000Y-87791911D01*
X119857198Y-87791911D01*
X119887000Y-87642089D01*
X119887000Y-87457911D01*
X119851068Y-87277271D01*
X119780586Y-87107111D01*
X119678262Y-86953972D01*
X119548028Y-86823738D01*
X119394889Y-86721414D01*
X119224729Y-86650932D01*
X119044089Y-86615000D01*
X118859911Y-86615000D01*
X118679271Y-86650932D01*
X118573072Y-86694921D01*
X118573072Y-85725000D01*
X118560812Y-85600518D01*
X118524502Y-85480820D01*
X118465537Y-85370506D01*
X118386185Y-85273815D01*
X118347418Y-85242000D01*
X131698673Y-85242000D01*
X131649465Y-85274880D01*
G04 #@! TA.AperFunction,Conductor*
D17*
G36*
X131649465Y-85274880D02*
G01*
X131454880Y-85469465D01*
X131301995Y-85698273D01*
X131196686Y-85952510D01*
X131143000Y-86222408D01*
X131143000Y-86497592D01*
X131196686Y-86767490D01*
X131301995Y-87021727D01*
X131454880Y-87250535D01*
X131649465Y-87445120D01*
X131878273Y-87598005D01*
X131955515Y-87630000D01*
X131878273Y-87661995D01*
X131649465Y-87814880D01*
X131454880Y-88009465D01*
X131301995Y-88238273D01*
X131196686Y-88492510D01*
X131143000Y-88762408D01*
X131143000Y-89037592D01*
X131196686Y-89307490D01*
X131301995Y-89561727D01*
X131454880Y-89790535D01*
X131649465Y-89985120D01*
X131878273Y-90138005D01*
X131955515Y-90170000D01*
X131878273Y-90201995D01*
X131649465Y-90354880D01*
X131454880Y-90549465D01*
X131301995Y-90778273D01*
X131196686Y-91032510D01*
X131143000Y-91302408D01*
X131143000Y-91577592D01*
X131196686Y-91847490D01*
X131271040Y-92026997D01*
X131172889Y-91961414D01*
X131002729Y-91890932D01*
X130822089Y-91855000D01*
X130637911Y-91855000D01*
X130457271Y-91890932D01*
X130287111Y-91961414D01*
X130133972Y-92063738D01*
X130094000Y-92103710D01*
X129974028Y-91983738D01*
X129820889Y-91881414D01*
X129650729Y-91810932D01*
X129470089Y-91775000D01*
X129285911Y-91775000D01*
X129105271Y-91810932D01*
X128935111Y-91881414D01*
X128781972Y-91983738D01*
X128651738Y-92113972D01*
X128549414Y-92267111D01*
X128478932Y-92437271D01*
X128443000Y-92617911D01*
X128443000Y-92802089D01*
X128478932Y-92982729D01*
X128549414Y-93152889D01*
X128651738Y-93306028D01*
X128781972Y-93436262D01*
X128935111Y-93538586D01*
X129105271Y-93609068D01*
X129285911Y-93645000D01*
X129470089Y-93645000D01*
X129650729Y-93609068D01*
X129820889Y-93538586D01*
X129974028Y-93436262D01*
X130014000Y-93396290D01*
X130133972Y-93516262D01*
X130287111Y-93618586D01*
X130457271Y-93689068D01*
X130637911Y-93725000D01*
X130822089Y-93725000D01*
X131002729Y-93689068D01*
X131172889Y-93618586D01*
X131189764Y-93607311D01*
X131143000Y-93842408D01*
X131143000Y-94117592D01*
X131196686Y-94387490D01*
X131301995Y-94641727D01*
X131454880Y-94870535D01*
X131649465Y-95065120D01*
X131878273Y-95218005D01*
X131955515Y-95250000D01*
X131878273Y-95281995D01*
X131649465Y-95434880D01*
X131454880Y-95629465D01*
X131301995Y-95858273D01*
X131196686Y-96112510D01*
X131143000Y-96382408D01*
X131143000Y-96657592D01*
X131196686Y-96927490D01*
X131271040Y-97106997D01*
X131172889Y-97041414D01*
X131002729Y-96970932D01*
X130822089Y-96935000D01*
X130637911Y-96935000D01*
X130457271Y-96970932D01*
X130287111Y-97041414D01*
X130133972Y-97143738D01*
X130003738Y-97273972D01*
X129901414Y-97427111D01*
X129830932Y-97597271D01*
X129795000Y-97777911D01*
X129795000Y-97962089D01*
X129830932Y-98142729D01*
X129901414Y-98312889D01*
X130003738Y-98466028D01*
X130133972Y-98596262D01*
X130287111Y-98698586D01*
X130457271Y-98769068D01*
X130637911Y-98805000D01*
X130822089Y-98805000D01*
X131002729Y-98769068D01*
X131172889Y-98698586D01*
X131189764Y-98687311D01*
X131143000Y-98922408D01*
X131143000Y-99197592D01*
X131196686Y-99467490D01*
X131301995Y-99721727D01*
X131454880Y-99950535D01*
X131649465Y-100145120D01*
X131878273Y-100298005D01*
X131955515Y-100330000D01*
X131878273Y-100361995D01*
X131649465Y-100514880D01*
X131454880Y-100709465D01*
X131301995Y-100938273D01*
X131196686Y-101192510D01*
X131143000Y-101462408D01*
X131143000Y-101737592D01*
X131196686Y-102007490D01*
X131271040Y-102186997D01*
X131172889Y-102121414D01*
X131002729Y-102050932D01*
X130822089Y-102015000D01*
X130637911Y-102015000D01*
X130457271Y-102050932D01*
X130287111Y-102121414D01*
X130133972Y-102223738D01*
X130003738Y-102353972D01*
X129901414Y-102507111D01*
X129830932Y-102677271D01*
X129795000Y-102857911D01*
X129795000Y-103042089D01*
X129830932Y-103222729D01*
X129901414Y-103392889D01*
X130003738Y-103546028D01*
X130133972Y-103676262D01*
X130287111Y-103778586D01*
X130457271Y-103849068D01*
X130637911Y-103885000D01*
X130822089Y-103885000D01*
X131002729Y-103849068D01*
X131172889Y-103778586D01*
X131189764Y-103767311D01*
X131143000Y-104002408D01*
X131143000Y-104277592D01*
X131196686Y-104547490D01*
X131301995Y-104801727D01*
X131454880Y-105030535D01*
X131649465Y-105225120D01*
X131878273Y-105378005D01*
X131955515Y-105410000D01*
X131878273Y-105441995D01*
X131649465Y-105594880D01*
X131454880Y-105789465D01*
X131301995Y-106018273D01*
X131196686Y-106272510D01*
X131143000Y-106542408D01*
X131143000Y-106817592D01*
X131196686Y-107087490D01*
X131301995Y-107341727D01*
X131454880Y-107570535D01*
X131649465Y-107765120D01*
X131878273Y-107918005D01*
X131955515Y-107950000D01*
X131878273Y-107981995D01*
X131649465Y-108134880D01*
X131454880Y-108329465D01*
X131301995Y-108558273D01*
X131196686Y-108812510D01*
X131143000Y-109082408D01*
X131143000Y-109357592D01*
X131196686Y-109627490D01*
X131301995Y-109881727D01*
X131454880Y-110110535D01*
X131649465Y-110305120D01*
X131878273Y-110458005D01*
X131955515Y-110490000D01*
X131878273Y-110521995D01*
X131649465Y-110674880D01*
X131454880Y-110869465D01*
X131301995Y-111098273D01*
X131196686Y-111352510D01*
X131143000Y-111622408D01*
X131143000Y-111897592D01*
X131196686Y-112167490D01*
X131301995Y-112421727D01*
X131454880Y-112650535D01*
X131649465Y-112845120D01*
X131878273Y-112998005D01*
X131955515Y-113030000D01*
X131878273Y-113061995D01*
X131649465Y-113214880D01*
X131454880Y-113409465D01*
X131301995Y-113638273D01*
X131196686Y-113892510D01*
X131143000Y-114162408D01*
X131143000Y-114437592D01*
X131196686Y-114707490D01*
X131202008Y-114720339D01*
X131082729Y-114670932D01*
X130902089Y-114635000D01*
X130717911Y-114635000D01*
X130537271Y-114670932D01*
X130367111Y-114741414D01*
X130213972Y-114843738D01*
X130083738Y-114973972D01*
X129981414Y-115127111D01*
X129910932Y-115297271D01*
X129875000Y-115477911D01*
X129875000Y-115662089D01*
X129910932Y-115842729D01*
X129981414Y-116012889D01*
X130083738Y-116166028D01*
X130213972Y-116296262D01*
X130367111Y-116398586D01*
X130537271Y-116469068D01*
X130717911Y-116505000D01*
X130902089Y-116505000D01*
X131082729Y-116469068D01*
X131202008Y-116419661D01*
X131196686Y-116432510D01*
X131143000Y-116702408D01*
X131143000Y-116977592D01*
X131196686Y-117247490D01*
X131301995Y-117501727D01*
X131454880Y-117730535D01*
X131649465Y-117925120D01*
X131878273Y-118078005D01*
X131955515Y-118110000D01*
X131878273Y-118141995D01*
X131649465Y-118294880D01*
X131454880Y-118489465D01*
X131301995Y-118718273D01*
X131196686Y-118972510D01*
X131143000Y-119242408D01*
X131143000Y-119517592D01*
X131196686Y-119787490D01*
X131301995Y-120041727D01*
X131454880Y-120270535D01*
X131649465Y-120465120D01*
X131878273Y-120618005D01*
X132132510Y-120723314D01*
X132402408Y-120777000D01*
X132677592Y-120777000D01*
X132947490Y-120723314D01*
X133201727Y-120618005D01*
X133430535Y-120465120D01*
X133625120Y-120270535D01*
X133706001Y-120149488D01*
X133706001Y-123800000D01*
X130984655Y-123800000D01*
X131121632Y-123708475D01*
X131328475Y-123501632D01*
X131490990Y-123258411D01*
X131602932Y-122988158D01*
X131660000Y-122701260D01*
X131660000Y-122408740D01*
X131602932Y-122121842D01*
X131490990Y-121851589D01*
X131328475Y-121608368D01*
X131121632Y-121401525D01*
X130878411Y-121239010D01*
X130608158Y-121127068D01*
X130321260Y-121070000D01*
X130028740Y-121070000D01*
X129741842Y-121127068D01*
X129471589Y-121239010D01*
X129228368Y-121401525D01*
X129021525Y-121608368D01*
X128905000Y-121782760D01*
X128788475Y-121608368D01*
X128581632Y-121401525D01*
X128338411Y-121239010D01*
X128068158Y-121127068D01*
X127781260Y-121070000D01*
X127488740Y-121070000D01*
X127201842Y-121127068D01*
X126931589Y-121239010D01*
X126688368Y-121401525D01*
X126481525Y-121608368D01*
X126365000Y-121782760D01*
X126248475Y-121608368D01*
X126041632Y-121401525D01*
X125798411Y-121239010D01*
X125528158Y-121127068D01*
X125241260Y-121070000D01*
X124948740Y-121070000D01*
X124661842Y-121127068D01*
X124391589Y-121239010D01*
X124148368Y-121401525D01*
X123941525Y-121608368D01*
X123825000Y-121782760D01*
X123708475Y-121608368D01*
X123501632Y-121401525D01*
X123258411Y-121239010D01*
X122988158Y-121127068D01*
X122701260Y-121070000D01*
X122408740Y-121070000D01*
X122121842Y-121127068D01*
X121851589Y-121239010D01*
X121608368Y-121401525D01*
X121476513Y-121533380D01*
X121454502Y-121460820D01*
X121395537Y-121350506D01*
X121316185Y-121253815D01*
X121219494Y-121174463D01*
X121109180Y-121115498D01*
X120989482Y-121079188D01*
X120865000Y-121066928D01*
X119165000Y-121066928D01*
X119040518Y-121079188D01*
X118920820Y-121115498D01*
X118810506Y-121174463D01*
X118713815Y-121253815D01*
X118634463Y-121350506D01*
X118575498Y-121460820D01*
X118539188Y-121580518D01*
X118526928Y-121705000D01*
X118526928Y-123405000D01*
X118539188Y-123529482D01*
X118575498Y-123649180D01*
X118634463Y-123759494D01*
X118667705Y-123800000D01*
X116230000Y-123800000D01*
X116230000Y-120285655D01*
X116409465Y-120465120D01*
X116638273Y-120618005D01*
X116892510Y-120723314D01*
X117162408Y-120777000D01*
X117437592Y-120777000D01*
X117707490Y-120723314D01*
X117961727Y-120618005D01*
X118190535Y-120465120D01*
X118385120Y-120270535D01*
X118538005Y-120041727D01*
X118643314Y-119787490D01*
X118697000Y-119517592D01*
X118697000Y-119242408D01*
X118643314Y-118972510D01*
X118538005Y-118718273D01*
X118409473Y-118525911D01*
X118953000Y-118525911D01*
X118953000Y-118710089D01*
X118988932Y-118890729D01*
X119059414Y-119060889D01*
X119161738Y-119214028D01*
X119291972Y-119344262D01*
X119445111Y-119446586D01*
X119615271Y-119517068D01*
X119795911Y-119553000D01*
X119980089Y-119553000D01*
X120160729Y-119517068D01*
X120330889Y-119446586D01*
X120484028Y-119344262D01*
X120614262Y-119214028D01*
X120716586Y-119060889D01*
X120787068Y-118890729D01*
X120823000Y-118710089D01*
X120823000Y-118525911D01*
X120787068Y-118345271D01*
X120716586Y-118175111D01*
X120614262Y-118021972D01*
X120484028Y-117891738D01*
X120330889Y-117789414D01*
X120160729Y-117718932D01*
X119980089Y-117683000D01*
X119795911Y-117683000D01*
X119615271Y-117718932D01*
X119445111Y-117789414D01*
X119291972Y-117891738D01*
X119161738Y-118021972D01*
X119059414Y-118175111D01*
X118988932Y-118345271D01*
X118953000Y-118525911D01*
X118409473Y-118525911D01*
X118385120Y-118489465D01*
X118190535Y-118294880D01*
X117961727Y-118141995D01*
X117884485Y-118110000D01*
X117961727Y-118078005D01*
X118190535Y-117925120D01*
X118385120Y-117730535D01*
X118538005Y-117501727D01*
X118643314Y-117247490D01*
X118697000Y-116977592D01*
X118697000Y-116702408D01*
X118643314Y-116432510D01*
X118538005Y-116178273D01*
X118385120Y-115949465D01*
X118190535Y-115754880D01*
X117961727Y-115601995D01*
X117884485Y-115570000D01*
X117961727Y-115538005D01*
X118190535Y-115385120D01*
X118385120Y-115190535D01*
X118532536Y-114969911D01*
X122255000Y-114969911D01*
X122255000Y-115154089D01*
X122290932Y-115334729D01*
X122361414Y-115504889D01*
X122463738Y-115658028D01*
X122593972Y-115788262D01*
X122747111Y-115890586D01*
X122917271Y-115961068D01*
X123097911Y-115997000D01*
X123282089Y-115997000D01*
X123462729Y-115961068D01*
X123632889Y-115890586D01*
X123786028Y-115788262D01*
X123916262Y-115658028D01*
X124018586Y-115504889D01*
X124029760Y-115477911D01*
X126319000Y-115477911D01*
X126319000Y-115662089D01*
X126354932Y-115842729D01*
X126425414Y-116012889D01*
X126527738Y-116166028D01*
X126657972Y-116296262D01*
X126811111Y-116398586D01*
X126981271Y-116469068D01*
X127161911Y-116505000D01*
X127346089Y-116505000D01*
X127526729Y-116469068D01*
X127696889Y-116398586D01*
X127850028Y-116296262D01*
X127980262Y-116166028D01*
X128082586Y-116012889D01*
X128153068Y-115842729D01*
X128189000Y-115662089D01*
X128189000Y-115477911D01*
X128153068Y-115297271D01*
X128082586Y-115127111D01*
X127980262Y-114973972D01*
X127850028Y-114843738D01*
X127696889Y-114741414D01*
X127526729Y-114670932D01*
X127346089Y-114635000D01*
X127161911Y-114635000D01*
X126981271Y-114670932D01*
X126811111Y-114741414D01*
X126657972Y-114843738D01*
X126527738Y-114973972D01*
X126425414Y-115127111D01*
X126354932Y-115297271D01*
X126319000Y-115477911D01*
X124029760Y-115477911D01*
X124089068Y-115334729D01*
X124125000Y-115154089D01*
X124125000Y-114969911D01*
X124089068Y-114789271D01*
X124018586Y-114619111D01*
X123916262Y-114465972D01*
X123786028Y-114335738D01*
X123632889Y-114233414D01*
X123462729Y-114162932D01*
X123282089Y-114127000D01*
X123097911Y-114127000D01*
X122917271Y-114162932D01*
X122747111Y-114233414D01*
X122593972Y-114335738D01*
X122463738Y-114465972D01*
X122361414Y-114619111D01*
X122290932Y-114789271D01*
X122255000Y-114969911D01*
X118532536Y-114969911D01*
X118538005Y-114961727D01*
X118643314Y-114707490D01*
X118697000Y-114437592D01*
X118697000Y-114162408D01*
X118643314Y-113892510D01*
X118538005Y-113638273D01*
X118385120Y-113409465D01*
X118190535Y-113214880D01*
X117961727Y-113061995D01*
X117884485Y-113030000D01*
X117961727Y-112998005D01*
X118190535Y-112845120D01*
X118385120Y-112650535D01*
X118538005Y-112421727D01*
X118643314Y-112167490D01*
X118697000Y-111897592D01*
X118697000Y-111622408D01*
X118648566Y-111378911D01*
X125887004Y-111378911D01*
X125887004Y-111563089D01*
X125922936Y-111743729D01*
X125993418Y-111913889D01*
X126095742Y-112067028D01*
X126225976Y-112197262D01*
X126379115Y-112299586D01*
X126549275Y-112370068D01*
X126607848Y-112381719D01*
X126573000Y-112556911D01*
X126573000Y-112741089D01*
X126608932Y-112921729D01*
X126679414Y-113091889D01*
X126781738Y-113245028D01*
X126911972Y-113375262D01*
X127065111Y-113477586D01*
X127235271Y-113548068D01*
X127415911Y-113584000D01*
X127600089Y-113584000D01*
X127780729Y-113548068D01*
X127950889Y-113477586D01*
X128104028Y-113375262D01*
X128234262Y-113245028D01*
X128336586Y-113091889D01*
X128407068Y-112921729D01*
X128443000Y-112741089D01*
X128443000Y-112556911D01*
X128407068Y-112376271D01*
X128336586Y-112206111D01*
X128234262Y-112052972D01*
X128104028Y-111922738D01*
X127955508Y-111823500D01*
X128104028Y-111724262D01*
X128234262Y-111594028D01*
X128336586Y-111440889D01*
X128407068Y-111270729D01*
X128443000Y-111090089D01*
X128443000Y-110905911D01*
X128407068Y-110725271D01*
X128336586Y-110555111D01*
X128234262Y-110401972D01*
X128104028Y-110271738D01*
X127950889Y-110169414D01*
X127780729Y-110098932D01*
X127600089Y-110063000D01*
X127415911Y-110063000D01*
X127235271Y-110098932D01*
X127065111Y-110169414D01*
X126911972Y-110271738D01*
X126781738Y-110401972D01*
X126686400Y-110544656D01*
X126549275Y-110571932D01*
X126379115Y-110642414D01*
X126225976Y-110744738D01*
X126095742Y-110874972D01*
X125993418Y-111028111D01*
X125922936Y-111198271D01*
X125887004Y-111378911D01*
X118648566Y-111378911D01*
X118643314Y-111352510D01*
X118538005Y-111098273D01*
X118385120Y-110869465D01*
X118190535Y-110674880D01*
X117961727Y-110521995D01*
X117884485Y-110490000D01*
X117961727Y-110458005D01*
X118190535Y-110305120D01*
X118385120Y-110110535D01*
X118538005Y-109881727D01*
X118643314Y-109627490D01*
X118697000Y-109357592D01*
X118697000Y-109082408D01*
X118643314Y-108812510D01*
X118538005Y-108558273D01*
X118385120Y-108329465D01*
X118190535Y-108134880D01*
X117961727Y-107981995D01*
X117884485Y-107950000D01*
X117961727Y-107918005D01*
X118190535Y-107765120D01*
X118385120Y-107570535D01*
X118538005Y-107341727D01*
X118643314Y-107087490D01*
X118697000Y-106817592D01*
X118697000Y-106542408D01*
X118643314Y-106272510D01*
X118563537Y-106079911D01*
X122509000Y-106079911D01*
X122509000Y-106264089D01*
X122544932Y-106444729D01*
X122615414Y-106614889D01*
X122717738Y-106768028D01*
X122847972Y-106898262D01*
X123001111Y-107000586D01*
X123171271Y-107071068D01*
X123351911Y-107107000D01*
X123536089Y-107107000D01*
X123716729Y-107071068D01*
X123884371Y-107001629D01*
X123814932Y-107169271D01*
X123779000Y-107349911D01*
X123779000Y-107534089D01*
X123814932Y-107714729D01*
X123885414Y-107884889D01*
X123987738Y-108038028D01*
X124117972Y-108168262D01*
X124271111Y-108270586D01*
X124441271Y-108341068D01*
X124621911Y-108377000D01*
X124806089Y-108377000D01*
X124986729Y-108341068D01*
X125156889Y-108270586D01*
X125310028Y-108168262D01*
X125440262Y-108038028D01*
X125542586Y-107884889D01*
X125613068Y-107714729D01*
X125649000Y-107534089D01*
X125649000Y-107349911D01*
X125613068Y-107169271D01*
X125542586Y-106999111D01*
X125440262Y-106845972D01*
X125310028Y-106715738D01*
X125156889Y-106613414D01*
X124986729Y-106542932D01*
X124806089Y-106507000D01*
X124621911Y-106507000D01*
X124441271Y-106542932D01*
X124273629Y-106612371D01*
X124343068Y-106444729D01*
X124379000Y-106264089D01*
X124379000Y-106079911D01*
X124343068Y-105899271D01*
X124272586Y-105729111D01*
X124170262Y-105575972D01*
X124040028Y-105445738D01*
X123886889Y-105343414D01*
X123716729Y-105272932D01*
X123536089Y-105237000D01*
X123351911Y-105237000D01*
X123171271Y-105272932D01*
X123001111Y-105343414D01*
X122847972Y-105445738D01*
X122717738Y-105575972D01*
X122615414Y-105729111D01*
X122544932Y-105899271D01*
X122509000Y-106079911D01*
X118563537Y-106079911D01*
X118538005Y-106018273D01*
X118385120Y-105789465D01*
X118190535Y-105594880D01*
X117961727Y-105441995D01*
X117884485Y-105410000D01*
X117961727Y-105378005D01*
X118190535Y-105225120D01*
X118351744Y-105063911D01*
X124795000Y-105063911D01*
X124795000Y-105248089D01*
X124830932Y-105428729D01*
X124901414Y-105598889D01*
X125003738Y-105752028D01*
X125133972Y-105882262D01*
X125287111Y-105984586D01*
X125457271Y-106055068D01*
X125637911Y-106091000D01*
X125822089Y-106091000D01*
X126002729Y-106055068D01*
X126172889Y-105984586D01*
X126326028Y-105882262D01*
X126456262Y-105752028D01*
X126558586Y-105598889D01*
X126629068Y-105428729D01*
X126665000Y-105248089D01*
X126665000Y-105063911D01*
X126629068Y-104883271D01*
X126558586Y-104713111D01*
X126456262Y-104559972D01*
X126326028Y-104429738D01*
X126172889Y-104327414D01*
X126002729Y-104256932D01*
X125822089Y-104221000D01*
X125637911Y-104221000D01*
X125457271Y-104256932D01*
X125287111Y-104327414D01*
X125133972Y-104429738D01*
X125003738Y-104559972D01*
X124901414Y-104713111D01*
X124830932Y-104883271D01*
X124795000Y-105063911D01*
X118351744Y-105063911D01*
X118385120Y-105030535D01*
X118538005Y-104801727D01*
X118643314Y-104547490D01*
X118697000Y-104277592D01*
X118697000Y-104002408D01*
X118643314Y-103732510D01*
X118538005Y-103478273D01*
X118385120Y-103249465D01*
X118190535Y-103054880D01*
X117961727Y-102901995D01*
X117884485Y-102870000D01*
X117961727Y-102838005D01*
X118190535Y-102685120D01*
X118385120Y-102490535D01*
X118538005Y-102261727D01*
X118643314Y-102007490D01*
X118692162Y-101761911D01*
X123017000Y-101761911D01*
X123017000Y-101946089D01*
X123052932Y-102126729D01*
X123123414Y-102296889D01*
X123225738Y-102450028D01*
X123355972Y-102580262D01*
X123509111Y-102682586D01*
X123679271Y-102753068D01*
X123859911Y-102789000D01*
X124044089Y-102789000D01*
X124224729Y-102753068D01*
X124394889Y-102682586D01*
X124548028Y-102580262D01*
X124604379Y-102523911D01*
X124795000Y-102523911D01*
X124795000Y-102708089D01*
X124830932Y-102888729D01*
X124901414Y-103058889D01*
X125003738Y-103212028D01*
X125133972Y-103342262D01*
X125287111Y-103444586D01*
X125457271Y-103515068D01*
X125637911Y-103551000D01*
X125822089Y-103551000D01*
X126002729Y-103515068D01*
X126172889Y-103444586D01*
X126326028Y-103342262D01*
X126456262Y-103212028D01*
X126558586Y-103058889D01*
X126629068Y-102888729D01*
X126665000Y-102708089D01*
X126665000Y-102523911D01*
X126629068Y-102343271D01*
X126558586Y-102173111D01*
X126456262Y-102019972D01*
X126326028Y-101889738D01*
X126172889Y-101787414D01*
X126002729Y-101716932D01*
X125822089Y-101681000D01*
X125637911Y-101681000D01*
X125457271Y-101716932D01*
X125287111Y-101787414D01*
X125133972Y-101889738D01*
X125003738Y-102019972D01*
X124901414Y-102173111D01*
X124830932Y-102343271D01*
X124795000Y-102523911D01*
X124604379Y-102523911D01*
X124678262Y-102450028D01*
X124780586Y-102296889D01*
X124851068Y-102126729D01*
X124887000Y-101946089D01*
X124887000Y-101761911D01*
X124851068Y-101581271D01*
X124781629Y-101413629D01*
X124949271Y-101483068D01*
X125129911Y-101519000D01*
X125314089Y-101519000D01*
X125494729Y-101483068D01*
X125664889Y-101412586D01*
X125818028Y-101310262D01*
X125948262Y-101180028D01*
X126050586Y-101026889D01*
X126057167Y-101011000D01*
X126076089Y-101011000D01*
X126256729Y-100975068D01*
X126426889Y-100904586D01*
X126580028Y-100802262D01*
X126710262Y-100672028D01*
X126812586Y-100518889D01*
X126883068Y-100348729D01*
X126919000Y-100168089D01*
X126919000Y-99983911D01*
X126883068Y-99803271D01*
X126812586Y-99633111D01*
X126710262Y-99479972D01*
X126580028Y-99349738D01*
X126426889Y-99247414D01*
X126256729Y-99176932D01*
X126076089Y-99141000D01*
X125891911Y-99141000D01*
X125711271Y-99176932D01*
X125541111Y-99247414D01*
X125387972Y-99349738D01*
X125257738Y-99479972D01*
X125155414Y-99633111D01*
X125148833Y-99649000D01*
X125129911Y-99649000D01*
X124949271Y-99684932D01*
X124779111Y-99755414D01*
X124625972Y-99857738D01*
X124495738Y-99987972D01*
X124393414Y-100141111D01*
X124322932Y-100311271D01*
X124287000Y-100491911D01*
X124287000Y-100676089D01*
X124322932Y-100856729D01*
X124392371Y-101024371D01*
X124224729Y-100954932D01*
X124044089Y-100919000D01*
X123859911Y-100919000D01*
X123679271Y-100954932D01*
X123509111Y-101025414D01*
X123355972Y-101127738D01*
X123225738Y-101257972D01*
X123123414Y-101411111D01*
X123052932Y-101581271D01*
X123017000Y-101761911D01*
X118692162Y-101761911D01*
X118697000Y-101737592D01*
X118697000Y-101462408D01*
X118643314Y-101192510D01*
X118538005Y-100938273D01*
X118385120Y-100709465D01*
X118190535Y-100514880D01*
X117961727Y-100361995D01*
X117884485Y-100330000D01*
X117961727Y-100298005D01*
X118190535Y-100145120D01*
X118385120Y-99950535D01*
X118538005Y-99721727D01*
X118643314Y-99467490D01*
X118697000Y-99197592D01*
X118697000Y-98922408D01*
X118643314Y-98652510D01*
X118538005Y-98398273D01*
X118385120Y-98169465D01*
X118190535Y-97974880D01*
X117961727Y-97821995D01*
X117884485Y-97790000D01*
X117961727Y-97758005D01*
X118051663Y-97697911D01*
X124795000Y-97697911D01*
X124795000Y-97882089D01*
X124830932Y-98062729D01*
X124901414Y-98232889D01*
X125003738Y-98386028D01*
X125133972Y-98516262D01*
X125287111Y-98618586D01*
X125457271Y-98689068D01*
X125637911Y-98725000D01*
X125822089Y-98725000D01*
X126002729Y-98689068D01*
X126172889Y-98618586D01*
X126326028Y-98516262D01*
X126456262Y-98386028D01*
X126558586Y-98232889D01*
X126629068Y-98062729D01*
X126665000Y-97882089D01*
X126665000Y-97697911D01*
X126629068Y-97517271D01*
X126558586Y-97347111D01*
X126456262Y-97193972D01*
X126326028Y-97063738D01*
X126172889Y-96961414D01*
X126002729Y-96890932D01*
X125822089Y-96855000D01*
X125637911Y-96855000D01*
X125457271Y-96890932D01*
X125287111Y-96961414D01*
X125133972Y-97063738D01*
X125003738Y-97193972D01*
X124901414Y-97347111D01*
X124830932Y-97517271D01*
X124795000Y-97697911D01*
X118051663Y-97697911D01*
X118190535Y-97605120D01*
X118385120Y-97410535D01*
X118538005Y-97181727D01*
X118643314Y-96927490D01*
X118697000Y-96657592D01*
X118697000Y-96427911D01*
X123017000Y-96427911D01*
X123017000Y-96612089D01*
X123052932Y-96792729D01*
X123123414Y-96962889D01*
X123225738Y-97116028D01*
X123355972Y-97246262D01*
X123509111Y-97348586D01*
X123679271Y-97419068D01*
X123859911Y-97455000D01*
X124044089Y-97455000D01*
X124224729Y-97419068D01*
X124394889Y-97348586D01*
X124548028Y-97246262D01*
X124678262Y-97116028D01*
X124780586Y-96962889D01*
X124851068Y-96792729D01*
X124887000Y-96612089D01*
X124887000Y-96427911D01*
X124851068Y-96247271D01*
X124780586Y-96077111D01*
X124749776Y-96031000D01*
X124815939Y-96031000D01*
X125015898Y-95991226D01*
X125204256Y-95913205D01*
X125373774Y-95799937D01*
X125517937Y-95655774D01*
X125598252Y-95535573D01*
X125663414Y-95692889D01*
X125765738Y-95846028D01*
X125895972Y-95976262D01*
X126049111Y-96078586D01*
X126219271Y-96149068D01*
X126399911Y-96185000D01*
X126584089Y-96185000D01*
X126764729Y-96149068D01*
X126904163Y-96091313D01*
X127017744Y-96167205D01*
X127206102Y-96245226D01*
X127406061Y-96285000D01*
X127609939Y-96285000D01*
X127809898Y-96245226D01*
X127998256Y-96167205D01*
X128167774Y-96053937D01*
X128311937Y-95909774D01*
X128425205Y-95740256D01*
X128503226Y-95551898D01*
X128543000Y-95351939D01*
X128543000Y-95148061D01*
X128503226Y-94948102D01*
X128425205Y-94759744D01*
X128311937Y-94590226D01*
X128167774Y-94446063D01*
X127998256Y-94332795D01*
X127809898Y-94254774D01*
X127609939Y-94215000D01*
X127406061Y-94215000D01*
X127206102Y-94254774D01*
X127017744Y-94332795D01*
X126904163Y-94408687D01*
X126764729Y-94350932D01*
X126584089Y-94315000D01*
X126399911Y-94315000D01*
X126219271Y-94350932D01*
X126049111Y-94421414D01*
X125895972Y-94523738D01*
X125765738Y-94653972D01*
X125716039Y-94728352D01*
X125709226Y-94694102D01*
X125631205Y-94505744D01*
X125517937Y-94336226D01*
X125373774Y-94192063D01*
X125204256Y-94078795D01*
X125015898Y-94000774D01*
X124815939Y-93961000D01*
X124612061Y-93961000D01*
X124412102Y-94000774D01*
X124223744Y-94078795D01*
X124054226Y-94192063D01*
X123910063Y-94336226D01*
X123796795Y-94505744D01*
X123718774Y-94694102D01*
X123679000Y-94894061D01*
X123679000Y-95097939D01*
X123718774Y-95297898D01*
X123796795Y-95486256D01*
X123862773Y-95585000D01*
X123859911Y-95585000D01*
X123679271Y-95620932D01*
X123509111Y-95691414D01*
X123355972Y-95793738D01*
X123225738Y-95923972D01*
X123123414Y-96077111D01*
X123052932Y-96247271D01*
X123017000Y-96427911D01*
X118697000Y-96427911D01*
X118697000Y-96382408D01*
X118643314Y-96112510D01*
X118538005Y-95858273D01*
X118385120Y-95629465D01*
X118190535Y-95434880D01*
X117961727Y-95281995D01*
X117884485Y-95250000D01*
X117961727Y-95218005D01*
X118190535Y-95065120D01*
X118385120Y-94870535D01*
X118538005Y-94641727D01*
X118643314Y-94387490D01*
X118697000Y-94117592D01*
X118697000Y-93842408D01*
X118643314Y-93572510D01*
X118538005Y-93318273D01*
X118385120Y-93089465D01*
X118190535Y-92894880D01*
X117961727Y-92741995D01*
X117884485Y-92710000D01*
X117961727Y-92678005D01*
X118190535Y-92525120D01*
X118351744Y-92363911D01*
X123525000Y-92363911D01*
X123525000Y-92548089D01*
X123560932Y-92728729D01*
X123631414Y-92898889D01*
X123733738Y-93052028D01*
X123863972Y-93182262D01*
X124017111Y-93284586D01*
X124187271Y-93355068D01*
X124367911Y-93391000D01*
X124552089Y-93391000D01*
X124732729Y-93355068D01*
X124902889Y-93284586D01*
X125056028Y-93182262D01*
X125186262Y-93052028D01*
X125288586Y-92898889D01*
X125359068Y-92728729D01*
X125395000Y-92548089D01*
X125395000Y-92363911D01*
X125359068Y-92183271D01*
X125288586Y-92013111D01*
X125186262Y-91859972D01*
X125056028Y-91729738D01*
X124902889Y-91627414D01*
X124732729Y-91556932D01*
X124552089Y-91521000D01*
X124367911Y-91521000D01*
X124187271Y-91556932D01*
X124017111Y-91627414D01*
X123863972Y-91729738D01*
X123733738Y-91859972D01*
X123631414Y-92013111D01*
X123560932Y-92183271D01*
X123525000Y-92363911D01*
X118351744Y-92363911D01*
X118385120Y-92330535D01*
X118538005Y-92101727D01*
X118643314Y-91847490D01*
X118697000Y-91577592D01*
X118697000Y-91302408D01*
X118643314Y-91032510D01*
X118538005Y-90778273D01*
X118385120Y-90549465D01*
X118190535Y-90354880D01*
X117961727Y-90201995D01*
X117884485Y-90170000D01*
X117961727Y-90138005D01*
X118190535Y-89985120D01*
X118385120Y-89790535D01*
X118538005Y-89561727D01*
X118643314Y-89307490D01*
X118697000Y-89037592D01*
X118697000Y-88762408D01*
X118643314Y-88492510D01*
X118614146Y-88422093D01*
X118679271Y-88449068D01*
X118859911Y-88485000D01*
X119044089Y-88485000D01*
X119224729Y-88449068D01*
X119394889Y-88378586D01*
X119548028Y-88276262D01*
X119678262Y-88146028D01*
X119780586Y-87992889D01*
X119851068Y-87822729D01*
X119857198Y-87791911D01*
X123271000Y-87791911D01*
X123271000Y-87976089D01*
X123306932Y-88156729D01*
X123377414Y-88326889D01*
X123479738Y-88480028D01*
X123609972Y-88610262D01*
X123763111Y-88712586D01*
X123933271Y-88783068D01*
X124113911Y-88819000D01*
X124298089Y-88819000D01*
X124353836Y-88807911D01*
X128986000Y-88807911D01*
X128986000Y-88992089D01*
X129021932Y-89172729D01*
X129092414Y-89342889D01*
X129194738Y-89496028D01*
X129324972Y-89626262D01*
X129478111Y-89728586D01*
X129648271Y-89799068D01*
X129828911Y-89835000D01*
X130013089Y-89835000D01*
X130193729Y-89799068D01*
X130363889Y-89728586D01*
X130517028Y-89626262D01*
X130647262Y-89496028D01*
X130749586Y-89342889D01*
X130820068Y-89172729D01*
X130856000Y-88992089D01*
X130856000Y-88807911D01*
X130820068Y-88627271D01*
X130749586Y-88457111D01*
X130647262Y-88303972D01*
X130517028Y-88173738D01*
X130363889Y-88071414D01*
X130193729Y-88000932D01*
X130013089Y-87965000D01*
X129828911Y-87965000D01*
X129648271Y-88000932D01*
X129478111Y-88071414D01*
X129324972Y-88173738D01*
X129194738Y-88303972D01*
X129092414Y-88457111D01*
X129021932Y-88627271D01*
X128986000Y-88807911D01*
X124353836Y-88807911D01*
X124478729Y-88783068D01*
X124648889Y-88712586D01*
X124802028Y-88610262D01*
X124902567Y-88509723D01*
X124949271Y-88529068D01*
X125129911Y-88565000D01*
X125314089Y-88565000D01*
X125494729Y-88529068D01*
X125664889Y-88458586D01*
X125818028Y-88356262D01*
X125948262Y-88226028D01*
X126050586Y-88072889D01*
X126121068Y-87902729D01*
X126157000Y-87722089D01*
X126157000Y-87537911D01*
X126121068Y-87357271D01*
X126050586Y-87187111D01*
X125948262Y-87033972D01*
X125818028Y-86903738D01*
X125664889Y-86801414D01*
X125494729Y-86730932D01*
X125314089Y-86695000D01*
X125129911Y-86695000D01*
X124949271Y-86730932D01*
X124779111Y-86801414D01*
X124625972Y-86903738D01*
X124525433Y-87004277D01*
X124478729Y-86984932D01*
X124298089Y-86949000D01*
X124113911Y-86949000D01*
X123933271Y-86984932D01*
X123763111Y-87055414D01*
X123609972Y-87157738D01*
X123479738Y-87287972D01*
X123377414Y-87441111D01*
X123306932Y-87611271D01*
X123271000Y-87791911D01*
X119857198Y-87791911D01*
X119887000Y-87642089D01*
X119887000Y-87457911D01*
X119851068Y-87277271D01*
X119780586Y-87107111D01*
X119678262Y-86953972D01*
X119548028Y-86823738D01*
X119394889Y-86721414D01*
X119224729Y-86650932D01*
X119044089Y-86615000D01*
X118859911Y-86615000D01*
X118679271Y-86650932D01*
X118573072Y-86694921D01*
X118573072Y-85725000D01*
X118560812Y-85600518D01*
X118524502Y-85480820D01*
X118465537Y-85370506D01*
X118386185Y-85273815D01*
X118347418Y-85242000D01*
X131698673Y-85242000D01*
X131649465Y-85274880D01*
G37*
G04 #@! TD.AperFunction*
G04 #@! TD*
M02*
