G04 #@! TF.GenerationSoftware,KiCad,Pcbnew,5.1.12-84ad8e8a86~92~ubuntu20.04.1*
G04 #@! TF.CreationDate,2022-01-10T08:42:33+09:00*
G04 #@! TF.ProjectId,LI2026ODP,4c493230-3236-44f4-9450-2e6b69636164,rev?*
G04 #@! TF.SameCoordinates,Original*
G04 #@! TF.FileFunction,Paste,Top*
G04 #@! TF.FilePolarity,Positive*
%FSLAX46Y46*%
G04 Gerber Fmt 4.6, Leading zero omitted, Abs format (unit mm)*
G04 Created by KiCad (PCBNEW 5.1.12-84ad8e8a86~92~ubuntu20.04.1) date 2022-01-10 08:42:33*
%MOMM*%
%LPD*%
G01*
G04 APERTURE LIST*
%ADD10R,0.431800X1.422400*%
%ADD11R,1.384300X0.355600*%
%ADD12R,0.508000X1.358900*%
%ADD13R,1.358900X0.508000*%
G04 APERTURE END LIST*
G04 #@! TO.C,C1*
G36*
G01*
X129301000Y-87801001D02*
X129301000Y-86950999D01*
G75*
G02*
X129550999Y-86701000I249999J0D01*
G01*
X130626001Y-86701000D01*
G75*
G02*
X130876000Y-86950999I0J-249999D01*
G01*
X130876000Y-87801001D01*
G75*
G02*
X130626001Y-88051000I-249999J0D01*
G01*
X129550999Y-88051000D01*
G75*
G02*
X129301000Y-87801001I0J249999D01*
G01*
G37*
G36*
G01*
X126426000Y-87801001D02*
X126426000Y-86950999D01*
G75*
G02*
X126675999Y-86701000I249999J0D01*
G01*
X127751001Y-86701000D01*
G75*
G02*
X128001000Y-86950999I0J-249999D01*
G01*
X128001000Y-87801001D01*
G75*
G02*
X127751001Y-88051000I-249999J0D01*
G01*
X126675999Y-88051000D01*
G75*
G02*
X126426000Y-87801001I0J249999D01*
G01*
G37*
G04 #@! TD*
D10*
G04 #@! TO.C,U1*
X127974999Y-93865700D03*
X127325001Y-93865700D03*
X126674999Y-93865700D03*
X126025001Y-93865700D03*
X126025001Y-89522300D03*
X126674999Y-89522300D03*
X127325001Y-89522300D03*
X127974999Y-89522300D03*
G04 #@! TD*
D11*
G04 #@! TO.C,U3*
X127908050Y-97375000D03*
X127908050Y-98025001D03*
X127908050Y-98675000D03*
X127908050Y-99325001D03*
X127908050Y-99974999D03*
X127908050Y-100625001D03*
X127908050Y-101274999D03*
X127908050Y-101925001D03*
X127908050Y-102574999D03*
X127908050Y-103225001D03*
X127908050Y-103874999D03*
X127908050Y-104525000D03*
X127908050Y-105174999D03*
X127908050Y-105825000D03*
X122027950Y-105824998D03*
X122027950Y-105174999D03*
X122027950Y-104524998D03*
X122027950Y-103874999D03*
X122027950Y-103224998D03*
X122027950Y-102574999D03*
X122027950Y-101924998D03*
X122027950Y-101274999D03*
X122027950Y-100625001D03*
X122027950Y-99974999D03*
X122027950Y-99325001D03*
X122027950Y-98675000D03*
X122027950Y-98025001D03*
X122027950Y-97375000D03*
G04 #@! TD*
D12*
G04 #@! TO.C,U2*
X128079500Y-118228550D03*
X127190500Y-118228550D03*
X126301500Y-118228550D03*
X125412500Y-118228550D03*
X124523500Y-118228550D03*
X123634500Y-118228550D03*
X122745500Y-118228550D03*
X121856500Y-118228550D03*
D13*
X120694450Y-117066500D03*
X120694450Y-116177500D03*
X120694450Y-115288500D03*
X120694450Y-114399500D03*
X120694450Y-113510500D03*
X120694450Y-112621500D03*
X120694450Y-111732500D03*
X120694450Y-110843500D03*
D12*
X121856500Y-109681450D03*
X122745500Y-109681450D03*
X123634500Y-109681450D03*
X124523500Y-109681450D03*
X125412500Y-109681450D03*
X126301500Y-109681450D03*
X127190500Y-109681450D03*
X128079500Y-109681450D03*
D13*
X129241550Y-110843500D03*
X129241550Y-111732500D03*
X129241550Y-112621500D03*
X129241550Y-113510500D03*
X129241550Y-114399500D03*
X129241550Y-115288500D03*
X129241550Y-116177500D03*
X129241550Y-117066500D03*
G04 #@! TD*
M02*
