G04 #@! TF.GenerationSoftware,KiCad,Pcbnew,5.1.12-84ad8e8a86~92~ubuntu20.04.1*
G04 #@! TF.CreationDate,2022-01-10T08:42:33+09:00*
G04 #@! TF.ProjectId,LI2026ODP,4c493230-3236-44f4-9450-2e6b69636164,rev?*
G04 #@! TF.SameCoordinates,Original*
G04 #@! TF.FileFunction,Legend,Bot*
G04 #@! TF.FilePolarity,Positive*
%FSLAX46Y46*%
G04 Gerber Fmt 4.6, Leading zero omitted, Abs format (unit mm)*
G04 Created by KiCad (PCBNEW 5.1.12-84ad8e8a86~92~ubuntu20.04.1) date 2022-01-10 08:42:33*
%MOMM*%
%LPD*%
G01*
G04 APERTURE LIST*
%ADD10C,0.100000*%
%ADD11C,0.120000*%
G04 APERTURE END LIST*
D10*
X119063333Y-115973333D02*
X119763333Y-115973333D01*
X119063333Y-115673333D02*
X119430000Y-115673333D01*
X119496666Y-115706666D01*
X119530000Y-115773333D01*
X119530000Y-115873333D01*
X119496666Y-115940000D01*
X119463333Y-115973333D01*
X119530000Y-115440000D02*
X119530000Y-115173333D01*
X119763333Y-115340000D02*
X119163333Y-115340000D01*
X119096666Y-115306666D01*
X119063333Y-115240000D01*
X119063333Y-115173333D01*
X119530000Y-115040000D02*
X119530000Y-114773333D01*
X119763333Y-114940000D02*
X119163333Y-114940000D01*
X119096666Y-114906666D01*
X119063333Y-114840000D01*
X119063333Y-114773333D01*
X119530000Y-114540000D02*
X118830000Y-114540000D01*
X119496666Y-114540000D02*
X119530000Y-114473333D01*
X119530000Y-114340000D01*
X119496666Y-114273333D01*
X119463333Y-114240000D01*
X119396666Y-114206666D01*
X119196666Y-114206666D01*
X119130000Y-114240000D01*
X119096666Y-114273333D01*
X119063333Y-114340000D01*
X119063333Y-114473333D01*
X119096666Y-114540000D01*
X119096666Y-113940000D02*
X119063333Y-113873333D01*
X119063333Y-113740000D01*
X119096666Y-113673333D01*
X119163333Y-113640000D01*
X119196666Y-113640000D01*
X119263333Y-113673333D01*
X119296666Y-113740000D01*
X119296666Y-113840000D01*
X119330000Y-113906666D01*
X119396666Y-113940000D01*
X119430000Y-113940000D01*
X119496666Y-113906666D01*
X119530000Y-113840000D01*
X119530000Y-113740000D01*
X119496666Y-113673333D01*
X119130000Y-113340000D02*
X119096666Y-113306666D01*
X119063333Y-113340000D01*
X119096666Y-113373333D01*
X119130000Y-113340000D01*
X119063333Y-113340000D01*
X119496666Y-113340000D02*
X119463333Y-113306666D01*
X119430000Y-113340000D01*
X119463333Y-113373333D01*
X119496666Y-113340000D01*
X119430000Y-113340000D01*
X119796666Y-112506666D02*
X118896666Y-113106666D01*
X119796666Y-111773333D02*
X118896666Y-112373333D01*
X119530000Y-111240000D02*
X118963333Y-111240000D01*
X118896666Y-111273333D01*
X118863333Y-111306666D01*
X118830000Y-111373333D01*
X118830000Y-111473333D01*
X118863333Y-111540000D01*
X119096666Y-111240000D02*
X119063333Y-111306666D01*
X119063333Y-111440000D01*
X119096666Y-111506666D01*
X119130000Y-111540000D01*
X119196666Y-111573333D01*
X119396666Y-111573333D01*
X119463333Y-111540000D01*
X119496666Y-111506666D01*
X119530000Y-111440000D01*
X119530000Y-111306666D01*
X119496666Y-111240000D01*
X119063333Y-110906666D02*
X119530000Y-110906666D01*
X119763333Y-110906666D02*
X119730000Y-110940000D01*
X119696666Y-110906666D01*
X119730000Y-110873333D01*
X119763333Y-110906666D01*
X119696666Y-110906666D01*
X119530000Y-110673333D02*
X119530000Y-110406666D01*
X119763333Y-110573333D02*
X119163333Y-110573333D01*
X119096666Y-110540000D01*
X119063333Y-110473333D01*
X119063333Y-110406666D01*
X119063333Y-110173333D02*
X119763333Y-110173333D01*
X119063333Y-109873333D02*
X119430000Y-109873333D01*
X119496666Y-109906666D01*
X119530000Y-109973333D01*
X119530000Y-110073333D01*
X119496666Y-110140000D01*
X119463333Y-110173333D01*
X119530000Y-109240000D02*
X119063333Y-109240000D01*
X119530000Y-109540000D02*
X119163333Y-109540000D01*
X119096666Y-109506666D01*
X119063333Y-109440000D01*
X119063333Y-109340000D01*
X119096666Y-109273333D01*
X119130000Y-109240000D01*
X119063333Y-108906666D02*
X119763333Y-108906666D01*
X119496666Y-108906666D02*
X119530000Y-108840000D01*
X119530000Y-108706666D01*
X119496666Y-108640000D01*
X119463333Y-108606666D01*
X119396666Y-108573333D01*
X119196666Y-108573333D01*
X119130000Y-108606666D01*
X119096666Y-108640000D01*
X119063333Y-108706666D01*
X119063333Y-108840000D01*
X119096666Y-108906666D01*
X119130000Y-108273333D02*
X119096666Y-108240000D01*
X119063333Y-108273333D01*
X119096666Y-108306666D01*
X119130000Y-108273333D01*
X119063333Y-108273333D01*
X119096666Y-107640000D02*
X119063333Y-107706666D01*
X119063333Y-107840000D01*
X119096666Y-107906666D01*
X119130000Y-107940000D01*
X119196666Y-107973333D01*
X119396666Y-107973333D01*
X119463333Y-107940000D01*
X119496666Y-107906666D01*
X119530000Y-107840000D01*
X119530000Y-107706666D01*
X119496666Y-107640000D01*
X119063333Y-107240000D02*
X119096666Y-107306666D01*
X119130000Y-107340000D01*
X119196666Y-107373333D01*
X119396666Y-107373333D01*
X119463333Y-107340000D01*
X119496666Y-107306666D01*
X119530000Y-107240000D01*
X119530000Y-107140000D01*
X119496666Y-107073333D01*
X119463333Y-107040000D01*
X119396666Y-107006666D01*
X119196666Y-107006666D01*
X119130000Y-107040000D01*
X119096666Y-107073333D01*
X119063333Y-107140000D01*
X119063333Y-107240000D01*
X119063333Y-106706666D02*
X119530000Y-106706666D01*
X119463333Y-106706666D02*
X119496666Y-106673333D01*
X119530000Y-106606666D01*
X119530000Y-106506666D01*
X119496666Y-106440000D01*
X119430000Y-106406666D01*
X119063333Y-106406666D01*
X119430000Y-106406666D02*
X119496666Y-106373333D01*
X119530000Y-106306666D01*
X119530000Y-106206666D01*
X119496666Y-106140000D01*
X119430000Y-106106666D01*
X119063333Y-106106666D01*
X119796666Y-105273333D02*
X118896666Y-105873333D01*
X119096666Y-105073333D02*
X119063333Y-105006666D01*
X119063333Y-104873333D01*
X119096666Y-104806666D01*
X119163333Y-104773333D01*
X119196666Y-104773333D01*
X119263333Y-104806666D01*
X119296666Y-104873333D01*
X119296666Y-104973333D01*
X119330000Y-105040000D01*
X119396666Y-105073333D01*
X119430000Y-105073333D01*
X119496666Y-105040000D01*
X119530000Y-104973333D01*
X119530000Y-104873333D01*
X119496666Y-104806666D01*
X119530000Y-104173333D02*
X119063333Y-104173333D01*
X119530000Y-104473333D02*
X119163333Y-104473333D01*
X119096666Y-104440000D01*
X119063333Y-104373333D01*
X119063333Y-104273333D01*
X119096666Y-104206666D01*
X119130000Y-104173333D01*
X119063333Y-103840000D02*
X119530000Y-103840000D01*
X119763333Y-103840000D02*
X119730000Y-103873333D01*
X119696666Y-103840000D01*
X119730000Y-103806666D01*
X119763333Y-103840000D01*
X119696666Y-103840000D01*
X119063333Y-103506666D02*
X119763333Y-103506666D01*
X119330000Y-103440000D02*
X119063333Y-103240000D01*
X119530000Y-103240000D02*
X119263333Y-103506666D01*
X119063333Y-102640000D02*
X119430000Y-102640000D01*
X119496666Y-102673333D01*
X119530000Y-102740000D01*
X119530000Y-102873333D01*
X119496666Y-102940000D01*
X119096666Y-102640000D02*
X119063333Y-102706666D01*
X119063333Y-102873333D01*
X119096666Y-102940000D01*
X119163333Y-102973333D01*
X119230000Y-102973333D01*
X119296666Y-102940000D01*
X119330000Y-102873333D01*
X119330000Y-102706666D01*
X119363333Y-102640000D01*
X119530000Y-102306666D02*
X119063333Y-102306666D01*
X119463333Y-102306666D02*
X119496666Y-102273333D01*
X119530000Y-102206666D01*
X119530000Y-102106666D01*
X119496666Y-102040000D01*
X119430000Y-102006666D01*
X119063333Y-102006666D01*
X119530000Y-101373333D02*
X119063333Y-101373333D01*
X119796666Y-101540000D02*
X119296666Y-101706666D01*
X119296666Y-101273333D01*
X119530000Y-100706666D02*
X118963333Y-100706666D01*
X118896666Y-100740000D01*
X118863333Y-100773333D01*
X118830000Y-100840000D01*
X118830000Y-100940000D01*
X118863333Y-101006666D01*
X119096666Y-100706666D02*
X119063333Y-100773333D01*
X119063333Y-100906666D01*
X119096666Y-100973333D01*
X119130000Y-101006666D01*
X119196666Y-101040000D01*
X119396666Y-101040000D01*
X119463333Y-101006666D01*
X119496666Y-100973333D01*
X119530000Y-100906666D01*
X119530000Y-100773333D01*
X119496666Y-100706666D01*
X119063333Y-100373333D02*
X119530000Y-100373333D01*
X119763333Y-100373333D02*
X119730000Y-100406666D01*
X119696666Y-100373333D01*
X119730000Y-100340000D01*
X119763333Y-100373333D01*
X119696666Y-100373333D01*
X119530000Y-100140000D02*
X119530000Y-99873333D01*
X119763333Y-100040000D02*
X119163333Y-100040000D01*
X119096666Y-100006666D01*
X119063333Y-99940000D01*
X119063333Y-99873333D01*
X119063333Y-99640000D02*
X119763333Y-99640000D01*
X119063333Y-99340000D02*
X119430000Y-99340000D01*
X119496666Y-99373333D01*
X119530000Y-99440000D01*
X119530000Y-99540000D01*
X119496666Y-99606666D01*
X119463333Y-99640000D01*
X119530000Y-98706666D02*
X119063333Y-98706666D01*
X119530000Y-99006666D02*
X119163333Y-99006666D01*
X119096666Y-98973333D01*
X119063333Y-98906666D01*
X119063333Y-98806666D01*
X119096666Y-98740000D01*
X119130000Y-98706666D01*
X119063333Y-98373333D02*
X119763333Y-98373333D01*
X119496666Y-98373333D02*
X119530000Y-98306666D01*
X119530000Y-98173333D01*
X119496666Y-98106666D01*
X119463333Y-98073333D01*
X119396666Y-98040000D01*
X119196666Y-98040000D01*
X119130000Y-98073333D01*
X119096666Y-98106666D01*
X119063333Y-98173333D01*
X119063333Y-98306666D01*
X119096666Y-98373333D01*
X119796666Y-97240000D02*
X118896666Y-97840000D01*
X119063333Y-96673333D02*
X119063333Y-97006666D01*
X119763333Y-97006666D01*
X119063333Y-96440000D02*
X119763333Y-96440000D01*
X119696666Y-96140000D02*
X119730000Y-96106666D01*
X119763333Y-96040000D01*
X119763333Y-95873333D01*
X119730000Y-95806666D01*
X119696666Y-95773333D01*
X119630000Y-95740000D01*
X119563333Y-95740000D01*
X119463333Y-95773333D01*
X119063333Y-96173333D01*
X119063333Y-95740000D01*
X119763333Y-95306666D02*
X119763333Y-95240000D01*
X119730000Y-95173333D01*
X119696666Y-95140000D01*
X119630000Y-95106666D01*
X119496666Y-95073333D01*
X119330000Y-95073333D01*
X119196666Y-95106666D01*
X119130000Y-95140000D01*
X119096666Y-95173333D01*
X119063333Y-95240000D01*
X119063333Y-95306666D01*
X119096666Y-95373333D01*
X119130000Y-95406666D01*
X119196666Y-95440000D01*
X119330000Y-95473333D01*
X119496666Y-95473333D01*
X119630000Y-95440000D01*
X119696666Y-95406666D01*
X119730000Y-95373333D01*
X119763333Y-95306666D01*
X119696666Y-94806666D02*
X119730000Y-94773333D01*
X119763333Y-94706666D01*
X119763333Y-94540000D01*
X119730000Y-94473333D01*
X119696666Y-94440000D01*
X119630000Y-94406666D01*
X119563333Y-94406666D01*
X119463333Y-94440000D01*
X119063333Y-94840000D01*
X119063333Y-94406666D01*
X119763333Y-93806666D02*
X119763333Y-93940000D01*
X119730000Y-94006666D01*
X119696666Y-94040000D01*
X119596666Y-94106666D01*
X119463333Y-94140000D01*
X119196666Y-94140000D01*
X119130000Y-94106666D01*
X119096666Y-94073333D01*
X119063333Y-94006666D01*
X119063333Y-93873333D01*
X119096666Y-93806666D01*
X119130000Y-93773333D01*
X119196666Y-93740000D01*
X119363333Y-93740000D01*
X119430000Y-93773333D01*
X119463333Y-93806666D01*
X119496666Y-93873333D01*
X119496666Y-94006666D01*
X119463333Y-94073333D01*
X119430000Y-94106666D01*
X119363333Y-94140000D01*
X119763333Y-93306666D02*
X119763333Y-93173333D01*
X119730000Y-93106666D01*
X119663333Y-93040000D01*
X119530000Y-93006666D01*
X119296666Y-93006666D01*
X119163333Y-93040000D01*
X119096666Y-93106666D01*
X119063333Y-93173333D01*
X119063333Y-93306666D01*
X119096666Y-93373333D01*
X119163333Y-93440000D01*
X119296666Y-93473333D01*
X119530000Y-93473333D01*
X119663333Y-93440000D01*
X119730000Y-93373333D01*
X119763333Y-93306666D01*
X119063333Y-92706666D02*
X119763333Y-92706666D01*
X119763333Y-92540000D01*
X119730000Y-92440000D01*
X119663333Y-92373333D01*
X119596666Y-92340000D01*
X119463333Y-92306666D01*
X119363333Y-92306666D01*
X119230000Y-92340000D01*
X119163333Y-92373333D01*
X119096666Y-92440000D01*
X119063333Y-92540000D01*
X119063333Y-92706666D01*
X119063333Y-92006666D02*
X119763333Y-92006666D01*
X119763333Y-91740000D01*
X119730000Y-91673333D01*
X119696666Y-91640000D01*
X119630000Y-91606666D01*
X119530000Y-91606666D01*
X119463333Y-91640000D01*
X119430000Y-91673333D01*
X119396666Y-91740000D01*
X119396666Y-92006666D01*
D11*
G04 #@! TO.C,C5*
X129940267Y-116330000D02*
X129647733Y-116330000D01*
X129940267Y-117350000D02*
X129647733Y-117350000D01*
G04 #@! TO.C,R15*
X124204724Y-113396500D02*
X123695276Y-113396500D01*
X124204724Y-114441500D02*
X123695276Y-114441500D01*
G04 #@! TO.C,R14*
X130072224Y-113777500D02*
X129562776Y-113777500D01*
X130072224Y-114822500D02*
X129562776Y-114822500D01*
G04 #@! TO.C,R13*
X124204724Y-111872500D02*
X123695276Y-111872500D01*
X124204724Y-112917500D02*
X123695276Y-112917500D01*
G04 #@! TO.C,R12*
X130072224Y-111237500D02*
X129562776Y-111237500D01*
X130072224Y-112282500D02*
X129562776Y-112282500D01*
G04 #@! TO.C,R11*
X124204724Y-110348500D02*
X123695276Y-110348500D01*
X124204724Y-111393500D02*
X123695276Y-111393500D01*
G04 #@! TO.C,R10*
X130072224Y-108697500D02*
X129562776Y-108697500D01*
X130072224Y-109742500D02*
X129562776Y-109742500D01*
G04 #@! TO.C,R9*
X129562776Y-104662500D02*
X130072224Y-104662500D01*
X129562776Y-103617500D02*
X130072224Y-103617500D01*
G04 #@! TO.C,R8*
X129562776Y-102122500D02*
X130072224Y-102122500D01*
X129562776Y-101077500D02*
X130072224Y-101077500D01*
G04 #@! TO.C,R7*
X129562776Y-99582500D02*
X130072224Y-99582500D01*
X129562776Y-98537500D02*
X130072224Y-98537500D01*
G04 #@! TO.C,R6*
X129562776Y-97042500D02*
X130072224Y-97042500D01*
X129562776Y-95997500D02*
X130072224Y-95997500D01*
G04 #@! TO.C,R5*
X129562776Y-94502500D02*
X130072224Y-94502500D01*
X129562776Y-93457500D02*
X130072224Y-93457500D01*
G04 #@! TO.C,D9*
X125706000Y-85625000D02*
X128166000Y-85625000D01*
X128166000Y-85625000D02*
X128166000Y-87095000D01*
X128166000Y-87095000D02*
X125706000Y-87095000D01*
G04 #@! TO.C,D7*
X125678000Y-93245000D02*
X128138000Y-93245000D01*
X128138000Y-93245000D02*
X128138000Y-94715000D01*
X128138000Y-94715000D02*
X125678000Y-94715000D01*
G04 #@! TO.C,D6*
X125678000Y-95785000D02*
X128138000Y-95785000D01*
X128138000Y-95785000D02*
X128138000Y-97255000D01*
X128138000Y-97255000D02*
X125678000Y-97255000D01*
G04 #@! TO.C,D5*
X125678000Y-98325000D02*
X128138000Y-98325000D01*
X128138000Y-98325000D02*
X128138000Y-99795000D01*
X128138000Y-99795000D02*
X125678000Y-99795000D01*
G04 #@! TO.C,C4*
X126875000Y-113530767D02*
X126875000Y-113238233D01*
X125855000Y-113530767D02*
X125855000Y-113238233D01*
G04 #@! TO.C,C3*
X123954000Y-98851767D02*
X123954000Y-98559233D01*
X122934000Y-98851767D02*
X122934000Y-98559233D01*
G04 #@! TO.C,C2*
X122934000Y-104094233D02*
X122934000Y-104386767D01*
X123954000Y-104094233D02*
X123954000Y-104386767D01*
G04 #@! TO.C,R3*
X129562776Y-86882500D02*
X130072224Y-86882500D01*
X129562776Y-85837500D02*
X130072224Y-85837500D01*
G04 #@! TO.C,R2*
X120119224Y-85837500D02*
X119609776Y-85837500D01*
X120119224Y-86882500D02*
X119609776Y-86882500D01*
G04 #@! TO.C,R1*
X120205724Y-88377500D02*
X119696276Y-88377500D01*
X120205724Y-89422500D02*
X119696276Y-89422500D01*
G04 #@! TO.C,D4*
X125678000Y-100865000D02*
X128138000Y-100865000D01*
X128138000Y-100865000D02*
X128138000Y-102335000D01*
X128138000Y-102335000D02*
X125678000Y-102335000D01*
G04 #@! TO.C,D3*
X125678000Y-103405000D02*
X128138000Y-103405000D01*
X128138000Y-103405000D02*
X128138000Y-104875000D01*
X128138000Y-104875000D02*
X125678000Y-104875000D01*
G04 #@! TO.C,D2*
X124103000Y-89635000D02*
X121643000Y-89635000D01*
X121643000Y-89635000D02*
X121643000Y-88165000D01*
X121643000Y-88165000D02*
X124103000Y-88165000D01*
G04 #@! TO.C,D1*
X123976000Y-87095000D02*
X121516000Y-87095000D01*
X121516000Y-87095000D02*
X121516000Y-85625000D01*
X121516000Y-85625000D02*
X123976000Y-85625000D01*
G04 #@! TO.C,R4*
X129562776Y-91962500D02*
X130072224Y-91962500D01*
X129562776Y-90917500D02*
X130072224Y-90917500D01*
G04 #@! TO.C,D8*
X125678000Y-90705000D02*
X128138000Y-90705000D01*
X128138000Y-90705000D02*
X128138000Y-92175000D01*
X128138000Y-92175000D02*
X125678000Y-92175000D01*
G04 #@! TO.C,C5*
D10*
X129910666Y-118360000D02*
X129944000Y-118393333D01*
X130044000Y-118426666D01*
X130110666Y-118426666D01*
X130210666Y-118393333D01*
X130277333Y-118326666D01*
X130310666Y-118260000D01*
X130344000Y-118126666D01*
X130344000Y-118026666D01*
X130310666Y-117893333D01*
X130277333Y-117826666D01*
X130210666Y-117760000D01*
X130110666Y-117726666D01*
X130044000Y-117726666D01*
X129944000Y-117760000D01*
X129910666Y-117793333D01*
X129277333Y-117726666D02*
X129610666Y-117726666D01*
X129644000Y-118060000D01*
X129610666Y-118026666D01*
X129544000Y-117993333D01*
X129377333Y-117993333D01*
X129310666Y-118026666D01*
X129277333Y-118060000D01*
X129244000Y-118126666D01*
X129244000Y-118293333D01*
X129277333Y-118360000D01*
X129310666Y-118393333D01*
X129377333Y-118426666D01*
X129544000Y-118426666D01*
X129610666Y-118393333D01*
X129644000Y-118360000D01*
G04 #@! TO.C,R15*
X121354000Y-114235666D02*
X121587333Y-113902333D01*
X121754000Y-114235666D02*
X121754000Y-113535666D01*
X121487333Y-113535666D01*
X121420666Y-113569000D01*
X121387333Y-113602333D01*
X121354000Y-113669000D01*
X121354000Y-113769000D01*
X121387333Y-113835666D01*
X121420666Y-113869000D01*
X121487333Y-113902333D01*
X121754000Y-113902333D01*
X120687333Y-114235666D02*
X121087333Y-114235666D01*
X120887333Y-114235666D02*
X120887333Y-113535666D01*
X120954000Y-113635666D01*
X121020666Y-113702333D01*
X121087333Y-113735666D01*
X120054000Y-113535666D02*
X120387333Y-113535666D01*
X120420666Y-113869000D01*
X120387333Y-113835666D01*
X120320666Y-113802333D01*
X120154000Y-113802333D01*
X120087333Y-113835666D01*
X120054000Y-113869000D01*
X120020666Y-113935666D01*
X120020666Y-114102333D01*
X120054000Y-114169000D01*
X120087333Y-114202333D01*
X120154000Y-114235666D01*
X120320666Y-114235666D01*
X120387333Y-114202333D01*
X120420666Y-114169000D01*
G04 #@! TO.C,R14*
X130267500Y-116013666D02*
X130500833Y-115680333D01*
X130667500Y-116013666D02*
X130667500Y-115313666D01*
X130400833Y-115313666D01*
X130334166Y-115347000D01*
X130300833Y-115380333D01*
X130267500Y-115447000D01*
X130267500Y-115547000D01*
X130300833Y-115613666D01*
X130334166Y-115647000D01*
X130400833Y-115680333D01*
X130667500Y-115680333D01*
X129600833Y-116013666D02*
X130000833Y-116013666D01*
X129800833Y-116013666D02*
X129800833Y-115313666D01*
X129867500Y-115413666D01*
X129934166Y-115480333D01*
X130000833Y-115513666D01*
X129000833Y-115547000D02*
X129000833Y-116013666D01*
X129167500Y-115280333D02*
X129334166Y-115780333D01*
X128900833Y-115780333D01*
G04 #@! TO.C,R13*
X121354000Y-112838666D02*
X121587333Y-112505333D01*
X121754000Y-112838666D02*
X121754000Y-112138666D01*
X121487333Y-112138666D01*
X121420666Y-112172000D01*
X121387333Y-112205333D01*
X121354000Y-112272000D01*
X121354000Y-112372000D01*
X121387333Y-112438666D01*
X121420666Y-112472000D01*
X121487333Y-112505333D01*
X121754000Y-112505333D01*
X120687333Y-112838666D02*
X121087333Y-112838666D01*
X120887333Y-112838666D02*
X120887333Y-112138666D01*
X120954000Y-112238666D01*
X121020666Y-112305333D01*
X121087333Y-112338666D01*
X120454000Y-112138666D02*
X120020666Y-112138666D01*
X120254000Y-112405333D01*
X120154000Y-112405333D01*
X120087333Y-112438666D01*
X120054000Y-112472000D01*
X120020666Y-112538666D01*
X120020666Y-112705333D01*
X120054000Y-112772000D01*
X120087333Y-112805333D01*
X120154000Y-112838666D01*
X120354000Y-112838666D01*
X120420666Y-112805333D01*
X120454000Y-112772000D01*
G04 #@! TO.C,R12*
X130371000Y-113346666D02*
X130604333Y-113013333D01*
X130771000Y-113346666D02*
X130771000Y-112646666D01*
X130504333Y-112646666D01*
X130437666Y-112680000D01*
X130404333Y-112713333D01*
X130371000Y-112780000D01*
X130371000Y-112880000D01*
X130404333Y-112946666D01*
X130437666Y-112980000D01*
X130504333Y-113013333D01*
X130771000Y-113013333D01*
X129704333Y-113346666D02*
X130104333Y-113346666D01*
X129904333Y-113346666D02*
X129904333Y-112646666D01*
X129971000Y-112746666D01*
X130037666Y-112813333D01*
X130104333Y-112846666D01*
X129437666Y-112713333D02*
X129404333Y-112680000D01*
X129337666Y-112646666D01*
X129171000Y-112646666D01*
X129104333Y-112680000D01*
X129071000Y-112713333D01*
X129037666Y-112780000D01*
X129037666Y-112846666D01*
X129071000Y-112946666D01*
X129471000Y-113346666D01*
X129037666Y-113346666D01*
G04 #@! TO.C,R11*
X121354000Y-111187666D02*
X121587333Y-110854333D01*
X121754000Y-111187666D02*
X121754000Y-110487666D01*
X121487333Y-110487666D01*
X121420666Y-110521000D01*
X121387333Y-110554333D01*
X121354000Y-110621000D01*
X121354000Y-110721000D01*
X121387333Y-110787666D01*
X121420666Y-110821000D01*
X121487333Y-110854333D01*
X121754000Y-110854333D01*
X120687333Y-111187666D02*
X121087333Y-111187666D01*
X120887333Y-111187666D02*
X120887333Y-110487666D01*
X120954000Y-110587666D01*
X121020666Y-110654333D01*
X121087333Y-110687666D01*
X120020666Y-111187666D02*
X120420666Y-111187666D01*
X120220666Y-111187666D02*
X120220666Y-110487666D01*
X120287333Y-110587666D01*
X120354000Y-110654333D01*
X120420666Y-110687666D01*
G04 #@! TO.C,R10*
X130244000Y-110806666D02*
X130477333Y-110473333D01*
X130644000Y-110806666D02*
X130644000Y-110106666D01*
X130377333Y-110106666D01*
X130310666Y-110140000D01*
X130277333Y-110173333D01*
X130244000Y-110240000D01*
X130244000Y-110340000D01*
X130277333Y-110406666D01*
X130310666Y-110440000D01*
X130377333Y-110473333D01*
X130644000Y-110473333D01*
X129577333Y-110806666D02*
X129977333Y-110806666D01*
X129777333Y-110806666D02*
X129777333Y-110106666D01*
X129844000Y-110206666D01*
X129910666Y-110273333D01*
X129977333Y-110306666D01*
X129144000Y-110106666D02*
X129077333Y-110106666D01*
X129010666Y-110140000D01*
X128977333Y-110173333D01*
X128944000Y-110240000D01*
X128910666Y-110373333D01*
X128910666Y-110540000D01*
X128944000Y-110673333D01*
X128977333Y-110740000D01*
X129010666Y-110773333D01*
X129077333Y-110806666D01*
X129144000Y-110806666D01*
X129210666Y-110773333D01*
X129244000Y-110740000D01*
X129277333Y-110673333D01*
X129310666Y-110540000D01*
X129310666Y-110373333D01*
X129277333Y-110240000D01*
X129244000Y-110173333D01*
X129210666Y-110140000D01*
X129144000Y-110106666D01*
G04 #@! TO.C,R9*
X129934166Y-105886666D02*
X130167500Y-105553333D01*
X130334166Y-105886666D02*
X130334166Y-105186666D01*
X130067500Y-105186666D01*
X130000833Y-105220000D01*
X129967500Y-105253333D01*
X129934166Y-105320000D01*
X129934166Y-105420000D01*
X129967500Y-105486666D01*
X130000833Y-105520000D01*
X130067500Y-105553333D01*
X130334166Y-105553333D01*
X129600833Y-105886666D02*
X129467500Y-105886666D01*
X129400833Y-105853333D01*
X129367500Y-105820000D01*
X129300833Y-105720000D01*
X129267500Y-105586666D01*
X129267500Y-105320000D01*
X129300833Y-105253333D01*
X129334166Y-105220000D01*
X129400833Y-105186666D01*
X129534166Y-105186666D01*
X129600833Y-105220000D01*
X129634166Y-105253333D01*
X129667500Y-105320000D01*
X129667500Y-105486666D01*
X129634166Y-105553333D01*
X129600833Y-105586666D01*
X129534166Y-105620000D01*
X129400833Y-105620000D01*
X129334166Y-105586666D01*
X129300833Y-105553333D01*
X129267500Y-105486666D01*
G04 #@! TO.C,R8*
X129934166Y-103346666D02*
X130167500Y-103013333D01*
X130334166Y-103346666D02*
X130334166Y-102646666D01*
X130067500Y-102646666D01*
X130000833Y-102680000D01*
X129967500Y-102713333D01*
X129934166Y-102780000D01*
X129934166Y-102880000D01*
X129967500Y-102946666D01*
X130000833Y-102980000D01*
X130067500Y-103013333D01*
X130334166Y-103013333D01*
X129534166Y-102946666D02*
X129600833Y-102913333D01*
X129634166Y-102880000D01*
X129667500Y-102813333D01*
X129667500Y-102780000D01*
X129634166Y-102713333D01*
X129600833Y-102680000D01*
X129534166Y-102646666D01*
X129400833Y-102646666D01*
X129334166Y-102680000D01*
X129300833Y-102713333D01*
X129267500Y-102780000D01*
X129267500Y-102813333D01*
X129300833Y-102880000D01*
X129334166Y-102913333D01*
X129400833Y-102946666D01*
X129534166Y-102946666D01*
X129600833Y-102980000D01*
X129634166Y-103013333D01*
X129667500Y-103080000D01*
X129667500Y-103213333D01*
X129634166Y-103280000D01*
X129600833Y-103313333D01*
X129534166Y-103346666D01*
X129400833Y-103346666D01*
X129334166Y-103313333D01*
X129300833Y-103280000D01*
X129267500Y-103213333D01*
X129267500Y-103080000D01*
X129300833Y-103013333D01*
X129334166Y-102980000D01*
X129400833Y-102946666D01*
G04 #@! TO.C,R7*
X129934166Y-100806666D02*
X130167500Y-100473333D01*
X130334166Y-100806666D02*
X130334166Y-100106666D01*
X130067500Y-100106666D01*
X130000833Y-100140000D01*
X129967500Y-100173333D01*
X129934166Y-100240000D01*
X129934166Y-100340000D01*
X129967500Y-100406666D01*
X130000833Y-100440000D01*
X130067500Y-100473333D01*
X130334166Y-100473333D01*
X129700833Y-100106666D02*
X129234166Y-100106666D01*
X129534166Y-100806666D01*
G04 #@! TO.C,R6*
X129934166Y-98266666D02*
X130167500Y-97933333D01*
X130334166Y-98266666D02*
X130334166Y-97566666D01*
X130067500Y-97566666D01*
X130000833Y-97600000D01*
X129967500Y-97633333D01*
X129934166Y-97700000D01*
X129934166Y-97800000D01*
X129967500Y-97866666D01*
X130000833Y-97900000D01*
X130067500Y-97933333D01*
X130334166Y-97933333D01*
X129334166Y-97566666D02*
X129467500Y-97566666D01*
X129534166Y-97600000D01*
X129567500Y-97633333D01*
X129634166Y-97733333D01*
X129667500Y-97866666D01*
X129667500Y-98133333D01*
X129634166Y-98200000D01*
X129600833Y-98233333D01*
X129534166Y-98266666D01*
X129400833Y-98266666D01*
X129334166Y-98233333D01*
X129300833Y-98200000D01*
X129267500Y-98133333D01*
X129267500Y-97966666D01*
X129300833Y-97900000D01*
X129334166Y-97866666D01*
X129400833Y-97833333D01*
X129534166Y-97833333D01*
X129600833Y-97866666D01*
X129634166Y-97900000D01*
X129667500Y-97966666D01*
G04 #@! TO.C,R5*
X129934166Y-95726666D02*
X130167500Y-95393333D01*
X130334166Y-95726666D02*
X130334166Y-95026666D01*
X130067500Y-95026666D01*
X130000833Y-95060000D01*
X129967500Y-95093333D01*
X129934166Y-95160000D01*
X129934166Y-95260000D01*
X129967500Y-95326666D01*
X130000833Y-95360000D01*
X130067500Y-95393333D01*
X130334166Y-95393333D01*
X129300833Y-95026666D02*
X129634166Y-95026666D01*
X129667500Y-95360000D01*
X129634166Y-95326666D01*
X129567500Y-95293333D01*
X129400833Y-95293333D01*
X129334166Y-95326666D01*
X129300833Y-95360000D01*
X129267500Y-95426666D01*
X129267500Y-95593333D01*
X129300833Y-95660000D01*
X129334166Y-95693333D01*
X129400833Y-95726666D01*
X129567500Y-95726666D01*
X129634166Y-95693333D01*
X129667500Y-95660000D01*
G04 #@! TO.C,D9*
X128532666Y-87946666D02*
X128532666Y-87246666D01*
X128366000Y-87246666D01*
X128266000Y-87280000D01*
X128199333Y-87346666D01*
X128166000Y-87413333D01*
X128132666Y-87546666D01*
X128132666Y-87646666D01*
X128166000Y-87780000D01*
X128199333Y-87846666D01*
X128266000Y-87913333D01*
X128366000Y-87946666D01*
X128532666Y-87946666D01*
X127799333Y-87946666D02*
X127666000Y-87946666D01*
X127599333Y-87913333D01*
X127566000Y-87880000D01*
X127499333Y-87780000D01*
X127466000Y-87646666D01*
X127466000Y-87380000D01*
X127499333Y-87313333D01*
X127532666Y-87280000D01*
X127599333Y-87246666D01*
X127732666Y-87246666D01*
X127799333Y-87280000D01*
X127832666Y-87313333D01*
X127866000Y-87380000D01*
X127866000Y-87546666D01*
X127832666Y-87613333D01*
X127799333Y-87646666D01*
X127732666Y-87680000D01*
X127599333Y-87680000D01*
X127532666Y-87646666D01*
X127499333Y-87613333D01*
X127466000Y-87546666D01*
G04 #@! TO.C,D7*
X128024666Y-95566666D02*
X128024666Y-94866666D01*
X127858000Y-94866666D01*
X127758000Y-94900000D01*
X127691333Y-94966666D01*
X127658000Y-95033333D01*
X127624666Y-95166666D01*
X127624666Y-95266666D01*
X127658000Y-95400000D01*
X127691333Y-95466666D01*
X127758000Y-95533333D01*
X127858000Y-95566666D01*
X128024666Y-95566666D01*
X127391333Y-94866666D02*
X126924666Y-94866666D01*
X127224666Y-95566666D01*
G04 #@! TO.C,D6*
X127770666Y-98106666D02*
X127770666Y-97406666D01*
X127604000Y-97406666D01*
X127504000Y-97440000D01*
X127437333Y-97506666D01*
X127404000Y-97573333D01*
X127370666Y-97706666D01*
X127370666Y-97806666D01*
X127404000Y-97940000D01*
X127437333Y-98006666D01*
X127504000Y-98073333D01*
X127604000Y-98106666D01*
X127770666Y-98106666D01*
X126770666Y-97406666D02*
X126904000Y-97406666D01*
X126970666Y-97440000D01*
X127004000Y-97473333D01*
X127070666Y-97573333D01*
X127104000Y-97706666D01*
X127104000Y-97973333D01*
X127070666Y-98040000D01*
X127037333Y-98073333D01*
X126970666Y-98106666D01*
X126837333Y-98106666D01*
X126770666Y-98073333D01*
X126737333Y-98040000D01*
X126704000Y-97973333D01*
X126704000Y-97806666D01*
X126737333Y-97740000D01*
X126770666Y-97706666D01*
X126837333Y-97673333D01*
X126970666Y-97673333D01*
X127037333Y-97706666D01*
X127070666Y-97740000D01*
X127104000Y-97806666D01*
G04 #@! TO.C,D5*
X127770666Y-100646666D02*
X127770666Y-99946666D01*
X127604000Y-99946666D01*
X127504000Y-99980000D01*
X127437333Y-100046666D01*
X127404000Y-100113333D01*
X127370666Y-100246666D01*
X127370666Y-100346666D01*
X127404000Y-100480000D01*
X127437333Y-100546666D01*
X127504000Y-100613333D01*
X127604000Y-100646666D01*
X127770666Y-100646666D01*
X126737333Y-99946666D02*
X127070666Y-99946666D01*
X127104000Y-100280000D01*
X127070666Y-100246666D01*
X127004000Y-100213333D01*
X126837333Y-100213333D01*
X126770666Y-100246666D01*
X126737333Y-100280000D01*
X126704000Y-100346666D01*
X126704000Y-100513333D01*
X126737333Y-100580000D01*
X126770666Y-100613333D01*
X126837333Y-100646666D01*
X127004000Y-100646666D01*
X127070666Y-100613333D01*
X127104000Y-100580000D01*
G04 #@! TO.C,C4*
X126115000Y-111088166D02*
X126081666Y-111121500D01*
X126048333Y-111221500D01*
X126048333Y-111288166D01*
X126081666Y-111388166D01*
X126148333Y-111454833D01*
X126215000Y-111488166D01*
X126348333Y-111521500D01*
X126448333Y-111521500D01*
X126581666Y-111488166D01*
X126648333Y-111454833D01*
X126715000Y-111388166D01*
X126748333Y-111288166D01*
X126748333Y-111221500D01*
X126715000Y-111121500D01*
X126681666Y-111088166D01*
X126515000Y-110488166D02*
X126048333Y-110488166D01*
X126781666Y-110654833D02*
X126281666Y-110821500D01*
X126281666Y-110388166D01*
G04 #@! TO.C,C3*
X121924000Y-98922666D02*
X121890666Y-98956000D01*
X121857333Y-99056000D01*
X121857333Y-99122666D01*
X121890666Y-99222666D01*
X121957333Y-99289333D01*
X122024000Y-99322666D01*
X122157333Y-99356000D01*
X122257333Y-99356000D01*
X122390666Y-99322666D01*
X122457333Y-99289333D01*
X122524000Y-99222666D01*
X122557333Y-99122666D01*
X122557333Y-99056000D01*
X122524000Y-98956000D01*
X122490666Y-98922666D01*
X122557333Y-98689333D02*
X122557333Y-98256000D01*
X122290666Y-98489333D01*
X122290666Y-98389333D01*
X122257333Y-98322666D01*
X122224000Y-98289333D01*
X122157333Y-98256000D01*
X121990666Y-98256000D01*
X121924000Y-98289333D01*
X121890666Y-98322666D01*
X121857333Y-98389333D01*
X121857333Y-98589333D01*
X121890666Y-98656000D01*
X121924000Y-98689333D01*
G04 #@! TO.C,C2*
X121924000Y-104510666D02*
X121890666Y-104544000D01*
X121857333Y-104644000D01*
X121857333Y-104710666D01*
X121890666Y-104810666D01*
X121957333Y-104877333D01*
X122024000Y-104910666D01*
X122157333Y-104944000D01*
X122257333Y-104944000D01*
X122390666Y-104910666D01*
X122457333Y-104877333D01*
X122524000Y-104810666D01*
X122557333Y-104710666D01*
X122557333Y-104644000D01*
X122524000Y-104544000D01*
X122490666Y-104510666D01*
X122490666Y-104244000D02*
X122524000Y-104210666D01*
X122557333Y-104144000D01*
X122557333Y-103977333D01*
X122524000Y-103910666D01*
X122490666Y-103877333D01*
X122424000Y-103844000D01*
X122357333Y-103844000D01*
X122257333Y-103877333D01*
X121857333Y-104277333D01*
X121857333Y-103844000D01*
G04 #@! TO.C,R3*
X129934166Y-88106666D02*
X130167500Y-87773333D01*
X130334166Y-88106666D02*
X130334166Y-87406666D01*
X130067500Y-87406666D01*
X130000833Y-87440000D01*
X129967500Y-87473333D01*
X129934166Y-87540000D01*
X129934166Y-87640000D01*
X129967500Y-87706666D01*
X130000833Y-87740000D01*
X130067500Y-87773333D01*
X130334166Y-87773333D01*
X129700833Y-87406666D02*
X129267500Y-87406666D01*
X129500833Y-87673333D01*
X129400833Y-87673333D01*
X129334166Y-87706666D01*
X129300833Y-87740000D01*
X129267500Y-87806666D01*
X129267500Y-87973333D01*
X129300833Y-88040000D01*
X129334166Y-88073333D01*
X129400833Y-88106666D01*
X129600833Y-88106666D01*
X129667500Y-88073333D01*
X129700833Y-88040000D01*
G04 #@! TO.C,R2*
X120131666Y-87946666D02*
X120365000Y-87613333D01*
X120531666Y-87946666D02*
X120531666Y-87246666D01*
X120265000Y-87246666D01*
X120198333Y-87280000D01*
X120165000Y-87313333D01*
X120131666Y-87380000D01*
X120131666Y-87480000D01*
X120165000Y-87546666D01*
X120198333Y-87580000D01*
X120265000Y-87613333D01*
X120531666Y-87613333D01*
X119865000Y-87313333D02*
X119831666Y-87280000D01*
X119765000Y-87246666D01*
X119598333Y-87246666D01*
X119531666Y-87280000D01*
X119498333Y-87313333D01*
X119465000Y-87380000D01*
X119465000Y-87446666D01*
X119498333Y-87546666D01*
X119898333Y-87946666D01*
X119465000Y-87946666D01*
G04 #@! TO.C,R1*
X119496666Y-90994666D02*
X119730000Y-90661333D01*
X119896666Y-90994666D02*
X119896666Y-90294666D01*
X119630000Y-90294666D01*
X119563333Y-90328000D01*
X119530000Y-90361333D01*
X119496666Y-90428000D01*
X119496666Y-90528000D01*
X119530000Y-90594666D01*
X119563333Y-90628000D01*
X119630000Y-90661333D01*
X119896666Y-90661333D01*
X118830000Y-90994666D02*
X119230000Y-90994666D01*
X119030000Y-90994666D02*
X119030000Y-90294666D01*
X119096666Y-90394666D01*
X119163333Y-90461333D01*
X119230000Y-90494666D01*
G04 #@! TO.C,D4*
X127770666Y-103186666D02*
X127770666Y-102486666D01*
X127604000Y-102486666D01*
X127504000Y-102520000D01*
X127437333Y-102586666D01*
X127404000Y-102653333D01*
X127370666Y-102786666D01*
X127370666Y-102886666D01*
X127404000Y-103020000D01*
X127437333Y-103086666D01*
X127504000Y-103153333D01*
X127604000Y-103186666D01*
X127770666Y-103186666D01*
X126770666Y-102720000D02*
X126770666Y-103186666D01*
X126937333Y-102453333D02*
X127104000Y-102953333D01*
X126670666Y-102953333D01*
G04 #@! TO.C,D3*
X127770666Y-105726666D02*
X127770666Y-105026666D01*
X127604000Y-105026666D01*
X127504000Y-105060000D01*
X127437333Y-105126666D01*
X127404000Y-105193333D01*
X127370666Y-105326666D01*
X127370666Y-105426666D01*
X127404000Y-105560000D01*
X127437333Y-105626666D01*
X127504000Y-105693333D01*
X127604000Y-105726666D01*
X127770666Y-105726666D01*
X127137333Y-105026666D02*
X126704000Y-105026666D01*
X126937333Y-105293333D01*
X126837333Y-105293333D01*
X126770666Y-105326666D01*
X126737333Y-105360000D01*
X126704000Y-105426666D01*
X126704000Y-105593333D01*
X126737333Y-105660000D01*
X126770666Y-105693333D01*
X126837333Y-105726666D01*
X127037333Y-105726666D01*
X127104000Y-105693333D01*
X127137333Y-105660000D01*
G04 #@! TO.C,D2*
X123819666Y-90646666D02*
X123819666Y-89946666D01*
X123653000Y-89946666D01*
X123553000Y-89980000D01*
X123486333Y-90046666D01*
X123453000Y-90113333D01*
X123419666Y-90246666D01*
X123419666Y-90346666D01*
X123453000Y-90480000D01*
X123486333Y-90546666D01*
X123553000Y-90613333D01*
X123653000Y-90646666D01*
X123819666Y-90646666D01*
X123153000Y-90013333D02*
X123119666Y-89980000D01*
X123053000Y-89946666D01*
X122886333Y-89946666D01*
X122819666Y-89980000D01*
X122786333Y-90013333D01*
X122753000Y-90080000D01*
X122753000Y-90146666D01*
X122786333Y-90246666D01*
X123186333Y-90646666D01*
X122753000Y-90646666D01*
G04 #@! TO.C,D1*
X123692666Y-88106666D02*
X123692666Y-87406666D01*
X123526000Y-87406666D01*
X123426000Y-87440000D01*
X123359333Y-87506666D01*
X123326000Y-87573333D01*
X123292666Y-87706666D01*
X123292666Y-87806666D01*
X123326000Y-87940000D01*
X123359333Y-88006666D01*
X123426000Y-88073333D01*
X123526000Y-88106666D01*
X123692666Y-88106666D01*
X122626000Y-88106666D02*
X123026000Y-88106666D01*
X122826000Y-88106666D02*
X122826000Y-87406666D01*
X122892666Y-87506666D01*
X122959333Y-87573333D01*
X123026000Y-87606666D01*
G04 #@! TO.C,R4*
X129934166Y-93186666D02*
X130167500Y-92853333D01*
X130334166Y-93186666D02*
X130334166Y-92486666D01*
X130067500Y-92486666D01*
X130000833Y-92520000D01*
X129967500Y-92553333D01*
X129934166Y-92620000D01*
X129934166Y-92720000D01*
X129967500Y-92786666D01*
X130000833Y-92820000D01*
X130067500Y-92853333D01*
X130334166Y-92853333D01*
X129334166Y-92720000D02*
X129334166Y-93186666D01*
X129500833Y-92453333D02*
X129667500Y-92953333D01*
X129234166Y-92953333D01*
G04 #@! TO.C,D8*
X127234666Y-93026666D02*
X127234666Y-92326666D01*
X127068000Y-92326666D01*
X126968000Y-92360000D01*
X126901333Y-92426666D01*
X126868000Y-92493333D01*
X126834666Y-92626666D01*
X126834666Y-92726666D01*
X126868000Y-92860000D01*
X126901333Y-92926666D01*
X126968000Y-92993333D01*
X127068000Y-93026666D01*
X127234666Y-93026666D01*
X126434666Y-92626666D02*
X126501333Y-92593333D01*
X126534666Y-92560000D01*
X126568000Y-92493333D01*
X126568000Y-92460000D01*
X126534666Y-92393333D01*
X126501333Y-92360000D01*
X126434666Y-92326666D01*
X126301333Y-92326666D01*
X126234666Y-92360000D01*
X126201333Y-92393333D01*
X126168000Y-92460000D01*
X126168000Y-92493333D01*
X126201333Y-92560000D01*
X126234666Y-92593333D01*
X126301333Y-92626666D01*
X126434666Y-92626666D01*
X126501333Y-92660000D01*
X126534666Y-92693333D01*
X126568000Y-92760000D01*
X126568000Y-92893333D01*
X126534666Y-92960000D01*
X126501333Y-92993333D01*
X126434666Y-93026666D01*
X126301333Y-93026666D01*
X126234666Y-92993333D01*
X126201333Y-92960000D01*
X126168000Y-92893333D01*
X126168000Y-92760000D01*
X126201333Y-92693333D01*
X126234666Y-92660000D01*
X126301333Y-92626666D01*
G04 #@! TD*
M02*
